<?xml version="1.0" encoding="UTF-8" standalone="no"?>
<!-- Created with Inkscape (http://www.inkscape.org/) -->

<svg
   width="131.7677mm"
   height="262.82224mm"
   viewBox="0 0 131.7677 262.82224"
   version="1.1"
   id="svg5"
   xmlns="http://www.w3.org/2000/svg"
   xmlns:svg="http://www.w3.org/2000/svg">
  <defs
     id="defs2" />
  <g
     id="layer1"
     transform="translate(154.17447,11.855766)">
    <g
       id="path904" />
    <g
       id="path906" />
    <path
       id="path1193-9-9"
       style="color:#000000;fill:#000000;fill-opacity:1;stroke-width:1;-inkscape-stroke:none"
       d="m -44.571933,-11.855766 -87.603437,0.170016 c -9.23459,0.002 -14.69427,4.3499063 -17.34985,8.6775053 -2.65619,4.3286045 -2.83393,8.6775078 -2.83393,8.6775078 l -0.002,0.056843 -0.017,16.9317829 h -1.79576 v 9.562208 h 1.78646 l -0.009,8.629962 h -1.77767 v 19.545578 h 1.75855 l -0.005,4.57078 h -1.7539 v 19.545577 h 1.73478 L -152.588,233.46466 c 0,3.5e-4 0,6.9e-4 0,0.001 v 0.0258 h 5.2e-4 c -0.0563,5.22301 2.61251,9.72794 6.41149,12.76977 3.80555,3.0471 8.76829,4.77488 13.81466,4.70308 l 87.56623,-0.17003 c 9.23848,0 14.69934,-4.3489 17.355532,-8.67751 2.656178,-4.32858 2.833933,-8.67801 2.833933,-8.67801 l 0.0021,-0.0563 0.153477,-155.635973 h 2.043287 V 47.267239 h -2.013312 l 0.04134,-41.767476 c 0,0 -0.177744,-4.3494192 -2.833933,-8.6780236 -2.656192,-4.3286018 -8.117052,-8.6775064 -17.355532,-8.6775054 v 2.1052978 z m 0.0098,4.9996939 c 7.767632,0.00158 11.151989,3.1380245 13.088091,6.29315685 1.918028,3.12568165 2.094304,6.20915165 2.097545,6.26835215 L -29.603338,233.22231 c -9.82e-4,0.0186 -0.166738,3.13269 -2.097548,6.27919 -1.936588,3.15593 -5.321964,6.29314 -13.093774,6.29314 h -0.0021 l -87.6055,0.17003 0.005,2.47943 -0.0357,-2.47943 c -3.83302,0.0545 -7.76941,-1.32599 -10.61692,-3.60598 -2.84751,-2.28 -4.58152,-5.31046 -4.53719,-8.83203 l -2.59261,-0.032 2.59261,0.003 0.22634,-227.613503 c 9.9e-4,-0.018661 0.16675,-3.1306425 2.09755,-6.2771363 1.93659,-3.1559288 5.32196,-6.2931568 13.09377,-6.2931568 h 0.002 l 87.605501,-0.1694974 z m -52.651566,3.4711058 c -2.026098,0 -3.657661,1.6310451 -3.657661,3.65714218 0,2.02609712 1.631563,3.65714222 3.657661,3.65714222 h 16.8398 c 2.026097,0 3.657139,-1.6310451 3.657139,-3.65714222 0,-2.02609708 -1.631042,-3.65714218 -3.657139,-3.65714218 z" />
  </g>
</svg>
