<?xml version="1.0" encoding="UTF-8" standalone="no"?>
<svg
   viewBox="0 0 107.93697 122.29135"
   height="122.29135"
   width="107.93697"
   xml:space="preserve"
   id="svg2"
   version="1.1"
   sodipodi:docname="bear.svg"
   inkscape:version="1.1.2 (b8e25be833, 2022-02-05)"
   xmlns:inkscape="http://www.inkscape.org/namespaces/inkscape"
   xmlns:sodipodi="http://sodipodi.sourceforge.net/DTD/sodipodi-0.dtd"
   xmlns="http://www.w3.org/2000/svg"
   xmlns:svg="http://www.w3.org/2000/svg"
   xmlns:rdf="http://www.w3.org/1999/02/22-rdf-syntax-ns#"
   xmlns:cc="http://creativecommons.org/ns#"
   xmlns:dc="http://purl.org/dc/elements/1.1/"><sodipodi:namedview
     id="namedview8358"
     pagecolor="#ffffff"
     bordercolor="#666666"
     borderopacity="1.0"
     inkscape:pageshadow="2"
     inkscape:pageopacity="0.0"
     inkscape:pagecheckerboard="0"
     showgrid="false"
     inkscape:zoom="1.2117028"
     inkscape:cx="104.81118"
     inkscape:cy="-139.0605"
     inkscape:window-width="2560"
     inkscape:window-height="1361"
     inkscape:window-x="-9"
     inkscape:window-y="-9"
     inkscape:window-maximized="1"
     inkscape:current-layer="g12"
     fit-margin-top="0"
     fit-margin-left="0"
     fit-margin-right="0"
     fit-margin-bottom="0" /><metadata
     id="metadata8"><rdf:RDF><cc:Work
         rdf:about=""><dc:format>image/svg+xml</dc:format><dc:type
           rdf:resource="http://purl.org/dc/dcmitype/StillImage" /></cc:Work></rdf:RDF></metadata><defs
     id="defs6"><clipPath
       id="clipPath542"
       clipPathUnits="userSpaceOnUse"><path
         id="path540"
         d="m 5450.34,694.672 c -0.11,0 -0.23,0.008 -0.34,0.047 -3.4,1.043 -6.74,2.871 -9.78,5.191 1.04,0.942 2.07,1.879 3.11,2.82 2.61,-1.902 5.33,-3.718 7.96,-5.789 0.97,-0.773 0.11,-2.269 -0.95,-2.269" /></clipPath></defs><g
     transform="matrix(1.3333333,0,0,-1.3333333,-210.43668,-421.91757)"
     id="g10"><g
       transform="scale(0.1)"
       id="g12"><path
         id="path446"
         style="fill:#824c37;fill-opacity:1;fill-rule:nonzero;stroke:none"
         d="m 2074.7651,-4032.0942 c -24.28,-8.02 -21.71,-7.32 -21.71,-7.32 17.78,10.02 69.52,30 69.52,111.6 0,96.91 -66.65,178.71 -101.28,215 h -38.23 -38.28 c -34.6,-36.29 -101.74,-118.1 -101.28,-215 0,-86.88 51.44,-102.68 67.26,-111.6 0,0 -0.39,-0.7 -24.67,7.32 -24.28,8.03 -57.71,-1.93 -48.68,-29.89 5.22,-16.19 19.73,-14.64 31.59,-17.47 9.55,-2.27 83.76,-5.33 90.11,6.59 0.63,1.17 1.13,2.43 1.53,3.74 13,-1.63 22.42,-1.27 22.42,-1.27 0,0 8.36,-0.32 20.18,1.02 0.4,-1.23 0.88,-2.39 1.48,-3.49 6.34,-11.92 77.57,-8.86 87.11,-6.59 11.88,2.83 26.37,1.28 31.62,17.47 9,27.96 -24.42,37.92 -48.69,29.89" /><path
         id="path448"
         style="fill:#824c37;fill-opacity:1;fill-rule:nonzero;stroke:none"
         d="m 1956.5251,-3747.8842 c -6.28,-3.58 -13.52,-8.17 -20.15,-12.69 -6.75,-4.57 -13.4,-9.37 -19.89,-14.31 -13.02,-9.91 -25.53,-20.5 -37.41,-31.63 -23.78,-22.28 -45.14,-46.79 -63.25,-73.07 -9.29,-13.52 -27.75,-16.92 -41.27,-7.64 -13.49,9.31 -16.91,27.79 -7.63,41.3 0.64,0.92 1.33,1.79 2.04,2.62 l 0.16,0.18 c 23.94,27.52 50.71,51.95 79.4,73.33 14.37,10.69 29.21,20.61 44.49,29.77 7.66,4.58 15.43,8.95 23.34,13.11 8.06,4.19 15.71,7.98 24.75,11.85 9.21,3.94 19.88,-0.33 23.79,-9.55 3.67,-8.55 0.25,-18.4 -7.68,-22.88 l -0.69,-0.39" /><path
         id="path450"
         style="fill:#d4a77c;fill-opacity:1;fill-rule:nonzero;stroke:none"
         d="m 1983.0651,-3759.2642 c -30.76,0 -92.63,-31.26 -82.04,-175.2 4.82,-65.25 82.04,-64.75 82.04,-64.75 0,0 77.21,-0.5 82.01,64.75 10.58,143.94 -51.29,175.2 -82.01,175.2" /><path
         id="path452"
         style="fill:#824c37;fill-opacity:1;fill-rule:nonzero;stroke:none"
         d="m 2024.9951,-3715.0642 c 9.05,-3.87 16.7,-7.66 24.74,-11.85 7.92,-4.16 15.7,-8.53 23.35,-13.11 15.29,-9.16 30.12,-19.08 44.47,-29.77 28.7,-21.38 55.48,-45.81 79.41,-73.33 l 0.14,-0.15 c 10.78,-12.37 9.44,-31.12 -2.91,-41.89 -12.37,-10.75 -31.12,-9.44 -41.87,2.93 -0.74,0.84 -1.44,1.74 -2.07,2.65 -18.09,26.28 -39.45,50.79 -63.22,73.07 -11.91,11.13 -24.39,21.72 -37.43,31.63 -6.49,4.94 -13.13,9.74 -19.87,14.31 -6.64,4.52 -13.88,9.11 -20.19,12.69 l -0.67,0.39 c -8.68,4.95 -11.73,16.04 -6.77,24.74 4.62,8.09 14.52,11.27 22.89,7.69" /><path
         id="path454"
         style="fill:#824c37;fill-opacity:1;fill-rule:nonzero;stroke:none"
         d="m 1596.6851,-3337.7742 c 27.95,-42.79 94.09,-51.47 147.72,-19.35 53.64,32.09 74.47,92.82 46.53,135.62 -27.94,42.81 -107.42,87.42 -180.04,29.5 -38.94,-31.09 -42.17,-102.96 -14.21,-145.77" /><path
         id="path456"
         style="fill:#d4a77c;fill-opacity:1;fill-rule:nonzero;stroke:none"
         d="m 1632.2351,-3327.8842 c 18.38,-28.13 61.83,-33.83 97.09,-12.73 35.25,21.11 48.96,61.01 30.58,89.16 -18.36,28.11 -64.55,64.15 -118.33,19.37 -25.15,-20.95 -27.72,-67.67 -9.34,-95.8" /><path
         id="path458"
         style="fill:#824c37;fill-opacity:1;fill-rule:nonzero;stroke:none"
         d="m 2359.4351,-3348.7642 c -33.43,-39.01 -100.19,-39.49 -149.11,-1.08 -48.88,38.42 -61.41,101.2 -27.98,140.22 33.46,39.01 118.27,73.54 182.5,7.16 34.47,-35.61 28.04,-107.28 -5.41,-146.3" /><path
         id="path460"
         style="fill:#d4a77c;fill-opacity:1;fill-rule:nonzero;stroke:none"
         d="m 2325.5151,-3334.5942 c -22,-25.64 -65.85,-25.96 -98.01,-0.71 -32.15,25.26 -40.38,66.51 -18.4,92.16 21.98,25.64 72.63,55.71 119.96,4.71 22.13,-23.85 18.41,-70.52 -3.55,-96.16" /><path
         id="path462"
         style="fill:#824c37;fill-opacity:1;fill-rule:nonzero;stroke:none"
         d="m 2347.0551,-3501.7742 c 0,-112.12 -70.31,-266.92 -363.99,-266.92 -293.7,0 -364.02,153.07 -364.02,266.92 0,170.6 162.98,287.69 364.02,287.69 201,0 363.99,-117.09 363.99,-287.69" /><path
         id="path464"
         style="fill:#311813;fill-opacity:1;fill-rule:nonzero;stroke:none"
         d="m 1780.3651,-3492.4642 c 0,-9.03 -7.63,-16.36 -17.08,-16.36 -9.41,0 -17.08,7.33 -17.08,16.36 0,9.03 7.67,16.36 17.08,16.36 9.45,0 17.08,-7.33 17.08,-16.36" /><path
         id="path466"
         style="fill:#ffffff;fill-opacity:1;fill-rule:nonzero;stroke:none"
         d="m 1776.0351,-3485.9442 c 0,-2.93 -2.47,-5.31 -5.55,-5.31 -3.07,0 -5.54,2.38 -5.54,5.31 0,2.93 2.47,5.31 5.54,5.31 3.08,0 5.55,-2.38 5.55,-5.31" /><path
         id="path468"
         style="fill:#311813;fill-opacity:1;fill-rule:nonzero;stroke:none"
         d="m 1780.2651,-3478.9942 c -4.07,3.35 -8.93,4.56 -13.66,4.68 -2.39,-0.01 -4.76,-0.18 -7.15,-0.69 -2.43,-0.42 -4.46,-1.06 -6.64,-2.07 -2.13,-0.96 -4.18,-2.25 -6.44,-3.56 -2.26,-1.27 -4.69,-2.71 -7.56,-3.45 -2.83,-0.8 -5.94,-0.76 -8.64,-0.06 -2.73,0.73 -5.15,1.94 -7.26,3.51 5.21,-1.11 10.34,-1.48 14.4,0.48 4.14,1.85 7.84,5.54 13.05,7.96 2.53,1.2 5.54,2.03 8.26,2.31 2.8,0.25 5.65,0.35 8.44,-0.19 5.58,-0.88 11.1,-4.08 13.2,-8.92" /><path
         id="path470"
         style="fill:#311813;fill-opacity:1;fill-rule:nonzero;stroke:none"
         d="m 1730.6351,-3476.1042 c 3.51,-0.73 6.64,-0.88 9.73,-0.46 3.14,0.41 6.12,1.47 9.53,2.57 -2.06,-2.82 -5.45,-4.72 -9.15,-5.23 -1.81,-0.23 -3.72,-0.14 -5.5,0.38 -1.76,0.51 -3.42,1.38 -4.61,2.74" /><path
         id="path472"
         style="fill:#311813;fill-opacity:1;fill-rule:nonzero;stroke:none"
         d="m 1736.1251,-3472.5842 c 1.75,-0.37 3.39,-0.32 5.02,-0.29 1.63,0.09 3.26,0.19 4.91,0.43 3.28,0.33 6.57,0.97 10.17,1.06 -2.86,-2.13 -6.26,-3.29 -9.83,-3.76 -1.8,-0.18 -3.64,-0.18 -5.43,0.18 -1.77,0.35 -3.65,1.02 -4.84,2.38" /><path
         id="path474"
         style="fill:#311813;fill-opacity:1;fill-rule:nonzero;stroke:none"
         d="m 2185.7151,-3492.4642 c 0,-9.03 7.65,-16.36 17.06,-16.36 9.45,0 17.09,7.33 17.09,16.36 0,9.03 -7.64,16.36 -17.09,16.36 -9.41,0 -17.06,-7.33 -17.06,-16.36" /><path
         id="path476"
         style="fill:#ffffff;fill-opacity:1;fill-rule:nonzero;stroke:none"
         d="m 2190.0551,-3485.9442 c 0,-2.93 2.48,-5.31 5.54,-5.31 3.06,0 5.54,2.38 5.54,5.31 0,2.93 -2.48,5.31 -5.54,5.31 -3.06,0 -5.54,-2.38 -5.54,-5.31" /><path
         id="path478"
         style="fill:#311813;fill-opacity:1;fill-rule:nonzero;stroke:none"
         d="m 2185.8151,-3478.9942 c 2.1,4.84 7.63,8.04 13.2,8.92 2.79,0.54 5.68,0.44 8.44,0.19 2.74,-0.28 5.75,-1.11 8.26,-2.31 5.23,-2.42 8.92,-6.11 13.05,-7.96 4.06,-1.96 9.21,-1.59 14.4,-0.48 -2.11,-1.57 -4.53,-2.78 -7.26,-3.51 -2.7,-0.7 -5.77,-0.74 -8.63,0.06 -2.86,0.74 -5.3,2.18 -7.56,3.45 -2.25,1.31 -4.32,2.6 -6.45,3.56 -2.16,1.01 -4.21,1.65 -6.63,2.07 -2.37,0.51 -4.76,0.68 -7.16,0.69 -4.7,-0.12 -9.61,-1.33 -13.66,-4.68" /><path
         id="path480"
         style="fill:#311813;fill-opacity:1;fill-rule:nonzero;stroke:none"
         d="m 2235.4351,-3476.1042 c -1.17,-1.36 -2.84,-2.23 -4.6,-2.74 -1.78,-0.52 -3.68,-0.61 -5.52,-0.38 -3.69,0.51 -7.07,2.41 -9.14,5.23 3.42,-1.1 6.39,-2.16 9.53,-2.57 3.13,-0.42 6.24,-0.27 9.73,0.46" /><path
         id="path482"
         style="fill:#311813;fill-opacity:1;fill-rule:nonzero;stroke:none"
         d="m 2229.9451,-3472.5842 c -1.18,-1.36 -3.04,-2.03 -4.82,-2.38 -1.82,-0.36 -3.64,-0.36 -5.43,-0.18 -3.58,0.47 -6.96,1.63 -9.85,3.76 3.62,-0.09 6.9,-0.73 10.18,-1.06 1.65,-0.24 3.27,-0.34 4.9,-0.43 1.64,-0.03 3.28,-0.08 5.02,0.29" /><path
         id="path484"
         style="fill:#d4a77c;fill-opacity:1;fill-rule:nonzero;stroke:none"
         d="m 2135.9751,-3576.1742 c -36.8,98.51 -260.89,111.88 -306.17,0 -25.93,-64.03 35.08,-119.32 82.51,-124.54 59.72,-6.58 68.76,18.41 70.56,38.43 1.81,-20.02 15.14,-50.45 73.33,-35.96 57.24,14.24 103.91,57.4 79.77,122.07" /><path
         id="path486"
         style="fill:#311813;fill-opacity:1;fill-rule:nonzero;stroke:none"
         d="m 2041.5251,-3647.4642 c 4.49,0 4.49,-6.66 0,-6.66 -4.48,0 -4.48,6.66 0,6.66" /><path
         id="path488"
         style="fill:#311813;fill-opacity:1;fill-rule:nonzero;stroke:none"
         d="m 2024.5351,-3650.7842 c 4.47,0 4.47,-6.66 0,-6.66 -4.5,0 -4.5,6.66 0,6.66" /><path
         id="path490"
         style="fill:#311813;fill-opacity:1;fill-rule:nonzero;stroke:none"
         d="m 2016.7451,-3662.1942 c 4.49,0 4.49,-6.66 0,-6.66 -4.48,0 -4.48,6.66 0,6.66" /><path
         id="path492"
         style="fill:#311813;fill-opacity:1;fill-rule:nonzero;stroke:none"
         d="m 2036.0051,-3663.8342 c 4.48,0 4.48,-6.65 0,-6.65 -4.47,0 -4.47,6.65 0,6.65" /><path
         id="path494"
         style="fill:#311813;fill-opacity:1;fill-rule:nonzero;stroke:none"
         d="m 2051.6151,-3657.1742 c 4.48,0 4.48,-6.66 0,-6.66 -4.48,0 -4.48,6.66 0,6.66" /><path
         id="path496"
         style="fill:#311813;fill-opacity:1;fill-rule:nonzero;stroke:none"
         d="m 1982.0951,-3638.7242 c 0.56,-7.85 1.98,-15.63 1.92,-23.63 -0.03,-3.98 -0.35,-8.04 -1.45,-12 -1.07,-4.04 -3.05,-7.82 -5.8,-11.02 -5.46,-6.5 -13.17,-10.73 -21.1,-13.42 -7.98,-2.67 -16.4,-3.99 -24.77,-4.09 -16.76,-0.21 -33.53,3.18 -48.51,10.19 -15,6.89 -28.31,17.35 -37.43,30.5 10.32,-12.28 23.81,-21.74 38.62,-27.97 14.91,-6.07 31.09,-9.52 47.22,-8.99 8.03,0.3 16.06,1.36 23.62,3.79 7.52,2.43 14.66,6.32 19.65,12.07 5.1,5.7 7.2,13.27 7.62,21.03 0.51,7.73 -0.05,15.66 0.41,23.54" /><path
         id="path498"
         style="fill:#311813;fill-opacity:1;fill-rule:nonzero;stroke:none"
         d="m 1983.4351,-3638.7242 c 0.46,-7.88 -0.11,-15.81 0.42,-23.54 0.44,-7.76 2.51,-15.33 7.62,-21.03 4.98,-5.75 12.11,-9.64 19.63,-12.07 7.57,-2.43 15.6,-3.49 23.65,-3.79 16.12,-0.53 32.3,2.92 47.18,8.99 14.84,6.23 28.31,15.69 38.66,27.97 -9.14,-13.15 -22.44,-23.61 -37.44,-30.5 -15,-7.01 -31.76,-10.4 -48.52,-10.19 -8.37,0.1 -16.78,1.42 -24.77,4.09 -7.93,2.69 -15.61,6.92 -21.09,13.42 -2.75,3.2 -4.75,6.98 -5.82,11.02 -1.07,3.96 -1.41,8.02 -1.44,12 -0.06,8 1.36,15.78 1.92,23.63" /><path
         id="path500"
         style="fill:#311813;fill-opacity:1;fill-rule:nonzero;stroke:none"
         d="m 1924.3451,-3647.4642 c -4.47,0 -4.47,-6.66 0,-6.66 4.49,0 4.49,6.66 0,6.66" /><path
         id="path502"
         style="fill:#311813;fill-opacity:1;fill-rule:nonzero;stroke:none"
         d="m 1941.3551,-3650.7842 c -4.47,0 -4.47,-6.66 0,-6.66 4.48,0 4.48,6.66 0,6.66" /><path
         id="path504"
         style="fill:#311813;fill-opacity:1;fill-rule:nonzero;stroke:none"
         d="m 1949.1251,-3662.1942 c -4.46,0 -4.46,-6.66 0,-6.66 4.47,0 4.47,6.66 0,6.66" /><path
         id="path506"
         style="fill:#311813;fill-opacity:1;fill-rule:nonzero;stroke:none"
         d="m 1929.8751,-3663.8342 c -4.49,0 -4.49,-6.65 0,-6.65 4.48,0 4.48,6.65 0,6.65" /><path
         id="path508"
         style="fill:#311813;fill-opacity:1;fill-rule:nonzero;stroke:none"
         d="m 1914.2651,-3657.1742 c -4.49,0 -4.49,-6.66 0,-6.66 4.49,0 4.49,6.66 0,6.66" /><path
         id="path510"
         style="fill:#311813;fill-opacity:1;fill-rule:nonzero;stroke:none"
         d="m 2059.0151,-3581.6742 c 0,-26.65 -34.43,-68.6 -76.92,-68.6 -42.49,0 -76.91,41.95 -76.91,68.6 0,26.61 34.42,32.73 76.91,32.73 42.49,0 76.92,-6.12 76.92,-32.73" /><path
         id="path512"
         style="fill:#572e28;fill-opacity:1;fill-rule:nonzero;stroke:none"
         d="m 1924.6151,-3574.3442 c -14.74,-14.65 1.87,-54.92 23.16,-39.78 5.59,3.98 9.01,8.48 12.61,14.2 6.14,9.8 14.16,14.18 25.61,16.54 7.93,1.64 25.07,2.97 24.56,14.29 -0.67,15.99 -66.44,14.15 -85.94,-5.25" /></g></g></svg>
