<?xml version="1.0" encoding="UTF-8" standalone="no"?>
<svg
   viewBox="0 0 130.95389 136.2639"
   height="136.2639"
   width="130.95389"
   xml:space="preserve"
   id="svg2"
   version="1.1"
   sodipodi:docname="beaver.svg"
   inkscape:version="1.1.2 (b8e25be833, 2022-02-05)"
   xmlns:inkscape="http://www.inkscape.org/namespaces/inkscape"
   xmlns:sodipodi="http://sodipodi.sourceforge.net/DTD/sodipodi-0.dtd"
   xmlns="http://www.w3.org/2000/svg"
   xmlns:svg="http://www.w3.org/2000/svg"
   xmlns:rdf="http://www.w3.org/1999/02/22-rdf-syntax-ns#"
   xmlns:cc="http://creativecommons.org/ns#"
   xmlns:dc="http://purl.org/dc/elements/1.1/"><sodipodi:namedview
     id="namedview8358"
     pagecolor="#ffffff"
     bordercolor="#666666"
     borderopacity="1.0"
     inkscape:pageshadow="2"
     inkscape:pageopacity="0.0"
     inkscape:pagecheckerboard="0"
     showgrid="false"
     fit-margin-top="0"
     fit-margin-left="0"
     fit-margin-right="0"
     fit-margin-bottom="0"
     inkscape:zoom="1.2117028"
     inkscape:cx="-528.18231"
     inkscape:cy="181.15003"
     inkscape:window-width="2560"
     inkscape:window-height="1361"
     inkscape:window-x="-9"
     inkscape:window-y="-9"
     inkscape:window-maximized="1"
     inkscape:current-layer="g12" /><metadata
     id="metadata8"><rdf:RDF><cc:Work
         rdf:about=""><dc:format>image/svg+xml</dc:format><dc:type
           rdf:resource="http://purl.org/dc/dcmitype/StillImage" /></cc:Work></rdf:RDF></metadata><defs
     id="defs6"><clipPath
       id="clipPath542"
       clipPathUnits="userSpaceOnUse"><path
         id="path540"
         d="m 5450.34,694.672 c -0.11,0 -0.23,0.008 -0.34,0.047 -3.4,1.043 -6.74,2.871 -9.78,5.191 1.04,0.942 2.07,1.879 3.11,2.82 2.61,-1.902 5.33,-3.718 7.96,-5.789 0.97,-0.773 0.11,-2.269 -0.95,-2.269" /></clipPath></defs><g
     transform="matrix(1.3333333,0,0,-1.3333333,-1025.3179,452.90534)"
     id="g10"><g
       transform="scale(0.1)"
       id="g12"><path
         id="path1216"
         style="fill:#662d23;fill-opacity:1;fill-rule:nonzero;stroke:none"
         d="m 7712.9862,2901.6434 c -78.35,-157.582 58.85,-261.871 168.78,-304.961 167.71,-65.742 443.2,-34.731 443.2,-34.731 l 48.88,98.301 c 0,0 -157.86,232.559 -307.2,308.258 -104.99,53.223 -275.29,90.73 -353.66,-66.867" /><path
         id="path1218"
         style="fill:#54241b;fill-opacity:1;fill-rule:nonzero;stroke:none"
         d="m 7741.5262,2888.6314 c -71.35,-143.469 53.57,-238.41 153.65,-277.629 152.67,-59.84 403.46,-31.621 403.46,-31.621 l 44.46,89.5 c 0,0 -143.66,211.719 -279.62,280.641 -95.59,48.429 -250.64,82.578 -321.95,-60.891" /><path
         id="path1220"
         style="fill:#311b1a;fill-opacity:1;fill-rule:nonzero;stroke:none"
         d="m 7924.3062,2613.3224 c -26.06,51.418 -48.75,104.2 -70.62,157.309 -21.53,53.262 -42.22,106.859 -59.52,161.84 26.07,-51.399 48.77,-104.192 70.61,-157.309 21.52,-53.269 42.2,-106.871 59.53,-161.84" /><path
         id="path1222"
         style="fill:#311b1a;fill-opacity:1;fill-rule:nonzero;stroke:none"
         d="m 7984.1462,2603.1004 c -7.27,14.402 -13.81,29.07 -20.74,43.601 l -19.57,44.051 c -13.04,29.379 -25.2,59.109 -37.37,88.84 -23.87,59.641 -46.91,119.617 -66.56,180.969 28.44,-57.809 53.48,-116.981 77.68,-176.489 11.87,-29.839 23.75,-59.691 34.75,-89.89 l 16.49,-45.301 c 5.09,-15.27 10.56,-30.379 15.32,-45.781" /><path
         id="path1224"
         style="fill:#311b1a;fill-opacity:1;fill-rule:nonzero;stroke:none"
         d="m 7853.0462,2650.0804 c -20.09,36.75 -36.78,74.891 -52.68,113.36 -15.55,38.589 -30.27,77.543 -41.58,117.871 20.11,-36.75 36.8,-74.891 52.67,-113.36 15.52,-38.621 30.25,-77.55 41.59,-117.871" /><path
         id="path1226"
         style="fill:#311b1a;fill-opacity:1;fill-rule:nonzero;stroke:none"
         d="m 7779.7362,2687.5104 c -10.34,20.98 -19.25,42.551 -28.28,64.07 -8.59,21.692 -17.31,43.332 -24.58,65.571 10.36,-20.981 19.25,-42.551 28.27,-64.071 8.6,-21.687 17.3,-43.34 24.59,-65.57" /><path
         id="path1228"
         style="fill:#311b1a;fill-opacity:1;fill-rule:nonzero;stroke:none"
         d="m 8035.1762,2599.0224 c -7.25,14.8 -13.8,29.871 -20.72,44.789 l -19.56,45.25 c -13.03,30.179 -25.17,60.679 -37.31,91.199 -23.86,61.211 -46.86,122.75 -66.46,185.633 28.42,-59.422 53.44,-120.172 77.6,-181.242 11.86,-30.629 23.73,-61.258 34.72,-92.231 l 16.44,-46.469 c 5.09,-15.648 10.55,-31.152 15.29,-46.929" /><path
         id="path1230"
         style="fill:#311b1a;fill-opacity:1;fill-rule:nonzero;stroke:none"
         d="m 8095.5862,2596.3424 c -7.42,14.719 -14.13,29.73 -21.22,44.598 l -20.05,45.062 c -13.36,30.059 -25.85,60.457 -38.33,90.867 -24.54,61 -48.22,122.332 -68.51,185.043 29.08,-59.152 54.76,-119.672 79.61,-180.531 12.2,-30.52 24.4,-61.051 35.73,-91.93 l 16.96,-46.32 c 5.27,-15.602 10.89,-31.051 15.81,-46.789" /><path
         id="path1232"
         style="fill:#311b1a;fill-opacity:1;fill-rule:nonzero;stroke:none"
         d="m 8148.8962,2595.5414 c -6.93,13.762 -13.14,27.789 -19.73,41.68 l -18.56,42.129 c -12.36,28.113 -23.83,56.562 -35.32,85 -22.52,57.082 -44.2,114.5 -62.47,173.261 27.09,-55.269 50.76,-111.878 73.6,-168.82 11.21,-28.57 22.4,-57.129 32.72,-86.039 l 15.46,-43.383 c 4.75,-14.617 9.88,-29.078 14.3,-43.828" /><path
         id="path1234"
         style="fill:#311b1a;fill-opacity:1;fill-rule:nonzero;stroke:none"
         d="m 8205.7762,2593.5724 c -25.71,51.559 -48.06,104.457 -69.58,157.688 -21.18,53.371 -41.52,107.07 -58.46,162.141 25.75,-51.551 48.09,-104.45 69.58,-157.692 21.17,-53.379 41.5,-107.078 58.46,-162.137" /><path
         id="path1236"
         style="fill:#311b1a;fill-opacity:1;fill-rule:nonzero;stroke:none"
         d="m 8261.7862,2590.2724 c -11.12,23.238 -21.42,46.82 -31.61,70.429 -10.19,23.621 -19.71,47.5 -29.61,71.231 -9.29,23.98 -18.91,47.82 -27.91,71.918 -8.99,24.101 -17.86,48.242 -25.9,72.722 11.12,-23.242 21.42,-46.812 31.61,-70.429 10.17,-23.621 19.72,-47.492 29.61,-71.231 9.27,-23.98 18.91,-47.82 27.89,-71.922 8.99,-24.097 17.86,-48.25 25.92,-72.718" /><path
         id="path1238"
         style="fill:#311b1a;fill-opacity:1;fill-rule:nonzero;stroke:none"
         d="m 8308.8862,2610.9634 c -6.32,13.918 -12.46,27.93 -18.33,42.027 l -17.35,42.422 -16.48,42.758 c -5.39,14.301 -10.54,28.691 -15.49,43.172 6.33,-13.93 12.45,-27.93 18.34,-42.031 l 17.33,-42.43 16.49,-42.762 c 5.39,-14.297 10.53,-28.687 15.49,-43.156" /><path
         id="path1240"
         style="fill:#311b1a;fill-opacity:1;fill-rule:nonzero;stroke:none"
         d="m 8074.2462,2914.9714 c -13.81,-5.649 -27.84,-10.559 -41.74,-15.86 l -42.11,-14.66 c -28.08,-9.761 -56.43,-18.621 -84.78,-27.48 -56.84,-17.258 -113.95,-33.649 -172.13,-46.539 55.4,21.949 111.87,40.41 168.62,58 28.45,8.558 56.88,17.129 85.6,24.789 l 43.08,11.48 c 14.49,3.399 28.87,7.2 43.46,10.27" /><path
         id="path1242"
         style="fill:#311b1a;fill-opacity:1;fill-rule:nonzero;stroke:none"
         d="m 8120.2662,2876.9514 c -15.46,-6.211 -31.15,-11.699 -46.73,-17.57 l -47.09,-16.371 c -31.4,-10.899 -63.08,-20.899 -94.76,-30.891 -63.5,-19.539 -127.27,-38.218 -192.13,-53.398 62.05,24.23 125.18,44.969 188.58,64.828 31.77,9.711 63.55,19.422 95.6,28.23 l 48.08,13.184 c 16.16,3.977 32.19,8.359 48.45,11.988" /><path
         id="path1244"
         style="fill:#311b1a;fill-opacity:1;fill-rule:nonzero;stroke:none"
         d="m 7999.5362,2944.7404 c -39.77,-17.121 -80.59,-30.789 -121.68,-43.597 -41.19,-12.461 -82.66,-24.051 -125.19,-32.153 39.76,17.161 80.58,30.809 121.67,43.61 41.22,12.441 82.67,24.019 125.2,32.14" /><path
         id="path1246"
         style="fill:#311b1a;fill-opacity:1;fill-rule:nonzero;stroke:none"
         d="m 7922.9962,2975.6194 c -22.59,-8.648 -45.64,-15.84 -68.64,-23.136 -23.14,-6.872 -46.25,-13.852 -69.81,-19.34 22.59,8.679 45.63,15.847 68.64,23.148 23.15,6.852 46.25,13.828 69.81,19.328" /><path
         id="path1248"
         style="fill:#311b1a;fill-opacity:1;fill-rule:nonzero;stroke:none"
         d="m 8155.8262,2841.5724 c -15.76,-6.461 -31.77,-12.203 -47.65,-18.312 l -48.03,-17.129 c -32.02,-11.391 -64.32,-21.891 -96.64,-32.398 -64.76,-20.551 -129.8,-40.243 -195.96,-56.434 63.27,25.23 127.65,46.973 192.31,67.844 32.4,10.207 64.81,20.429 97.5,29.726 l 49.04,13.953 c 16.48,4.239 32.84,8.848 49.43,12.75" /><path
         id="path1250"
         style="fill:#311b1a;fill-opacity:1;fill-rule:nonzero;stroke:none"
         d="m 8196.0562,2798.4014 c -15.84,-6.309 -31.91,-11.891 -47.86,-17.848 l -48.23,-16.641 c -32.15,-11.101 -64.59,-21.269 -97.03,-31.461 -65.01,-19.91 -130.29,-38.961 -196.65,-54.5 63.56,24.61 128.21,45.711 193.11,65.95 32.53,9.89 65.06,19.781 97.86,28.769 l 49.21,13.461 c 16.55,4.07 32.95,8.539 49.59,12.27" /><path
         id="path1252"
         style="fill:#311b1a;fill-opacity:1;fill-rule:nonzero;stroke:none"
         d="m 8230.2962,2759.3114 c -14.73,-6.071 -29.68,-11.399 -44.51,-17.11 l -44.88,-15.91 c -29.93,-10.601 -60.14,-20.301 -90.35,-29.98 -60.58,-18.942 -121.42,-37.008 -183.36,-51.578 59.09,23.609 119.28,43.738 179.74,62.988 30.31,9.41 60.62,18.808 91.2,27.32 l 45.89,12.731 c 15.43,3.828 30.73,8.05 46.27,11.539" /><path
         id="path1254"
         style="fill:#311b1a;fill-opacity:1;fill-rule:nonzero;stroke:none"
         d="m 8267.7662,2718.2724 c -13.76,-5.719 -27.75,-10.719 -41.63,-16.102 l -42,-14.91 c -28.01,-9.918 -56.3,-18.938 -84.59,-27.957 -56.72,-17.594 -113.71,-34.32 -171.8,-47.543 55.26,22.269 111.6,41.051 168.23,58.973 28.37,8.726 56.75,17.457 85.42,25.277 l 42.99,11.73 c 14.47,3.5 28.81,7.379 43.38,10.532" /><path
         id="path1256"
         style="fill:#311b1a;fill-opacity:1;fill-rule:nonzero;stroke:none"
         d="m 8305.7562,2678.7404 c -24.89,-9.488 -50.05,-18.16 -75.24,-26.687 -25.19,-8.551 -50.59,-16.422 -75.87,-24.652 -25.48,-7.629 -50.85,-15.579 -76.43,-22.891 -25.57,-7.309 -51.19,-14.5 -77.07,-20.84 24.89,9.512 50.05,18.16 75.24,26.699 25.19,8.543 50.59,16.434 75.87,24.653 25.49,7.597 50.85,15.57 76.44,22.871 25.57,7.308 51.19,14.5 77.06,20.847" /><path
         id="path1258"
         style="fill:#311b1a;fill-opacity:1;fill-rule:nonzero;stroke:none"
         d="m 8318.7162,2630.6824 c -14.84,-5.461 -29.75,-10.731 -44.74,-15.75 l -45.06,-14.742 -45.33,-13.84 c -15.14,-4.52 -30.38,-8.77 -45.66,-12.84 14.84,5.473 29.74,10.75 44.73,15.769 l 45.06,14.723 45.34,13.848 c 15.15,4.511 30.38,8.769 45.66,12.832" /><path
         id="path1260"
         style="fill:#915e40;fill-opacity:1;fill-rule:nonzero;stroke:none"
         d="m 8510.6562,2683.3224 c -10.64,186.938 -127.7,287.668 -127.7,287.668 h -42.53 -42.58 c 0,0 -117.06,-100.73 -127.68,-287.668 -10.66,-186.953 22.6,-308.82 93.53,-308.511 90.35,0.39 23.98,58.289 15,93.269 -15.96,62.211 61.73,63.571 61.73,63.571 0,0 77.66,-1.36 61.72,-63.571 -9,-34.98 -75.34,-92.879 14.95,-93.269 70.96,-0.309 104.22,121.558 93.56,308.511" /><path
         id="path1262"
         style="fill:#f3bf87;fill-opacity:1;fill-rule:nonzero;stroke:none"
         d="m 8453.4862,2678.3034 c -1.89,129.656 -74.69,292.687 -74.69,292.687 h -38.37 -38.39 c 0,0 -72.79,-163.031 -74.73,-292.687 -1.42,-97.274 20.85,-141.844 77.01,-154.781 17.22,7.781 36.11,8.129 36.11,8.129 0,0 18.83,-0.348 36.07,-8.129 56.15,12.937 78.43,57.507 76.99,154.781" /><path
         id="path1264"
         style="fill:#a86d4b;fill-opacity:1;fill-rule:nonzero;stroke:none"
         d="m 8382.9562,2970.9904 h -15.04 c 22.3,-41.879 87.9,-158.269 24.3,-235.66 0,0 -44.09,-44.57 0,-82.73 44.08,-38.168 97.35,33.422 95.8,113.883 -1.55,80.468 -57.31,192.359 -105.06,204.507" /><path
         id="path1266"
         style="fill:#a86d4b;fill-opacity:1;fill-rule:nonzero;stroke:none"
         d="m 8297.8462,2970.9904 h 15.04 c -22.28,-41.879 -87.88,-158.269 -24.28,-235.66 0,0 44.07,-44.57 0,-82.73 -44.08,-38.168 -97.37,33.422 -95.84,113.883 1.55,80.468 57.34,192.359 105.08,204.507" /><path
         id="path1268"
         style="fill:#845539;fill-opacity:1;fill-rule:nonzero;stroke:none"
         d="m 8444.5962,2845.4834 c 2.2,-2.883 2.61,-6.024 3.5,-9.411 l 1.14,0.161 c 0.21,3.73 -1.19,7.257 -3.47,10.16 l -1.17,-0.91" /><path
         id="path1270"
         style="fill:#845539;fill-opacity:1;fill-rule:nonzero;stroke:none"
         d="m 8458.6362,2819.1514 c 0.33,-6.129 0.16,-12.219 0.21,-18.348 l 1.25,-0.172 c 1.75,6.051 0.9,12.34 0.34,18.52 -0.11,1.128 -1.86,1.16 -1.8,0" /><path
         id="path1272"
         style="fill:#845539;fill-opacity:1;fill-rule:nonzero;stroke:none"
         d="m 8475.4462,2802.7334 c 0.3,-4.723 -0.21,-9.153 -0.62,-13.832 l 1.35,-0.372 c 2.49,4.34 1.99,9.372 1.63,14.204 -0.11,1.507 -2.46,1.527 -2.36,0" /><path
         id="path1274"
         style="fill:#845539;fill-opacity:1;fill-rule:nonzero;stroke:none"
         d="m 8445.6862,2818.7524 c 0.61,-4.621 -0.06,-9.5 1.16,-14 0.31,-1.121 1.74,-0.941 2.11,0 1.8,4.559 0.39,9.77 -0.83,14.328 -0.36,1.313 -2.62,1.082 -2.44,-0.328" /><path
         id="path1276"
         style="fill:#845539;fill-opacity:1;fill-rule:nonzero;stroke:none"
         d="m 8458.0362,2793.5724 c 0.05,-4.101 -0.94,-8.48 -0.45,-12.492 0.14,-1.187 1.59,-1.73 2.31,-0.621 2.5,3.863 1.21,9.141 0.63,13.453 -0.2,1.438 -2.51,1.059 -2.49,-0.34" /><path
         id="path1278"
         style="fill:#845539;fill-opacity:1;fill-rule:nonzero;stroke:none"
         d="m 8456.0962,2773.4714 c 0.16,-5.469 -1.79,-10.512 -2.01,-15.891 l 1.42,-0.199 c 1.91,4.988 2.82,10.738 2.6,16.09 -0.04,1.289 -2.05,1.289 -2.01,0" /><path
         id="path1280"
         style="fill:#845539;fill-opacity:1;fill-rule:nonzero;stroke:none"
         d="m 8470.0662,2779.2404 c -0.31,-6.359 -2.51,-12.289 -3,-18.539 l 1.4,-0.379 c 2.75,5.661 3.49,12.75 2.69,18.918 h -1.09" /><path
         id="path1282"
         style="fill:#845539;fill-opacity:1;fill-rule:nonzero;stroke:none"
         d="m 8475.4062,2755.7404 c -1.14,-4.777 -3.23,-9.347 -4.17,-14.16 l 1.26,-0.539 c 2.41,4.32 3.72,9.379 4.86,14.149 0.3,1.269 -1.65,1.812 -1.95,0.55" /><path
         id="path1284"
         style="fill:#845539;fill-opacity:1;fill-rule:nonzero;stroke:none"
         d="m 8460.2462,2749.3114 c 0.21,-4.43 -0.3,-8.77 -0.64,-13.18 l 0.96,-0.262 c 1.86,4.332 1.95,8.75 1.69,13.442 -0.06,1.289 -2.08,1.289 -2.01,0" /><path
         id="path1286"
         style="fill:#845539;fill-opacity:1;fill-rule:nonzero;stroke:none"
         d="m 8464.1962,2720.7334 c -0.54,-4.043 -1.94,-7.903 -2.22,-11.973 l 1.46,-0.391 c 1.89,3.852 2.55,8.114 3,12.364 0.16,1.457 -2.06,1.41 -2.24,0" /><path
         id="path1288"
         style="fill:#845539;fill-opacity:1;fill-rule:nonzero;stroke:none"
         d="m 8424.7462,2695.6314 c -1.47,-3.91 -3.47,-7.559 -5.11,-11.398 l 0.86,-0.672 c 3.33,3.261 4.72,7.199 5.64,11.679 0.2,0.93 -1.06,1.25 -1.39,0.391" /><path
         id="path1290"
         style="fill:#845539;fill-opacity:1;fill-rule:nonzero;stroke:none"
         d="m 8409.5662,2671.6824 c -1.46,-3.93 -3.47,-7.59 -5.13,-11.43 l 0.86,-0.66 c 3.35,3.25 4.76,7.199 5.66,11.699 0.18,0.922 -1.07,1.25 -1.39,0.391" /><path
         id="path1292"
         style="fill:#845539;fill-opacity:1;fill-rule:nonzero;stroke:none"
         d="m 8433.3762,2661.7724 c -3.32,-3.86 -7.87,-5.68 -11.56,-9 l 0.67,-1.153 c 4.79,1.422 9.21,4.84 12.35,8.684 0.84,1.019 -0.58,2.488 -1.46,1.469" /><path
         id="path1294"
         style="fill:#845539;fill-opacity:1;fill-rule:nonzero;stroke:none"
         d="m 8457.6262,2700.6194 c 0.05,-4.437 -1.79,-8.277 -2.18,-12.597 l 1.07,-0.301 c 1.98,4 3.03,8.449 2.94,12.898 -0.02,1.203 -1.85,1.203 -1.83,0" /><path
         id="path1296"
         style="fill:#845539;fill-opacity:1;fill-rule:nonzero;stroke:none"
         d="m 8453.9162,2729.9014 c 0.13,-4.391 -1.05,-8.301 -1.61,-12.579 -0.12,-1.011 1.25,-1.109 1.72,-0.472 2.71,3.703 2.58,8.679 2.26,13.051 -0.11,1.511 -2.41,1.539 -2.37,0" /><path
         id="path1298"
         style="fill:#845539;fill-opacity:1;fill-rule:nonzero;stroke:none"
         d="m 8443.3162,2752.7794 c -1.17,-2.898 -2.36,-5.808 -3,-8.867 l 1.26,-0.543 c 1.82,2.68 2.78,5.813 4.02,8.793 0.59,1.387 -1.71,2.02 -2.28,0.617" /><path
         id="path1300"
         style="fill:#845539;fill-opacity:1;fill-rule:nonzero;stroke:none"
         d="m 8444.2862,2729.4594 c -0.31,-3.617 -0.97,-7.039 -2.11,-10.488 -1.02,-3.059 -3.17,-5.539 -3.85,-8.692 l 1.22,-0.949 c 6.11,3.461 6.65,13.91 6.71,20.129 0,1.281 -1.86,1.242 -1.97,0" /><path
         id="path1302"
         style="fill:#845539;fill-opacity:1;fill-rule:nonzero;stroke:none"
         d="m 8425.2362,2674.0104 c -2.4,-5.68 -7.01,-8.66 -10.88,-13.129 l 0.99,-1.27 c 5.3,2.649 9.52,8.211 11.58,13.692 0.37,0.976 -1.28,1.668 -1.69,0.707" /><path
         id="path1304"
         style="fill:#845539;fill-opacity:1;fill-rule:nonzero;stroke:none"
         d="m 8443.0662,2682.2724 c -1.33,-4.243 -3.62,-8.012 -5,-12.211 l 1.29,-0.758 c 3.58,3.039 4.71,7.988 5.81,12.387 0.36,1.382 -1.68,1.921 -2.1,0.582" /><path
         id="path1306"
         style="fill:#845539;fill-opacity:1;fill-rule:nonzero;stroke:none"
         d="m 8445.3262,2783.4634 c 0.18,-4.473 -0.78,-8.781 -0.73,-13.211 l 1.39,-0.383 c 2.16,4.102 1.89,9.071 1.59,13.594 -0.1,1.43 -2.31,1.449 -2.25,0" /><path
         id="path1308"
         style="fill:#845539;fill-opacity:1;fill-rule:nonzero;stroke:none"
         d="m 8436.6662,2693.7014 c -1.33,-3.679 -3.87,-7.14 -4.2,-11.058 -0.11,-1.282 1.46,-1.594 2.27,-0.942 3.33,2.668 4.47,7.551 4.31,11.68 -0.06,1.398 -1.92,1.602 -2.38,0.32" /><path
         id="path1310"
         style="fill:#845539;fill-opacity:1;fill-rule:nonzero;stroke:none"
         d="m 8439.1662,2876.9714 c 2.24,-4.91 2.3,-10.301 4.3,-15.231 l 1.41,0.192 c -0.15,5.418 -1.67,11.16 -3.97,16.058 -0.55,1.18 -2.28,0.153 -1.74,-1.019" /><path
         id="path1312"
         style="fill:#845539;fill-opacity:1;fill-rule:nonzero;stroke:none"
         d="m 8455.6662,2868.3694 c 2.27,-4.906 2.32,-10.297 4.3,-15.226 l 1.42,0.199 c -0.15,5.418 -1.66,11.148 -3.98,16.039 -0.56,1.191 -2.28,0.16 -1.74,-1.012" /><path
         id="path1314"
         style="fill:#845539;fill-opacity:1;fill-rule:nonzero;stroke:none"
         d="m 8394.1362,2961.5804 c 2.24,-4.898 2.29,-10.289 4.29,-15.211 l 1.41,0.192 c -0.15,5.41 -1.68,11.14 -3.96,16.039 -0.55,1.179 -2.28,0.152 -1.74,-1.02" /><path
         id="path1316"
         style="fill:#845539;fill-opacity:1;fill-rule:nonzero;stroke:none"
         d="m 8470.8062,2828.4834 c 0.13,-4.204 -0.28,-8.372 -0.29,-12.571 l 1.07,-0.152 c 1.8,4.281 1.49,8.441 0.64,12.91 l -1.42,-0.187" /><path
         id="path1318"
         style="fill:#845539;fill-opacity:1;fill-rule:nonzero;stroke:none"
         d="m 8410.4362,2948.1824 c 1.77,-4 1.58,-8.219 2.87,-12.289 l 1.13,0.148 c 0.3,4.469 -0.58,9.012 -2.4,13.078 -0.49,1.082 -2.07,0.141 -1.6,-0.937" /><path
         id="path1320"
         style="fill:#845539;fill-opacity:1;fill-rule:nonzero;stroke:none"
         d="m 8419.8262,2928.7334 c 2.54,-3.211 4.67,-6.571 6.25,-10.364 1.07,-2.578 1.26,-5.328 2.71,-7.75 l 1.53,0.203 c 2.08,6.758 -4.86,14.707 -9.1,19.297 -0.88,0.942 -2.15,-0.418 -1.39,-1.386" /><path
         id="path1322"
         style="fill:#845539;fill-opacity:1;fill-rule:nonzero;stroke:none"
         d="m 8434.5162,2903.5924 c 2.35,-3.922 1.56,-8.039 3.22,-12.051 0.35,-0.851 1.72,-1.359 2.22,-0.289 2.18,4.617 0.33,10.117 -2.45,14.098 -1.26,1.801 -4.16,0.203 -2.99,-1.758" /><path
         id="path1324"
         style="fill:#845539;fill-opacity:1;fill-rule:nonzero;stroke:none"
         d="m 8460.4962,2842.0614 c 0.22,-5.789 -2.1,-10.239 -2.96,-15.711 -0.2,-1.219 1.12,-2.168 2.12,-1.239 4.29,4.051 4.37,11.489 3.77,16.95 -0.2,1.851 -3.01,1.929 -2.93,0" /><path
         id="path1326"
         style="fill:#845539;fill-opacity:1;fill-rule:nonzero;stroke:none"
         d="m 8447.4962,2898.1704 c 0.22,-3.898 -0.66,-8.008 0.44,-11.758 0.3,-1.043 1.9,-1.402 2.42,-0.32 2,4.141 1.25,8.621 -0.61,12.699 -0.49,1.09 -2.32,0.539 -2.25,-0.621" /><path
         id="path1328"
         style="fill:#845539;fill-opacity:1;fill-rule:nonzero;stroke:none"
         d="m 8232.5662,2846.2404 c -2.21,-2.847 -3.56,-6.39 -3.35,-10.007 l 1.13,-0.161 c 0.91,3.379 1.34,6.528 3.51,9.411 l -1.29,0.757" /><path
         id="path1330"
         style="fill:#845539;fill-opacity:1;fill-rule:nonzero;stroke:none"
         d="m 8218.0162,2819.1514 c -0.55,-6.168 -1.39,-12.469 0.33,-18.52 l 1.25,0.172 c 0.09,6.129 -0.11,12.219 0.21,18.348 0.06,1.16 -1.69,1.128 -1.79,0" /><path
         id="path1332"
         style="fill:#845539;fill-opacity:1;fill-rule:nonzero;stroke:none"
         d="m 8200.6462,2802.7334 c -0.35,-4.84 -0.88,-9.852 1.6,-14.204 l 1.35,0.372 c -0.4,4.671 -0.88,9.121 -0.58,13.832 0.09,1.527 -2.26,1.507 -2.37,0" /><path
         id="path1334"
         style="fill:#845539;fill-opacity:1;fill-rule:nonzero;stroke:none"
         d="m 8230.3362,2819.0804 c -1.25,-4.551 -2.66,-9.769 -0.83,-14.328 0.38,-0.941 1.81,-1.133 2.11,0 1.17,4.41 0.49,9.16 1.1,13.668 0.22,1.531 -1.95,2.242 -2.38,0.66" /><path
         id="path1336"
         style="fill:#845539;fill-opacity:1;fill-rule:nonzero;stroke:none"
         d="m 8217.8562,2793.5724 c -0.55,-4.211 -1.76,-9.332 0.67,-13.113 0.73,-1.117 2.16,-0.558 2.32,0.621 0.51,4 -0.48,8.41 -0.45,12.492 0.01,1.68 -2.33,1.579 -2.54,0" /><path
         id="path1338"
         style="fill:#845539;fill-opacity:1;fill-rule:nonzero;stroke:none"
         d="m 8220.3062,2773.4714 c -0.2,-5.352 0.72,-11.09 2.62,-16.09 l 1.41,0.199 c -0.19,5.379 -2.16,10.43 -2.02,15.891 0.04,1.289 -1.96,1.289 -2.01,0" /><path
         id="path1340"
         style="fill:#845539;fill-opacity:1;fill-rule:nonzero;stroke:none"
         d="m 8207.2662,2779.2404 c -0.78,-6.168 -0.01,-13.257 2.71,-18.918 l 1.4,0.379 c -0.45,6.25 -2.69,12.192 -3.01,18.539 h -1.1" /><path
         id="path1342"
         style="fill:#845539;fill-opacity:1;fill-rule:nonzero;stroke:none"
         d="m 8201.0862,2755.1904 c 1.17,-4.77 2.47,-9.821 4.89,-14.149 l 1.26,0.539 c -0.93,4.813 -3.03,9.383 -4.19,14.16 -0.32,1.262 -2.26,0.719 -1.96,-0.55" /><path
         id="path1344"
         style="fill:#845539;fill-opacity:1;fill-rule:nonzero;stroke:none"
         d="m 8216.1962,2749.3114 c -0.25,-4.692 -0.16,-9.102 1.68,-13.442 l 0.97,0.262 c -0.33,4.41 -0.84,8.75 -0.64,13.18 0.07,1.289 -1.95,1.289 -2.01,0" /><path
         id="path1346"
         style="fill:#845539;fill-opacity:1;fill-rule:nonzero;stroke:none"
         d="m 8211.9862,2720.7334 c 0.47,-4.25 1.11,-8.52 3.04,-12.364 l 1.45,0.391 c -0.32,4.16 -1.72,8.133 -2.28,12.269 -0.17,1.25 -2.36,0.961 -2.21,-0.296" /><path
         id="path1348"
         style="fill:#845539;fill-opacity:1;fill-rule:nonzero;stroke:none"
         d="m 8252.3062,2695.2404 c 0.92,-4.48 2.32,-8.418 5.65,-11.679 l 0.86,0.672 c -1.64,3.839 -3.65,7.488 -5.12,11.398 -0.32,0.859 -1.58,0.539 -1.39,-0.391" /><path
         id="path1350"
         style="fill:#845539;fill-opacity:1;fill-rule:nonzero;stroke:none"
         d="m 8267.4962,2671.2914 c 0.93,-4.488 2.31,-8.441 5.62,-11.699 l 0.87,0.66 c -1.64,3.848 -3.62,7.52 -5.1,11.43 -0.33,0.859 -1.59,0.539 -1.39,-0.391" /><path
         id="path1352"
         style="fill:#845539;fill-opacity:1;fill-rule:nonzero;stroke:none"
         d="m 8243.6262,2660.3034 c 3.14,-3.832 7.53,-7.25 12.31,-8.684 l 0.67,1.153 c -3.67,3.328 -8.2,5.16 -11.51,9 -0.88,1.019 -2.31,-0.45 -1.47,-1.469" /><path
         id="path1354"
         style="fill:#845539;fill-opacity:1;fill-rule:nonzero;stroke:none"
         d="m 8218.9662,2700.6194 c -0.07,-4.449 0.96,-8.918 2.96,-12.898 l 1.08,0.301 c -0.41,4.32 -2.24,8.16 -2.18,12.597 0.01,1.203 -1.84,1.203 -1.86,0" /><path
         id="path1356"
         style="fill:#845539;fill-opacity:1;fill-rule:nonzero;stroke:none"
         d="m 8222.1962,2729.9014 c -0.35,-4.372 -0.48,-9.348 2.22,-13.051 0.47,-0.629 1.86,-0.539 1.72,0.472 -0.57,4.278 -1.72,8.188 -1.58,12.579 0.05,1.539 -2.25,1.511 -2.36,0" /><path
         id="path1358"
         style="fill:#845539;fill-opacity:1;fill-rule:nonzero;stroke:none"
         d="m 8232.8562,2752.1624 c 1.25,-2.98 2.21,-6.113 4.04,-8.793 l 1.26,0.543 c -0.64,3.059 -1.83,5.969 -3.01,8.867 -0.58,1.403 -2.88,0.77 -2.29,-0.617" /><path
         id="path1360"
         style="fill:#845539;fill-opacity:1;fill-rule:nonzero;stroke:none"
         d="m 8232.2162,2729.4594 c 0.05,-6.219 0.58,-16.668 6.69,-20.129 l 1.24,0.949 c -0.69,3.114 -2.71,5.711 -3.85,8.692 -1.29,3.328 -1.82,6.969 -2.13,10.488 -0.11,1.242 -1.97,1.281 -1.95,0" /><path
         id="path1362"
         style="fill:#845539;fill-opacity:1;fill-rule:nonzero;stroke:none"
         d="m 8251.5162,2673.3034 c 2.08,-5.481 6.28,-11.051 11.6,-13.692 l 0.99,1.27 c -3.88,4.469 -8.48,7.461 -10.9,13.129 -0.41,0.961 -2.06,0.269 -1.69,-0.707" /><path
         id="path1364"
         style="fill:#845539;fill-opacity:1;fill-rule:nonzero;stroke:none"
         d="m 8233.2662,2681.6904 c 1.1,-4.399 2.23,-9.34 5.8,-12.387 l 1.3,0.758 c -1.39,4.191 -3.66,7.968 -4.99,12.211 -0.42,1.347 -2.46,0.8 -2.11,-0.582" /><path
         id="path1366"
         style="fill:#845539;fill-opacity:1;fill-rule:nonzero;stroke:none"
         d="m 8230.8762,2783.4634 c -0.31,-4.523 -0.57,-9.492 1.59,-13.594 l 1.4,0.383 c 0.04,4.43 -0.92,8.738 -0.75,13.211 0.06,1.449 -2.14,1.43 -2.24,0" /><path
         id="path1368"
         style="fill:#845539;fill-opacity:1;fill-rule:nonzero;stroke:none"
         d="m 8239.3962,2693.3814 c -0.15,-4.141 0.94,-8.988 4.29,-11.68 0.8,-0.652 2.36,-0.34 2.27,0.942 -0.31,3.918 -2.86,7.379 -4.17,11.058 -0.46,1.282 -2.33,1.078 -2.39,-0.32" /><path
         id="path1370"
         style="fill:#845539;fill-opacity:1;fill-rule:nonzero;stroke:none"
         d="m 8237.5562,2877.9904 c -2.31,-4.898 -3.82,-10.64 -3.97,-16.058 l 1.42,-0.192 c 1.98,4.93 2.03,10.321 4.29,15.231 0.53,1.172 -1.19,2.199 -1.74,1.019" /><path
         id="path1372"
         style="fill:#845539;fill-opacity:1;fill-rule:nonzero;stroke:none"
         d="m 8221.0262,2869.3814 c -2.31,-4.879 -3.81,-10.621 -3.96,-16.039 l 1.42,-0.199 c 1.97,4.929 2.03,10.32 4.28,15.226 0.54,1.172 -1.18,2.203 -1.74,1.012" /><path
         id="path1374"
         style="fill:#845539;fill-opacity:1;fill-rule:nonzero;stroke:none"
         d="m 8282.5962,2962.6004 c -2.33,-4.891 -3.83,-10.629 -4,-16.039 l 1.42,-0.192 c 2,4.922 2.04,10.313 4.31,15.211 0.55,1.172 -1.18,2.199 -1.73,1.02" /><path
         id="path1376"
         style="fill:#845539;fill-opacity:1;fill-rule:nonzero;stroke:none"
         d="m 8206.2662,2828.6704 c -0.92,-4.539 -1.17,-8.719 0.65,-13.039 l 1.02,0.281 c -0.02,4.199 -0.42,8.367 -0.26,12.571 l -1.41,0.187" /><path
         id="path1378"
         style="fill:#845539;fill-opacity:1;fill-rule:nonzero;stroke:none"
         d="m 8266.4262,2949.1194 c -1.82,-4.066 -2.69,-8.609 -2.41,-13.078 l 1.13,-0.148 c 1.3,4.07 1.11,8.289 2.87,12.289 0.47,1.078 -1.11,2.019 -1.59,0.937" /><path
         id="path1380"
         style="fill:#845539;fill-opacity:1;fill-rule:nonzero;stroke:none"
         d="m 8257.2362,2930.1194 c -4.23,-4.59 -11.16,-12.539 -9.09,-19.297 l 1.54,-0.203 c 1.42,2.391 1.78,5.141 2.7,7.75 1.34,3.782 3.78,7.242 6.24,10.364 0.76,0.968 -0.51,2.328 -1.39,1.386" /><path
         id="path1382"
         style="fill:#845539;fill-opacity:1;fill-rule:nonzero;stroke:none"
         d="m 8240.9162,2905.3504 c -2.77,-3.981 -4.62,-9.489 -2.42,-14.098 0.51,-1.062 1.86,-0.57 2.21,0.289 1.65,4.012 0.85,8.129 3.19,12.051 1.17,1.961 -1.72,3.559 -2.98,1.758" /><path
         id="path1384"
         style="fill:#845539;fill-opacity:1;fill-rule:nonzero;stroke:none"
         d="m 8215.0062,2842.0614 c -0.59,-5.461 -0.48,-12.899 3.8,-16.95 0.98,-0.941 2.31,0.032 2.12,1.239 -0.85,5.5 -3.2,9.871 -2.99,15.711 0.08,1.922 -2.75,1.851 -2.93,0" /><path
         id="path1386"
         style="fill:#845539;fill-opacity:1;fill-rule:nonzero;stroke:none"
         d="m 8229.1762,2890.6004 c -1.88,-4.047 -2.61,-8.528 -0.6,-12.668 0.52,-1.082 2.12,-0.711 2.42,0.32 1.1,3.758 0.2,7.84 0.43,11.75 0.08,1.168 -1.74,1.707 -2.25,0.598" /><path
         id="path1388"
         style="fill:#ba9166;fill-opacity:1;fill-rule:nonzero;stroke:none"
         d="m 8311.7462,2950.8304 c -4.02,-4.609 -6.62,-11.66 -7.31,-17.711 -0.12,-1.027 1.43,-1.636 2.08,-0.859 3.83,4.59 6.31,11.312 7.92,17 0.43,1.5 -1.61,2.82 -2.69,1.57" /><path
         id="path1390"
         style="fill:#ba9166;fill-opacity:1;fill-rule:nonzero;stroke:none"
         d="m 8321.3562,2946.5104 c -3.11,-6.527 -7.05,-14.258 -6.54,-21.668 0.1,-1.441 1.82,-1.871 2.64,-0.711 4.18,5.91 5.03,14.172 7.33,20.941 0.69,2 -2.52,3.368 -3.43,1.438" /><path
         id="path1392"
         style="fill:#ba9166;fill-opacity:1;fill-rule:nonzero;stroke:none"
         d="m 8320.4762,2913.7914 c -0.04,-7.621 -4.07,-15.57 -2.5,-23.031 0.25,-1.219 1.98,-1.641 2.81,-0.738 5.35,5.789 5.32,16.347 4.69,23.769 -0.27,3.168 -4.99,3.27 -5,0" /><path
         id="path1394"
         style="fill:#ba9166;fill-opacity:1;fill-rule:nonzero;stroke:none"
         d="m 8307.7462,2912.1114 c -2.08,-5.261 -3.92,-10.589 -3.9,-16.289 0.01,-1.082 1.48,-1.863 2.25,-0.941 3.85,4.629 4.39,10.398 6.16,15.98 0.94,2.942 -3.42,3.981 -4.51,1.25" /><path
         id="path1396"
         style="fill:#ba9166;fill-opacity:1;fill-rule:nonzero;stroke:none"
         d="m 8296.3562,2920.2334 c -0.48,-5.883 -4.91,-10.321 -5.45,-16.133 -0.16,-1.617 1.95,-2.168 2.99,-1.231 4.59,4.184 7.35,11.231 7.59,17.364 0.14,3.339 -4.88,3.257 -5.13,0" /><path
         id="path1398"
         style="fill:#ba9166;fill-opacity:1;fill-rule:nonzero;stroke:none"
         d="m 8289.1062,2877.5414 c -1.62,-7.308 -3.83,-14.359 -4.71,-21.801 -0.12,-1.089 1.47,-1.371 1.97,-0.531 3.93,6.551 5.43,13.742 7,21.16 0.58,2.774 -3.64,3.953 -4.26,1.172" /><path
         id="path1400"
         style="fill:#ba9166;fill-opacity:1;fill-rule:nonzero;stroke:none"
         d="m 8305.8662,2869.5724 c -2.15,-6.25 -5.3,-12.652 -5.26,-19.363 0.02,-1.226 1.59,-1.558 2.22,-0.59 3.7,5.563 4.82,12.621 6.48,19.012 0.57,2.238 -2.7,3.102 -3.44,0.941" /><path
         id="path1402"
         style="fill:#ba9166;fill-opacity:1;fill-rule:nonzero;stroke:none"
         d="m 8322.1362,2868.3614 c -1.92,-5.859 -4.71,-14.339 -3.26,-20.449 0.39,-1.64 2.41,-1.582 3.26,-0.429 3.69,5.046 2.95,13.617 4.57,19.609 0.81,2.98 -3.64,4.16 -4.57,1.269" /><path
         id="path1404"
         style="fill:#ba9166;fill-opacity:1;fill-rule:nonzero;stroke:none"
         d="m 8319.0962,2827.6004 c -1.14,-6.047 -1.49,-12.539 -0.42,-18.629 0.18,-0.981 1.57,-0.828 1.84,0 1.84,5.781 1.03,12.219 1.63,18.219 0.16,1.73 -2.73,2.121 -3.05,0.41" /><path
         id="path1406"
         style="fill:#ba9166;fill-opacity:1;fill-rule:nonzero;stroke:none"
         d="m 8303.2862,2825.8694 c -0.9,-4.847 -2.03,-9.879 -1.43,-14.808 l 1.72,-0.469 c 2.39,4.371 2.52,9.43 3.46,14.238 0.48,2.449 -3.29,3.5 -3.75,1.039" /><path
         id="path1408"
         style="fill:#ba9166;fill-opacity:1;fill-rule:nonzero;stroke:none"
         d="m 8276.3962,2836.7794 c -0.91,-6.66 -4.38,-13.277 -3.02,-20.007 0.22,-1.153 1.67,-0.852 2.03,0 2.5,5.988 3.31,13.16 3.77,19.64 0.12,1.578 -2.57,1.957 -2.78,0.367" /><path
         id="path1410"
         style="fill:#ba9166;fill-opacity:1;fill-rule:nonzero;stroke:none"
         d="m 8291.1562,2839.5724 c -2.28,-6.41 -5.61,-14.582 -4.04,-21.472 0.31,-1.328 1.99,-1.039 2.42,0 2.58,6.25 3.11,14.019 4.61,20.652 0.44,1.957 -2.33,2.688 -2.99,0.82" /><path
         id="path1412"
         style="fill:#ba9166;fill-opacity:1;fill-rule:nonzero;stroke:none"
         d="m 8280.9262,2795.0804 c -1.03,-6.5 -3.72,-14.238 -2.05,-20.758 0.26,-1.05 1.98,-1.429 2.46,-0.332 2.61,5.973 2.87,13.493 3.84,19.922 0.43,2.778 -3.81,3.981 -4.25,1.168" /><path
         id="path1414"
         style="fill:#ba9166;fill-opacity:1;fill-rule:nonzero;stroke:none"
         d="m 8297.7362,2790.3424 c -0.33,-8.16 -3.17,-17.25 -1.77,-25.289 0.23,-1.383 2.26,-1.512 2.89,-0.383 4.01,7.231 3.37,17.66 3.18,25.672 -0.07,2.758 -4.18,2.75 -4.3,0" /><path
         id="path1416"
         style="fill:#ba9166;fill-opacity:1;fill-rule:nonzero;stroke:none"
         d="m 8320.1962,2780.3934 c -1.48,-6.012 -4.63,-16.453 -0.95,-21.973 0.9,-1.367 2.72,-1.348 3.63,0 1.89,2.77 1.58,6.223 1.63,9.473 0.07,3.949 0.22,7.91 0.35,11.859 0.1,2.688 -4.02,3.231 -4.66,0.641" /><path
         id="path1418"
         style="fill:#ba9166;fill-opacity:1;fill-rule:nonzero;stroke:none"
         d="m 8320.9862,2737.8424 c 0.03,-5.582 0.21,-10.492 1.61,-15.91 h 1.72 c 1.39,5.418 1.57,10.328 1.61,15.91 0.02,3.187 -4.96,3.187 -4.94,0" /><path
         id="path1420"
         style="fill:#ba9166;fill-opacity:1;fill-rule:nonzero;stroke:none"
         d="m 8332.4062,2799.3304 c -0.97,-5.308 -2.57,-14.008 1.78,-18.14 1.03,-0.981 2.66,-0.52 3.08,0.82 0.77,2.402 0.17,4.41 -0.08,6.902 -0.32,2.981 -0.09,6.051 0.38,9 0.52,3.348 -4.53,4.828 -5.16,1.418" /><path
         id="path1422"
         style="fill:#ba9166;fill-opacity:1;fill-rule:nonzero;stroke:none"
         d="m 8354.0862,2829.0224 c -0.03,-3.68 0.08,-7.36 0.18,-11.032 0.09,-3.597 -0.61,-7.238 1.48,-10.308 0.92,-1.34 2.78,-1.391 3.69,0 1.82,2.789 1.21,5.25 0.86,8.48 -0.47,4.297 -0.99,8.539 -1.13,12.86 -0.11,3.257 -5.06,3.277 -5.08,0" /><path
         id="path1424"
         style="fill:#ba9166;fill-opacity:1;fill-rule:nonzero;stroke:none"
         d="m 8331.4662,2839.0614 c 0.82,-5.211 -0.07,-10.782 2.07,-15.668 h 2 c 2.29,5.238 1.13,11.347 0.07,16.797 -0.53,2.75 -4.56,1.55 -4.14,-1.129" /><path
         id="path1426"
         style="fill:#ba9166;fill-opacity:1;fill-rule:nonzero;stroke:none"
         d="m 8350.3162,2864.0224 c 0.27,-3.481 0.61,-6.969 0.72,-10.473 0.1,-2.957 -0.39,-5.348 1.2,-7.938 0.6,-1 2,-1.191 2.84,-0.359 4.44,4.348 1.75,13.277 1.18,18.77 -0.4,3.738 -6.23,3.847 -5.94,0" /><path
         id="path1428"
         style="fill:#ba9166;fill-opacity:1;fill-rule:nonzero;stroke:none"
         d="m 8337.1962,2884.3034 c -0.16,-3.582 -1.61,-7.953 0.66,-10.981 0.82,-1.089 2.15,-1.089 2.97,0 2.26,3.028 0.82,7.399 0.66,10.981 -0.13,2.758 -4.16,2.758 -4.29,0" /><path
         id="path1430"
         style="fill:#ba9166;fill-opacity:1;fill-rule:nonzero;stroke:none"
         d="m 8349.6162,2905.0294 c -0.13,-5.609 -1.46,-14.378 1.87,-19.187 0.66,-0.961 1.98,-1 2.62,0 3.3,5.078 0.27,13.461 -0.02,19.187 -0.14,2.883 -4.41,2.903 -4.47,0" /><path
         id="path1432"
         style="fill:#ba9166;fill-opacity:1;fill-rule:nonzero;stroke:none"
         d="m 8338.3762,2918.8504 c -0.05,-4.668 -0.93,-9.719 1.44,-13.93 0.44,-0.789 1.89,-0.711 2.05,0.27 0.74,4.429 0.29,9.16 0.34,13.66 0.03,2.461 -3.8,2.461 -3.83,0" /><path
         id="path1434"
         style="fill:#ba9166;fill-opacity:1;fill-rule:nonzero;stroke:none"
         d="m 8333.9262,2942.3424 c -0.48,-4.082 -2.21,-9.32 0.09,-12.992 h 1.94 c 2.3,3.672 0.57,8.91 0.08,12.992 -0.15,1.359 -1.95,1.359 -2.11,0" /><path
         id="path1436"
         style="fill:#ba9166;fill-opacity:1;fill-rule:nonzero;stroke:none"
         d="m 8347.4662,2952.9404 c -0.39,-4.868 -1.8,-11.528 1.87,-15.368 0.77,-0.793 2.29,-0.441 2.54,0.668 1.02,4.582 -1.05,10.02 -1.44,14.7 -0.16,1.902 -2.81,1.91 -2.97,0" /><path
         id="path1438"
         style="fill:#ba9166;fill-opacity:1;fill-rule:nonzero;stroke:none"
         d="m 8328.0362,2964.9014 c -0.52,-4.391 -1.93,-8.961 -0.73,-13.301 0.34,-1.188 2.11,-1.52 2.72,-0.36 2.19,4.192 1.77,9.063 1.37,13.661 -0.19,2.191 -3.11,2.14 -3.36,0" /><path
         id="path1440"
         style="fill:#ba9166;fill-opacity:1;fill-rule:nonzero;stroke:none"
         d="m 8351.8662,2967.2134 c 0.31,-3.48 0.79,-7.371 2.73,-10.32 0.58,-0.891 2.09,-0.844 2.35,0.308 0.87,3.711 -0.67,7.45 -2.44,10.719 -0.64,1.199 -2.76,0.711 -2.64,-0.707" /><path
         id="path1442"
         style="fill:#ba9166;fill-opacity:1;fill-rule:nonzero;stroke:none"
         d="m 8369.4462,2941.3034 c 1.34,-4.91 2.37,-9.262 5.41,-13.383 0.66,-0.891 2.24,-0.68 2.22,0.59 -0.12,5.039 -1.74,9.211 -3.37,13.961 -0.91,2.672 -5.01,1.601 -4.26,-1.168" /><path
         id="path1444"
         style="fill:#ba9166;fill-opacity:1;fill-rule:nonzero;stroke:none"
         d="m 8365.0262,2926.6704 c 0.2,-5.039 0.28,-9.371 2.24,-14.07 0.39,-0.949 1.86,-0.899 1.88,0.25 0.07,4.902 -0.84,9.34 -1.66,14.152 -0.25,1.41 -2.52,1.07 -2.46,-0.332" /><path
         id="path1446"
         style="fill:#ba9166;fill-opacity:1;fill-rule:nonzero;stroke:none"
         d="m 8382.0862,2906.0294 c -1.26,-6.359 0.96,-14.128 6.2,-18.218 0.78,-0.61 2.41,-0.61 2.59,0.679 0.87,6.43 -4.84,10.84 -4.78,17 0.02,2.262 -3.55,2.84 -4.01,0.539" /><path
         id="path1448"
         style="fill:#ba9166;fill-opacity:1;fill-rule:nonzero;stroke:none"
         d="m 8371.5262,2886.6004 c -0.49,-5.707 -0.57,-12.438 3.81,-16.719 1.02,-0.98 2.37,-0.168 2.53,1.059 0.69,5.339 -2.53,10.242 -2.39,15.66 0.08,2.582 -3.74,2.5 -3.95,0" /><path
         id="path1450"
         style="fill:#ba9166;fill-opacity:1;fill-rule:nonzero;stroke:none"
         d="m 8388.9662,2869.3934 c 1.07,-4.922 0.53,-11.301 3.69,-15.434 0.91,-1.18 2.71,-1.137 3.21,0.41 1.62,5.102 -0.5,11.473 -2.27,16.293 -1.05,2.899 -5.3,1.789 -4.63,-1.269" /><path
         id="path1452"
         style="fill:#ba9166;fill-opacity:1;fill-rule:nonzero;stroke:none"
         d="m 8377.3462,2849.7604 c 0.79,-7.359 2.05,-13.879 5.92,-20.27 0.46,-0.757 1.75,-0.468 1.72,0.473 -0.25,7.18 -3.22,13.277 -4.8,20.199 -0.36,1.571 -3.02,1.25 -2.84,-0.402" /><path
         id="path1454"
         style="fill:#ba9166;fill-opacity:1;fill-rule:nonzero;stroke:none"
         d="m 8395.4462,2829.9634 c 0.19,-5.82 1.23,-11.094 4.01,-16.23 0.59,-1.082 1.95,-0.442 2.09,0.57 0.72,5.41 -0.82,10.269 -0.97,15.66 -0.08,3.309 -5.25,3.316 -5.13,0" /><path
         id="path1456"
         style="fill:#ba9166;fill-opacity:1;fill-rule:nonzero;stroke:none"
         d="m 8381.3062,2803.6904 c 0.09,-5.379 -0.59,-11.95 2.83,-16.477 0.83,-1.102 2.5,-1.051 2.96,0.387 1.58,5.019 0.59,10.883 0.67,16.09 0.06,4.171 -6.53,4.171 -6.46,0" /><path
         id="path1458"
         style="fill:#ba9166;fill-opacity:1;fill-rule:nonzero;stroke:none"
         d="m 8361.1962,2777.9014 c -0.14,-6.688 -1.47,-14.692 0.9,-21.079 0.43,-1.14 2.21,-1.351 2.54,0 1.6,6.618 0.13,14.309 0,21.079 -0.05,2.21 -3.39,2.21 -3.44,0" /><path
         id="path1460"
         style="fill:#ba9166;fill-opacity:1;fill-rule:nonzero;stroke:none"
         d="m 8377.0662,2765.9404 c -0.52,-6.059 -2.65,-12.579 0.54,-18.231 0.57,-1.008 2.24,-0.84 2.53,0.344 1.36,5.797 -0.22,12.039 -0.63,17.887 -0.11,1.582 -2.3,1.562 -2.44,0" /><path
         id="path1462"
         style="fill:#ba9166;fill-opacity:1;fill-rule:nonzero;stroke:none"
         d="m 8394.6262,2778.3614 c 0.02,-6.941 -1.07,-14.871 1.3,-21.5 0.4,-1.128 1.88,-1.128 2.28,0 2.36,6.629 1.28,14.559 1.3,21.5 0.01,3.141 -4.89,3.141 -4.88,0" /><path
         id="path1464"
         style="fill:#ba9166;fill-opacity:1;fill-rule:nonzero;stroke:none"
         d="m 8357.2962,2738.3034 c -0.31,-4.961 -1.18,-10.801 0.6,-15.531 0.43,-1.161 1.91,-1.161 2.34,0 1.79,4.73 1.03,10.507 1.48,15.531 0.25,2.816 -4.24,2.84 -4.42,0" /><path
         id="path1466"
         style="fill:#ba9166;fill-opacity:1;fill-rule:nonzero;stroke:none"
         d="m 8297.9162,2750.7214 c -0.18,-3.488 -1.62,-6.649 -1.68,-10.11 -0.02,-1.089 1.38,-1.66 2.14,-0.878 2.86,2.918 3.34,7.046 3.48,10.988 0.11,2.558 -3.82,2.539 -3.94,0" /><path
         id="path1468"
         style="fill:#ba9166;fill-opacity:1;fill-rule:nonzero;stroke:none"
         d="m 8324.2862,2708.8114 c -0.5,-7.09 -4.07,-18.961 1.32,-24.719 0.97,-1.02 3.12,-0.91 3.73,0.48 1.55,3.52 0.79,6.848 0.52,10.618 -0.31,4.543 -0.26,9.089 -0.5,13.621 -0.16,3.281 -4.84,3.25 -5.07,0" /><path
         id="path1470"
         style="fill:#724931;fill-opacity:1;fill-rule:nonzero;stroke:none"
         d="m 8217.2762,2422.5614 c 3.29,-3.532 5.47,-8.309 9.13,-11.391 0.65,-0.539 1.89,-0.051 1.55,0.902 -1.64,4.629 -5.8,8.547 -9.33,11.84 l -1.35,-1.351" /><path
         id="path1472"
         style="fill:#724931;fill-opacity:1;fill-rule:nonzero;stroke:none"
         d="m 8232.3962,2431.0024 c 1.3,-6.851 3.84,-14.672 8.82,-19.762 l 1.39,0.813 c -1.89,6.808 -6.29,12.629 -8.24,19.5 -0.36,1.277 -2.21,0.726 -1.97,-0.551" /><path
         id="path1474"
         style="fill:#724931;fill-opacity:1;fill-rule:nonzero;stroke:none"
         d="m 8243.2462,2398.4014 c 2.57,-3.09 5.58,-6.719 9.76,-7.129 l 0.93,1.64 c -2.01,3.207 -5.56,5.18 -8.03,8.137 -1.56,1.871 -4.2,-0.809 -2.66,-2.648" /><path
         id="path1476"
         style="fill:#724931;fill-opacity:1;fill-rule:nonzero;stroke:none"
         d="m 8256.4262,2409.4124 c 0.8,-4.359 2.94,-9.39 7.48,-10.801 1.02,-0.308 1.76,0.84 1.31,1.7 -1.88,3.582 -4.78,5.761 -5.86,9.898 -0.49,1.934 -3.27,1.102 -2.93,-0.797" /><path
         id="path1478"
         style="fill:#724931;fill-opacity:1;fill-rule:nonzero;stroke:none"
         d="m 8274.3562,2417.1904 c -0.02,-4.938 0.3,-11.18 3.71,-14.989 0.58,-0.66 1.96,-0.379 2.09,0.551 0.72,4.828 -1.87,9.57 -2.24,14.438 -0.17,2.261 -3.55,2.32 -3.56,0" /><path
         id="path1480"
         style="fill:#724931;fill-opacity:1;fill-rule:nonzero;stroke:none"
         d="m 8267.9562,2438.3504 c 0.72,-2.149 1.72,-4.11 2.7,-6.149 1.28,-2.648 1.48,-5.398 3.76,-7.34 0.81,-0.679 2.19,-0.5 2.48,0.668 1.17,4.801 -3.41,10.993 -6.91,14 -0.86,0.743 -2.46,0.063 -2.03,-1.179" /><path
         id="path1482"
         style="fill:#724931;fill-opacity:1;fill-rule:nonzero;stroke:none"
         d="m 8251.5362,2434.6314 c 0.15,-3.941 0.74,-7.719 4.35,-9.832 1.03,-0.598 2.09,0.391 1.88,1.461 -0.54,2.891 -1.77,5.351 -1.87,8.371 -0.11,2.789 -4.47,2.809 -4.36,0" /><path
         id="path1484"
         style="fill:#724931;fill-opacity:1;fill-rule:nonzero;stroke:none"
         d="m 8267.3762,2456.8034 c -0.16,-4.152 0.21,-10.223 4.85,-11.613 1.24,-0.368 2.14,0.812 1.94,1.953 -0.61,3.418 -2.93,5.937 -3.29,9.66 -0.22,2.199 -3.41,2.277 -3.5,0" /><path
         id="path1486"
         style="fill:#724931;fill-opacity:1;fill-rule:nonzero;stroke:none"
         d="m 8251.3162,2465.0614 c 0.65,-3.93 1.63,-9.371 4.86,-12.008 1.02,-0.82 2.43,-0.301 2.53,1.047 0.29,4.101 -2.92,7.992 -4.01,11.89 -0.63,2.211 -3.73,1.25 -3.38,-0.929" /><path
         id="path1488"
         style="fill:#724931;fill-opacity:1;fill-rule:nonzero;stroke:none"
         d="m 8224.3962,2460.8304 c 0.02,-5.418 0.75,-14.617 6.08,-17.461 1.07,-0.578 2.26,0.141 2.33,1.344 0.13,2.297 -0.65,3.707 -1.69,5.809 -1.62,3.3 -2.57,6.64 -2.83,10.308 -0.18,2.473 -3.9,2.531 -3.89,0" /><path
         id="path1490"
         style="fill:#724931;fill-opacity:1;fill-rule:nonzero;stroke:none"
         d="m 8209.5562,2450.3934 c 1.21,-5.192 2.09,-13.192 7.08,-16.133 0.99,-0.59 1.97,0.371 1.79,1.371 -0.43,2.48 -1.77,4.309 -2.95,6.52 -1.49,2.8 -2.29,5.949 -3.19,8.98 -0.51,1.762 -3.15,1.039 -2.73,-0.738" /><path
         id="path1492"
         style="fill:#724931;fill-opacity:1;fill-rule:nonzero;stroke:none"
         d="m 8196.4862,2455.1434 c 1.39,-3.442 2.19,-6.961 2.92,-10.59 0.7,-3.402 1.08,-6.981 3.78,-9.32 l 1.77,0.468 c 1.72,6.18 -3.65,14.84 -6.3,20.34 -0.58,1.211 -2.67,0.352 -2.17,-0.898" /><path
         id="path1494"
         style="fill:#724931;fill-opacity:1;fill-rule:nonzero;stroke:none"
         d="m 8189.1862,2487.2794 c 0.8,-3.707 1.46,-6.976 4.32,-9.597 l 1.38,0.808 c -1.14,3.172 -2.17,6.27 -2.85,9.582 -0.38,1.868 -3.26,1.079 -2.85,-0.793" /><path
         id="path1496"
         style="fill:#724931;fill-opacity:1;fill-rule:nonzero;stroke:none"
         d="m 8203.0762,2482.2994 c -0.14,-6.027 0.44,-13.836 4.68,-18.508 0.89,-0.98 2.52,-0.199 2.53,1.051 0.03,5.898 -3.55,11.488 -4.1,17.457 -0.19,1.973 -3.06,2.031 -3.11,0" /><path
         id="path1498"
         style="fill:#724931;fill-opacity:1;fill-rule:nonzero;stroke:none"
         d="m 8221.0862,2485.1624 c 0.68,-4.453 1.48,-10.121 4.89,-13.34 1.05,-1.011 2.49,-0.222 2.64,1.09 0.51,4.551 -2.83,8.93 -3.97,13.231 -0.63,2.347 -3.91,1.32 -3.56,-0.981" /><path
         id="path1500"
         style="fill:#724931;fill-opacity:1;fill-rule:nonzero;stroke:none"
         d="m 8238.2062,2490.3614 c 0.22,-3.402 0.89,-6.359 3,-9.089 l 1.26,0.539 c -0.68,2.859 -1.31,5.57 -1.35,8.55 -0.03,1.879 -3.02,1.86 -2.91,0" /><path
         id="path1502"
         style="fill:#724931;fill-opacity:1;fill-rule:nonzero;stroke:none"
         d="m 8253.8162,2493.3504 c 1.72,-5.66 1.76,-13.528 6.19,-17.821 l 1.75,0.723 c 0.45,5.859 -3.32,12.41 -5.33,17.82 -0.6,1.598 -3.12,0.969 -2.61,-0.722" /><path
         id="path1504"
         style="fill:#724931;fill-opacity:1;fill-rule:nonzero;stroke:none"
         d="m 8267.2162,2511.4904 c -2.09,-6.519 -2.13,-16.218 0.72,-22.507 0.4,-0.891 1.99,-0.911 2.38,0 2.79,6.429 1.5,16.007 -0.68,22.507 -0.4,1.18 -2.03,1.211 -2.42,0" /><path
         id="path1506"
         style="fill:#724931;fill-opacity:1;fill-rule:nonzero;stroke:none"
         d="m 8254.4162,2530.6194 c -0.11,-5.918 -1.38,-13.468 1.56,-18.847 0.61,-1.141 2.29,-0.821 2.64,0.339 1.7,5.598 0.14,12.688 0.02,18.508 -0.06,2.723 -4.16,2.723 -4.22,0" /><path
         id="path1508"
         style="fill:#724931;fill-opacity:1;fill-rule:nonzero;stroke:none"
         d="m 8235.6762,2530.1004 c 0.6,-4.348 0.46,-9.93 3.74,-13.188 0.68,-0.672 2.14,-0.453 2.32,0.61 0.7,4.429 -1.34,9.289 -2.25,13.629 -0.53,2.55 -4.15,1.402 -3.81,-1.051" /><path
         id="path1510"
         style="fill:#724931;fill-opacity:1;fill-rule:nonzero;stroke:none"
         d="m 8214.5762,2527.9514 c -0.08,-4.648 -0.18,-11.699 2.69,-15.57 0.82,-1.09 2.43,-0.988 2.89,0.379 1.59,4.66 -1.26,10.422 -1.64,15.191 -0.18,2.52 -3.91,2.578 -3.94,0" /><path
         id="path1512"
         style="fill:#724931;fill-opacity:1;fill-rule:nonzero;stroke:none"
         d="m 8182.9462,2545.1004 c -1.32,-6.449 -1.13,-15.078 2.75,-20.668 0.72,-1.02 2.69,-1.11 2.96,0.39 1.18,6.508 -2.51,13.36 -2.99,19.911 -0.1,1.468 -2.39,1.976 -2.72,0.367" /><path
         id="path1514"
         style="fill:#724931;fill-opacity:1;fill-rule:nonzero;stroke:none"
         d="m 8197.5062,2511.1624 c -0.06,-4.64 0.25,-9.383 3.44,-12.972 0.91,-1.02 2.28,0.101 2.1,1.222 -0.67,4.039 -2.25,7.59 -2.51,11.75 -0.12,1.93 -3.01,1.969 -3.03,0" /><path
         id="path1516"
         style="fill:#724931;fill-opacity:1;fill-rule:nonzero;stroke:none"
         d="m 8229.5262,2510.4904 c 0.15,-3.859 0.74,-8.257 4.41,-10.187 1.03,-0.543 2.67,0.109 2.53,1.457 -0.3,3.07 -1.89,5.582 -2.06,8.73 -0.16,3.121 -4.99,3.153 -4.88,0" /><path
         id="path1518"
         style="fill:#724931;fill-opacity:1;fill-rule:nonzero;stroke:none"
         d="m 8179.2362,2586.4014 c 0.59,-4.102 -0.05,-8.418 1.62,-12.239 0.44,-1.019 2.23,-1.019 2.67,0 1.83,4.199 0.9,9.059 0.22,13.489 -0.46,2.968 -4.95,1.691 -4.51,-1.25" /><path
         id="path1520"
         style="fill:#724931;fill-opacity:1;fill-rule:nonzero;stroke:none"
         d="m 8196.6762,2563.9904 c -1.16,-4.621 -1.65,-10.449 1.35,-14.461 0.66,-0.886 2.11,-0.636 2.14,0.59 0.15,4.512 -1.26,8.371 -0.19,12.953 0.5,2.149 -2.76,3.071 -3.3,0.918" /><path
         id="path1522"
         style="fill:#724931;fill-opacity:1;fill-rule:nonzero;stroke:none"
         d="m 8216.5262,2561.5104 c -0.54,-4.188 -0.3,-8.918 3.22,-11.731 0.81,-0.636 2.53,-0.367 2.37,0.981 -0.48,3.75 -1.84,6.851 -1.37,10.75 0.32,2.711 -3.88,2.66 -4.22,0" /><path
         id="path1524"
         style="fill:#724931;fill-opacity:1;fill-rule:nonzero;stroke:none"
         d="m 8238.6262,2551.4404 c 0.13,-3.52 0.1,-7.911 2.78,-10.45 0.64,-0.589 1.95,-0.609 2.34,0.301 1.43,3.34 -0.07,6.578 -0.18,10.149 -0.08,3.191 -5.07,3.191 -4.94,0" /><path
         id="path1526"
         style="fill:#724931;fill-opacity:1;fill-rule:nonzero;stroke:none"
         d="m 8174.7362,2626.6194 c -0.26,-4.668 -1.31,-9.769 0.57,-14.168 0.42,-0.968 2.14,-0.968 2.56,0 1.88,4.399 0.83,9.5 0.57,14.168 -0.14,2.383 -3.56,2.383 -3.7,0" /><path
         id="path1528"
         style="fill:#724931;fill-opacity:1;fill-rule:nonzero;stroke:none"
         d="m 8186.3062,2611.8424 c -0.23,-5.531 -1.15,-11.461 1.35,-16.59 l 1.76,0.238 c 1.25,5.282 0.14,10.969 -0.09,16.352 -0.07,1.961 -2.94,1.961 -3.02,0" /><path
         id="path1530"
         style="fill:#724931;fill-opacity:1;fill-rule:nonzero;stroke:none"
         d="m 8175.7962,2660.8504 c 0.14,-2.321 0.05,-4.688 0.72,-6.93 h 1.53 c 0.67,2.242 0.58,4.609 0.72,6.93 0.11,1.91 -3.08,1.91 -2.97,0" /><path
         id="path1532"
         style="fill:#724931;fill-opacity:1;fill-rule:nonzero;stroke:none"
         d="m 8185.0562,2647.4324 c 0,-3.781 -0.72,-8.563 1.9,-11.602 l 2.03,0.539 c 1.17,3.274 0.16,7.582 0.15,11.063 0,2.64 -4.09,2.64 -4.08,0" /><path
         id="path1534"
         style="fill:#724931;fill-opacity:1;fill-rule:nonzero;stroke:none"
         d="m 8178.6762,2709.8614 c -0.03,-4.832 -0.97,-10.539 0.87,-15.109 0.49,-1.223 1.99,-1.223 2.48,0 1.84,4.57 0.9,10.277 0.87,15.109 -0.02,2.719 -4.2,2.719 -4.22,0" /><path
         id="path1536"
         style="fill:#724931;fill-opacity:1;fill-rule:nonzero;stroke:none"
         d="m 8188.7562,2688.8934 c -1.06,-5.121 -2.91,-10.551 -0.96,-15.672 0.53,-1.399 2.25,-1.34 2.79,0 1.95,4.711 1.47,10.172 1.93,15.16 0.19,2.148 -3.33,2.609 -3.76,0.512" /><path
         id="path1538"
         style="fill:#724931;fill-opacity:1;fill-rule:nonzero;stroke:none"
         d="m 8200.2762,2594.4404 c 1.54,-4.297 2.85,-8.477 6.21,-11.707 1.05,-0.981 2.39,0.039 2.21,1.289 -0.58,4.148 -2.5,7.738 -3.91,11.668 -1,2.82 -5.52,1.601 -4.51,-1.25" /><path
         id="path1540"
         style="fill:#724931;fill-opacity:1;fill-rule:nonzero;stroke:none"
         d="m 8216.4062,2584.3304 c 0.25,-5.988 2.93,-14.777 9.45,-16.558 1.38,-0.379 2.61,0.91 2.26,2.269 -1.29,5.211 -5.54,8.508 -5.85,14.289 -0.19,3.762 -6.02,3.789 -5.86,0" /><path
         id="path1542"
         style="fill:#724931;fill-opacity:1;fill-rule:nonzero;stroke:none"
         d="m 8462.6862,2423.9124 c -3.52,-3.293 -7.66,-7.222 -9.32,-11.84 -0.34,-0.953 0.9,-1.441 1.54,-0.902 3.67,3.07 5.86,7.859 9.13,11.391 l -1.35,1.351" /><path
         id="path1544"
         style="fill:#724931;fill-opacity:1;fill-rule:nonzero;stroke:none"
         d="m 8446.9562,2431.5534 c -1.93,-6.863 -6.34,-12.692 -8.2,-19.5 l 1.39,-0.813 c 4.96,5.102 7.49,12.911 8.78,19.762 0.25,1.277 -1.61,1.828 -1.97,0.551" /><path
         id="path1546"
         style="fill:#724931;fill-opacity:1;fill-rule:nonzero;stroke:none"
         d="m 8435.4362,2401.0494 c -2.48,-2.957 -6.06,-4.918 -8.07,-8.137 l 0.94,-1.64 c 4.18,0.41 7.21,4.039 9.78,7.129 1.55,1.839 -1.1,4.519 -2.65,2.648" /><path
         id="path1548"
         style="fill:#724931;fill-opacity:1;fill-rule:nonzero;stroke:none"
         d="m 8421.9562,2410.2094 c -1.07,-4.137 -3.96,-6.328 -5.86,-9.898 -0.46,-0.86 0.3,-2.008 1.31,-1.7 4.55,1.411 6.68,6.442 7.48,10.801 0.34,1.899 -2.42,2.731 -2.93,0.797" /><path
         id="path1550"
         style="fill:#724931;fill-opacity:1;fill-rule:nonzero;stroke:none"
         d="m 8403.4062,2417.1904 c -0.37,-4.868 -2.98,-9.61 -2.25,-14.438 0.15,-0.93 1.51,-1.211 2.1,-0.551 3.39,3.821 3.72,10.051 3.7,14.989 -0.01,2.32 -3.38,2.261 -3.55,0" /><path
         id="path1552"
         style="fill:#724931;fill-opacity:1;fill-rule:nonzero;stroke:none"
         d="m 8411.3362,2439.5294 c -3.5,-3.007 -8.11,-9.207 -6.88,-14 0.3,-1.16 1.67,-1.359 2.48,-0.668 1.72,1.481 1.98,2.809 2.74,4.961 1.02,2.938 2.69,5.571 3.69,8.528 0.43,1.242 -1.17,1.922 -2.03,1.179" /><path
         id="path1554"
         style="fill:#724931;fill-opacity:1;fill-rule:nonzero;stroke:none"
         d="m 8425.4362,2434.6314 c -0.12,-3.02 -1.33,-5.48 -1.88,-8.371 -0.2,-1.07 0.85,-2.059 1.9,-1.461 3.59,2.113 4.18,5.891 4.33,9.832 0.11,2.809 -4.24,2.789 -4.35,0" /><path
         id="path1556"
         style="fill:#724931;fill-opacity:1;fill-rule:nonzero;stroke:none"
         d="m 8410.4462,2456.8034 c -0.35,-3.723 -2.67,-6.231 -3.29,-9.66 -0.22,-1.141 0.7,-2.321 1.94,-1.953 4.66,1.39 5.01,7.453 4.84,11.613 -0.08,2.277 -3.28,2.207 -3.49,0" /><path
         id="path1558"
         style="fill:#724931;fill-opacity:1;fill-rule:nonzero;stroke:none"
         d="m 8426.6262,2465.9904 c -1.08,-3.91 -4.28,-7.789 -4,-11.89 0.08,-1.36 1.52,-1.867 2.53,-1.047 3.25,2.629 4.2,8.078 4.83,12.008 0.35,2.179 -2.75,3.148 -3.36,0.929" /><path
         id="path1560"
         style="fill:#724931;fill-opacity:1;fill-rule:nonzero;stroke:none"
         d="m 8453.0162,2460.8304 c -0.28,-3.719 -1.26,-6.937 -2.84,-10.308 -0.99,-2.141 -1.8,-3.481 -1.69,-5.809 0.07,-1.203 1.27,-1.91 2.34,-1.344 5.34,2.844 6.05,12.043 6.07,17.461 0.01,2.531 -3.71,2.473 -3.88,0" /><path
         id="path1562"
         style="fill:#724931;fill-opacity:1;fill-rule:nonzero;stroke:none"
         d="m 8469.0262,2451.1314 c -0.9,-3.07 -1.8,-6.07 -3.18,-8.98 -1.09,-2.29 -2.51,-4.008 -2.95,-6.52 -0.17,-1 0.8,-1.961 1.8,-1.371 4.98,2.953 5.86,10.941 7.07,16.133 0.41,1.777 -2.22,2.5 -2.74,0.738" /><path
         id="path1564"
         style="fill:#724931;fill-opacity:1;fill-rule:nonzero;stroke:none"
         d="m 8482.6662,2456.0414 c -2.63,-5.512 -8.01,-14.16 -6.3,-20.34 l 1.76,-0.468 c 2.37,2.027 2.64,4.507 3.37,7.5 1.03,4.199 1.72,8.359 3.34,12.41 0.5,1.25 -1.59,2.109 -2.17,0.898" /><path
         id="path1566"
         style="fill:#724931;fill-opacity:1;fill-rule:nonzero;stroke:none"
         d="m 8489.2662,2488.0724 c -0.67,-3.32 -1.68,-6.41 -2.86,-9.582 l 1.39,-0.808 c 2.88,2.609 3.55,5.867 4.32,9.597 0.39,1.872 -2.48,2.661 -2.85,0.793" /><path
         id="path1568"
         style="fill:#724931;fill-opacity:1;fill-rule:nonzero;stroke:none"
         d="m 8475.1262,2482.2994 c -0.55,-5.977 -4.14,-11.559 -4.13,-17.457 0,-1.25 1.65,-2.031 2.54,-1.051 4.23,4.66 4.84,12.481 4.69,18.508 -0.06,2.031 -2.92,1.973 -3.1,0" /><path
         id="path1570"
         style="fill:#724931;fill-opacity:1;fill-rule:nonzero;stroke:none"
         d="m 8456.6762,2486.1434 c -1.14,-4.301 -4.47,-8.68 -3.98,-13.231 0.15,-1.312 1.6,-2.09 2.65,-1.09 3.41,3.219 4.21,8.887 4.88,13.34 0.35,2.301 -2.93,3.328 -3.55,0.981" /><path
         id="path1572"
         style="fill:#724931;fill-opacity:1;fill-rule:nonzero;stroke:none"
         d="m 8440.1762,2490.3614 c -0.03,-2.968 -0.63,-5.691 -1.28,-8.55 l 1.25,-0.539 c 2.09,2.738 2.73,5.699 2.92,9.089 0.12,1.872 -2.87,1.879 -2.89,0" /><path
         id="path1574"
         style="fill:#724931;fill-opacity:1;fill-rule:nonzero;stroke:none"
         d="m 8424.9062,2494.0724 c -2.01,-5.41 -5.8,-11.961 -5.32,-17.82 l 1.75,-0.723 c 4.4,4.301 4.46,12.161 6.17,17.821 0.52,1.691 -2,2.32 -2.6,0.722" /><path
         id="path1576"
         style="fill:#724931;fill-opacity:1;fill-rule:nonzero;stroke:none"
         d="m 8411.6762,2511.4904 c -2.2,-6.5 -3.47,-16.078 -0.68,-22.507 0.4,-0.911 1.99,-0.891 2.39,0 2.85,6.289 2.81,15.988 0.71,22.507 -0.39,1.2 -2.02,1.18 -2.42,0" /><path
         id="path1578"
         style="fill:#724931;fill-opacity:1;fill-rule:nonzero;stroke:none"
         d="m 8422.6862,2530.6194 c -0.11,-5.82 -1.67,-12.91 0.02,-18.508 0.36,-1.16 2.03,-1.48 2.65,-0.339 2.94,5.379 1.67,12.929 1.55,18.847 -0.05,2.723 -4.17,2.723 -4.22,0" /><path
         id="path1580"
         style="fill:#724931;fill-opacity:1;fill-rule:nonzero;stroke:none"
         d="m 8441.8262,2531.1514 c -0.88,-4.348 -2.92,-9.2 -2.23,-13.629 0.16,-1.071 1.64,-1.27 2.31,-0.61 3.4,3.34 3.22,9.219 3.8,13.707 0.29,2.223 -3.44,2.703 -3.88,0.532" /><path
         id="path1582"
         style="fill:#724931;fill-opacity:1;fill-rule:nonzero;stroke:none"
         d="m 8462.7962,2527.9514 c -0.37,-4.769 -3.22,-10.531 -1.65,-15.191 0.46,-1.367 2.07,-1.469 2.89,-0.379 2.88,3.859 2.78,10.922 2.71,15.57 -0.03,2.578 -3.76,2.52 -3.95,0" /><path
         id="path1584"
         style="fill:#724931;fill-opacity:1;fill-rule:nonzero;stroke:none"
         d="m 8495.6462,2544.7334 c -0.47,-6.551 -4.16,-13.403 -2.97,-19.911 0.29,-1.492 2.24,-1.421 2.96,-0.39 3.87,5.59 4.08,14.23 2.74,20.668 -0.34,1.609 -2.62,1.113 -2.73,-0.367" /><path
         id="path1586"
         style="fill:#724931;fill-opacity:1;fill-rule:nonzero;stroke:none"
         d="m 8480.7762,2511.1624 c -0.26,-4.152 -1.85,-7.722 -2.49,-11.75 -0.18,-1.109 1.18,-2.25 2.1,-1.222 3.17,3.589 3.48,8.339 3.42,12.972 -0.02,1.969 -2.91,1.93 -3.03,0" /><path
         id="path1588"
         style="fill:#724931;fill-opacity:1;fill-rule:nonzero;stroke:none"
         d="m 8446.9262,2510.4904 c -0.16,-3.16 -1.77,-5.66 -2.07,-8.73 -0.13,-1.348 1.51,-2 2.53,-1.457 3.67,1.93 4.28,6.328 4.43,10.187 0.11,3.153 -4.72,3.121 -4.89,0" /><path
         id="path1590"
         style="fill:#724931;fill-opacity:1;fill-rule:nonzero;stroke:none"
         d="m 8497.5962,2587.6514 c -0.72,-4.418 -1.64,-9.29 0.18,-13.489 0.44,-1.019 2.23,-1.019 2.68,0 1.68,3.821 1.02,8.137 1.65,12.239 0.46,2.941 -4.04,4.218 -4.51,1.25" /><path
         id="path1592"
         style="fill:#724931;fill-opacity:1;fill-rule:nonzero;stroke:none"
         d="m 8481.3862,2563.0724 c 1.02,-4.582 -0.38,-8.441 -0.25,-12.953 0.04,-1.226 1.49,-1.468 2.15,-0.59 3.02,4 2.52,9.84 1.4,14.461 -0.52,2.153 -3.79,1.243 -3.3,-0.918" /><path
         id="path1594"
         style="fill:#724931;fill-opacity:1;fill-rule:nonzero;stroke:none"
         d="m 8460.5662,2561.5104 c 0.47,-3.91 -0.89,-7 -1.4,-10.75 -0.18,-1.359 1.56,-1.609 2.36,-0.981 3.55,2.801 3.8,7.543 3.25,11.731 -0.34,2.652 -4.55,2.711 -4.21,0" /><path
         id="path1596"
         style="fill:#724931;fill-opacity:1;fill-rule:nonzero;stroke:none"
         d="m 8437.7862,2551.4404 c -0.1,-3.289 -1.66,-6.7 -0.38,-9.797 0.42,-1.032 1.58,-1.473 2.48,-0.653 2.74,2.512 2.71,6.922 2.84,10.45 0.13,3.191 -4.85,3.191 -4.94,0" /><path
         id="path1598"
         style="fill:#724931;fill-opacity:1;fill-rule:nonzero;stroke:none"
         d="m 8502.8962,2626.6194 c -0.26,-4.668 -1.32,-9.769 0.57,-14.168 0.41,-0.968 2.14,-0.968 2.55,0 1.89,4.399 0.83,9.5 0.57,14.168 -0.14,2.383 -3.55,2.383 -3.69,0" /><path
         id="path1600"
         style="fill:#724931;fill-opacity:1;fill-rule:nonzero;stroke:none"
         d="m 8492.0062,2611.8424 c -0.22,-5.383 -1.34,-11.07 -0.09,-16.352 l 1.74,-0.238 c 2.52,5.129 1.6,11.059 1.38,16.59 -0.08,1.961 -2.95,1.961 -3.03,0" /><path
         id="path1602"
         style="fill:#724931;fill-opacity:1;fill-rule:nonzero;stroke:none"
         d="m 8502.5462,2660.8504 c 0.13,-2.321 0.05,-4.688 0.72,-6.93 h 1.52 c 0.68,2.242 0.59,4.609 0.73,6.93 0.1,1.91 -3.08,1.91 -2.97,0" /><path
         id="path1604"
         style="fill:#724931;fill-opacity:1;fill-rule:nonzero;stroke:none"
         d="m 8492.2062,2647.4324 c -0.01,-3.481 -1.03,-7.789 0.14,-11.063 l 2.03,-0.539 c 2.62,3.039 1.91,7.821 1.91,11.602 0.01,2.64 -4.08,2.64 -4.08,0" /><path
         id="path1606"
         style="fill:#724931;fill-opacity:1;fill-rule:nonzero;stroke:none"
         d="m 8498.4362,2709.8614 c -0.03,-4.832 -0.97,-10.539 0.87,-15.109 0.48,-1.223 1.99,-1.223 2.48,0 1.83,4.57 0.89,10.277 0.86,15.109 0,2.719 -4.2,2.719 -4.21,0" /><path
         id="path1608"
         style="fill:#724931;fill-opacity:1;fill-rule:nonzero;stroke:none"
         d="m 8488.8162,2688.3814 c 0.45,-5 -0.04,-10.441 1.9,-15.16 0.56,-1.34 2.26,-1.399 2.79,0 1.96,5.121 0.11,10.551 -0.93,15.672 -0.43,2.097 -3.96,1.636 -3.76,-0.512" /><path
         id="path1610"
         style="fill:#724931;fill-opacity:1;fill-rule:nonzero;stroke:none"
         d="m 8476.5362,2595.6904 c -1.4,-3.93 -3.33,-7.52 -3.91,-11.668 -0.18,-1.25 1.16,-2.262 2.2,-1.289 3.38,3.218 4.68,7.41 6.22,11.707 1.03,2.851 -3.5,4.07 -4.51,1.25" /><path
         id="path1612"
         style="fill:#724931;fill-opacity:1;fill-rule:nonzero;stroke:none"
         d="m 8459.0262,2584.3304 c -0.3,-5.781 -4.53,-9.078 -5.84,-14.289 -0.34,-1.359 0.89,-2.64 2.27,-2.269 6.52,1.769 9.19,10.558 9.43,16.558 0.16,3.789 -5.67,3.762 -5.86,0" /><path
         id="path1614"
         style="fill:#a86d4b;fill-opacity:1;fill-rule:nonzero;stroke:none"
         d="m 8601.3562,3380.3314 c -62.36,45.28 -95.82,-12.62 -108.44,-56.31 -0.3,-1.01 39.26,-24.79 49.74,-31.88 11.62,-7.84 40.45,-17.2 41.66,-16.38 19.76,13.69 79.39,59.29 17.04,104.57" /><path
         id="path1616"
         style="fill:#f3bf87;fill-opacity:1;fill-rule:nonzero;stroke:none"
         d="m 8586.4262,3359.1514 c -44.73,34.27 -66.55,-8.77 -75.33,-39.12 -0.19,-0.71 27.31,-17.24 34.57,-22.16 8.05,-5.45 28.11,-11.93 28.93,-11.38 13.76,9.52 56.59,38.36 11.83,72.66" /><path
         id="path1618"
         style="fill:#a86d4b;fill-opacity:1;fill-rule:nonzero;stroke:none"
         d="m 8092.3262,3263.0814 c 1.17,-0.81 30.02,8.54 41.6,16.35 10.51,7.1 50.06,30.9 49.79,31.92 -12.64,43.68 -46.08,101.58 -108.44,56.31 -62.34,-45.29 -2.71,-90.88 17.05,-104.58" /><path
         id="path1620"
         style="fill:#f3bf87;fill-opacity:1;fill-rule:nonzero;stroke:none"
         d="m 8102.0162,3273.8114 c 0.82,-0.56 20.9,5.93 28.93,11.38 7.28,4.95 34.76,21.45 34.55,22.16 -8.77,30.34 -30.56,73.37 -75.32,39.11 -44.75,-34.28 -1.89,-63.12 11.84,-72.65" /><path
         id="path1622"
         style="fill:#f3bf87;fill-opacity:1;fill-rule:nonzero;stroke:none"
         d="m 8637.4762,3219.0814 c -37.6,58.83 -72.33,90 -142.43,114.63 -150.54,52.96 -347.98,28.14 -470.82,-128.9 -51.16,-69.289 -42.39,-123.848 31.42,-196.489 139.26,-137.019 408.01,-168.82 544.16,-16.863 93.68,104.57 84.88,153.774 37.67,227.622" /><path
         id="path1624"
         style="fill:#a86d4b;fill-opacity:1;fill-rule:nonzero;stroke:none"
         d="m 8495.0462,3333.7114 c -150.54,52.96 -347.98,28.14 -470.82,-128.9 -4.37,-5.9 -8.27,-11.71 -11.75,-17.418 326.84,36.398 176.36,-178.563 319.47,-178.563 143.1,0 28.76,241.521 298.22,221.381 -34.97,51.73 -69.58,80.46 -135.12,103.5" /><path
         id="path1626"
         style="fill:#f1fafb;fill-opacity:1;fill-rule:nonzero;stroke:none"
         d="m 8348.7862,2960.6434 c -4.95,-0.903 -12.68,-1.102 -15.25,3.609 -0.94,1.668 -1.32,2.141 -1.98,1.859 -2.45,-2.73 -5.49,-4.429 -9.62,-5.308 l -2.08,-0.051 c -3.09,-0.953 -6.43,-1.012 -10.24,0.578 l -0.53,0.301 -2.21,0.949 v -18.121 c 0,-0.848 3.66,-10.578 25.34,-10.578 21.7,0 24.39,9.73 24.39,10.578 v 17.703 c -2.64,-0.992 -5.28,-1.453 -7.82,-1.519" /><path
         id="path1628"
         style="fill:#242327;fill-opacity:1;fill-rule:nonzero;stroke:none"
         d="m 8329.7562,2999.2524 c 0,-0.012 0,-4.762 0,-10.742 0,-5.969 0,-13.149 0,-17.988 0.01,-1.993 -0.94,-4.211 -2.67,-5.879 -1.72,-1.684 -4.13,-2.821 -7.07,-2.821 -4.51,-0.011 -10.68,2.758 -17.25,11.868 -0.77,1.07 -2.27,1.312 -3.34,0.543 -1.08,-0.782 -1.32,-2.274 -0.54,-3.352 7.07,-9.852 14.57,-13.852 21.13,-13.859 8.46,0.039 14.49,6.609 14.53,13.5 0,9.668 0,28.699 0,28.73 0,1.32 -1.07,2.391 -2.39,2.391 -1.33,0 -2.4,-1.071 -2.4,-2.391" /><path
         id="path1630"
         style="fill:#242327;fill-opacity:1;fill-rule:nonzero;stroke:none"
         d="m 8329.3462,2999.2524 c 0,-0.012 0,-4.762 0,-10.742 0,-5.969 0,-13.149 0,-17.988 0.04,-6.879 6.06,-13.461 14.51,-13.5 6.56,0.01 14.06,4.007 21.15,13.859 0.77,1.078 0.53,2.57 -0.54,3.352 -1.08,0.769 -2.57,0.527 -3.35,-0.543 -6.59,-9.11 -12.75,-11.879 -17.26,-11.868 -2.93,0 -5.34,1.137 -7.06,2.821 -1.72,1.668 -2.67,3.879 -2.66,5.879 0,9.668 0,28.699 0,28.73 0,1.32 -1.07,2.391 -2.39,2.391 -1.33,0 -2.4,-1.071 -2.4,-2.391" /><path
         id="path1632"
         style="fill:#1e1c22;fill-opacity:1;fill-rule:nonzero;stroke:none"
         d="m 8226.9262,3082.5924 c 0,-23.27 -19.69,-42.141 -44.01,-42.141 -24.3,0 -43.99,18.871 -43.99,42.141 0,23.289 19.69,42.141 43.99,42.141 24.32,0 44.01,-18.852 44.01,-42.141" /><path
         id="path1634"
         style="fill:#18151a;fill-opacity:1;fill-rule:nonzero;stroke:none"
         d="m 8209.8262,3074.5614 c 0,-11.871 -10.03,-21.481 -22.44,-21.481 -12.38,0 -22.43,9.61 -22.43,21.481 0,11.851 10.05,21.468 22.43,21.468 12.41,0 22.44,-9.617 22.44,-21.468" /><path
         id="path1636"
         style="fill:#fef5e9;fill-opacity:1;fill-rule:nonzero;stroke:none"
         d="m 8152.8962,3075.5614 c 0,18.929 16.04,34.281 35.82,34.281 16.04,0 29.64,-10.121 34.2,-24.07 -3.05,17.3 -18.71,30.488 -37.64,30.488 -21.09,0 -38.21,-16.391 -38.21,-36.59 0,-15.449 9.97,-28.629 24.11,-34.008 -10.93,5.879 -18.28,17.059 -18.28,29.899" /><path
         id="path1638"
         style="fill:#fef5e9;fill-opacity:1;fill-rule:nonzero;stroke:none"
         d="m 8186.9862,3092.2404 c 0,-4.98 -4.21,-9 -9.35,-9 -5.19,0 -9.4,4.02 -9.4,9 0,4.961 4.21,9 9.4,9 5.14,0 9.35,-4.039 9.35,-9" /><path
         id="path1640"
         style="fill:#fef5e9;fill-opacity:1;fill-rule:nonzero;stroke:none"
         d="m 8174.4862,3077.2404 c 0,-3.32 -2.79,-5.988 -6.25,-5.988 -3.49,0 -6.29,2.668 -6.29,5.988 0,3.313 2.8,6 6.29,6 3.46,0 6.25,-2.687 6.25,-6" /><path
         id="path1642"
         style="fill:#1e1c22;fill-opacity:1;fill-rule:nonzero;stroke:none"
         d="m 8436.9362,3082.5924 c 0,-23.27 19.71,-42.141 44.03,-42.141 24.31,0 44,18.871 44,42.141 0,23.289 -19.69,42.141 -44,42.141 -24.32,0 -44.03,-18.852 -44.03,-42.141" /><path
         id="path1644"
         style="fill:#18151a;fill-opacity:1;fill-rule:nonzero;stroke:none"
         d="m 8454.0462,3074.5614 c 0,-11.871 10.04,-21.481 22.45,-21.481 12.37,0 22.41,9.61 22.41,21.481 0,11.851 -10.04,21.468 -22.41,21.468 -12.41,0 -22.45,-9.617 -22.45,-21.468" /><path
         id="path1646"
         style="fill:#fef5e9;fill-opacity:1;fill-rule:nonzero;stroke:none"
         d="m 8510.9862,3075.5614 c 0,18.929 -16.04,34.281 -35.84,34.281 -16.02,0 -29.61,-10.121 -34.16,-24.07 3.04,17.3 18.72,30.488 37.63,30.488 21.12,0 38.22,-16.391 38.22,-36.59 0,-15.449 -9.98,-28.629 -24.15,-34.008 10.93,5.879 18.3,17.059 18.3,29.899" /><path
         id="path1648"
         style="fill:#fef5e9;fill-opacity:1;fill-rule:nonzero;stroke:none"
         d="m 8476.8862,3092.2404 c 0,-4.98 4.21,-9 9.4,-9 5.16,0 9.39,4.02 9.39,9 0,4.961 -4.23,9 -9.39,9 -5.19,0 -9.4,-4.039 -9.4,-9" /><path
         id="path1650"
         style="fill:#fef5e9;fill-opacity:1;fill-rule:nonzero;stroke:none"
         d="m 8489.3962,3077.2404 c 0,-3.32 2.82,-5.988 6.28,-5.988 3.44,0 6.26,2.668 6.26,5.988 0,3.313 -2.82,6 -6.26,6 -3.46,0 -6.28,-2.687 -6.28,-6" /><path
         id="path1652"
         style="fill:#f09562;fill-opacity:1;fill-rule:nonzero;stroke:none"
         d="m 8271.2562,2992.9124 c 0,-14.941 -12.65,-27.051 -28.25,-27.051 -15.6,0 -28.26,12.11 -28.26,27.051 0,14.949 12.66,27.059 28.26,27.059 15.6,0 28.25,-12.11 28.25,-27.059" /><path
         id="path1654"
         style="fill:#f09562;fill-opacity:1;fill-rule:nonzero;stroke:none"
         d="m 8449.1462,2992.9124 c 0,-14.941 -12.66,-27.051 -28.26,-27.051 -15.61,0 -28.28,12.11 -28.28,27.051 0,14.949 12.67,27.059 28.28,27.059 15.6,0 28.26,-12.11 28.26,-27.059" /><path
         id="path1656"
         style="fill:#7a4e34;fill-opacity:1;fill-rule:nonzero;stroke:none"
         d="m 8059.2662,3205.6414 c 6.79,-0.26 13.33,-3.38 20.16,-2.49 0.95,0.13 1.37,1.61 0.25,1.83 -6.71,1.27 -13.58,2.45 -20.41,2.58 -1.24,0.02 -1.23,-1.87 0,-1.92" /><path
         id="path1658"
         style="fill:#7a4e34;fill-opacity:1;fill-rule:nonzero;stroke:none"
         d="m 8075.2562,3226.4214 c 6.31,-1.97 12.27,-5.76 18.89,-6.53 l 0.44,1.62 c -5.94,2.83 -12.43,5.19 -18.78,6.87 -1.28,0.34 -1.8,-1.56 -0.55,-1.96" /><path
         id="path1660"
         style="fill:#7a4e34;fill-opacity:1;fill-rule:nonzero;stroke:none"
         d="m 8087.6462,3253.7614 c 4.9,-1.06 9.28,-3.19 14.04,-4.65 0.95,-0.28 1.3,0.96 0.62,1.47 -4.08,3.13 -9.06,4.51 -14.04,5.42 -1.46,0.28 -2.11,-1.93 -0.62,-2.24" /><path
         id="path1662"
         style="fill:#7a4e34;fill-opacity:1;fill-rule:nonzero;stroke:none"
         d="m 8114.0462,3233.0714 c 4.67,-1.1 8.65,-3.66 13.21,-4.89 l 0.9,1.55 c -3.72,3.12 -8.84,4.51 -13.56,5.35 -1.31,0.23 -1.89,-1.71 -0.55,-2.01" /><path
         id="path1664"
         style="fill:#7a4e34;fill-opacity:1;fill-rule:nonzero;stroke:none"
         d="m 8120.6762,3267.1314 c 4.25,-2.11 8.23,-5.24 12.77,-6.64 1.07,-0.33 1.74,1.03 1.04,1.79 -3.3,3.57 -8.41,5.35 -12.84,7.14 -1.32,0.54 -2.23,-1.67 -0.97,-2.29" /><path
         id="path1666"
         style="fill:#7a4e34;fill-opacity:1;fill-rule:nonzero;stroke:none"
         d="m 8160.4862,3259.5414 c 1.88,-2.25 2.94,-4.67 5.31,-6.38 l 1.53,1.17 c -0.54,2.99 -2.56,5.28 -4.52,7.53 -1.4,1.62 -3.67,-0.71 -2.32,-2.32" /><path
         id="path1668"
         style="fill:#7a4e34;fill-opacity:1;fill-rule:nonzero;stroke:none"
         d="m 8152.5262,3289.2714 c 2.25,-2.64 4.32,-5.53 7.16,-7.56 l 1.02,1.02 c -1.81,2.97 -4.56,5.26 -6.99,7.73 l -1.19,-1.19" /><path
         id="path1670"
         style="fill:#7a4e34;fill-opacity:1;fill-rule:nonzero;stroke:none"
         d="m 8179.3062,3313.0514 c 4.58,-4.04 5.96,-9.94 10.05,-14.17 0.79,-0.8 2.49,-0.26 2.36,0.97 -0.7,6.2 -5.83,11.91 -10.79,15.31 -1.26,0.85 -2.78,-1.12 -1.62,-2.11" /><path
         id="path1672"
         style="fill:#7a4e34;fill-opacity:1;fill-rule:nonzero;stroke:none"
         d="m 8185.1262,3280.7414 c 2.47,-3.52 4.49,-7.8 7.7,-10.69 0.7,-0.64 1.75,-0.02 1.55,0.9 -0.9,4.27 -4.07,7.88 -6.58,11.37 -1.15,1.6 -3.84,0.08 -2.67,-1.58" /><path
         id="path1674"
         style="fill:#7a4e34;fill-opacity:1;fill-rule:nonzero;stroke:none"
         d="m 8211.4662,3330.2814 c 1.82,-3.61 4.01,-7.45 6.98,-10.23 l 1.36,1.05 c -1.6,3.7 -4.47,7.1 -7.21,10.05 l -1.13,-0.87" /><path
         id="path1676"
         style="fill:#7a4e34;fill-opacity:1;fill-rule:nonzero;stroke:none"
         d="m 8218.6962,3296.2114 c 0.75,-5.22 2.41,-11.11 6.66,-14.55 0.68,-0.57 2.02,-0.07 1.64,0.96 -1.8,4.92 -4.8,9.01 -6.05,14.21 -0.36,1.5 -2.46,0.83 -2.25,-0.62" /><path
         id="path1678"
         style="fill:#7a4e34;fill-opacity:1;fill-rule:nonzero;stroke:none"
         d="m 8249.2462,3312.3214 c 0.38,-5.09 0.2,-11.31 3.45,-15.49 l 1.23,0.51 c 0.45,4.94 -1.87,10.41 -3.03,15.21 -0.23,0.91 -1.72,0.73 -1.65,-0.23" /><path
         id="path1680"
         style="fill:#7a4e34;fill-opacity:1;fill-rule:nonzero;stroke:none"
         d="m 8271.3462,3341.3614 c 1.24,-5.04 2.2,-10.08 3.94,-14.99 l 0.8,0.23 c -1.18,5.05 -2.15,10.09 -3.83,15.01 l -0.91,-0.25" /><path
         id="path1682"
         style="fill:#7a4e34;fill-opacity:1;fill-rule:nonzero;stroke:none"
         d="m 8275.5162,3312.3214 c 0.56,-5.28 0.56,-11.56 3.29,-16.25 0.44,-0.76 1.71,-0.46 1.67,0.45 -0.23,5.35 -2.05,10.8 -3.09,16.06 -0.19,1.05 -1.99,0.82 -1.87,-0.26" /><path
         id="path1684"
         style="fill:#7a4e34;fill-opacity:1;fill-rule:nonzero;stroke:none"
         d="m 8245.7162,3341.4814 c 0.7,-5.37 1.5,-11.58 5.11,-15.82 0.84,-0.99 2.1,0.11 1.94,1.14 -0.75,5.07 -3.44,9.94 -4.58,15.02 -0.31,1.36 -2.65,1.08 -2.47,-0.34" /><path
         id="path1686"
         style="fill:#7a4e34;fill-opacity:1;fill-rule:nonzero;stroke:none"
         d="m 8299.5962,3352.3014 c 0.62,-5.37 0.92,-10.86 2.47,-16.05 0.26,-0.88 1.56,-0.7 1.59,0.21 0.14,5.45 -1.23,10.77 -2.25,16.09 -0.18,1.02 -1.93,0.79 -1.81,-0.25" /><path
         id="path1688"
         style="fill:#7a4e34;fill-opacity:1;fill-rule:nonzero;stroke:none"
         d="m 8333.8462,3351.4614 c 0.45,-4.49 -0.17,-9.14 0.76,-13.55 h 1.62 c 0.94,4.5 0.17,9.33 -0.79,13.77 -0.2,0.88 -1.68,0.69 -1.59,-0.22" /><path
         id="path1690"
         style="fill:#7a4e34;fill-opacity:1;fill-rule:nonzero;stroke:none"
         d="m 8368.7462,3346.4614 c -0.07,-2.82 -0.45,-5.74 0.15,-8.51 h 1.32 c 0.6,2.77 0.22,5.69 0.15,8.51 -0.03,1.05 -1.59,1.05 -1.62,0" /><path
         id="path1692"
         style="fill:#7a4e34;fill-opacity:1;fill-rule:nonzero;stroke:none"
         d="m 8415.4062,3337.5014 c -1.01,-5.35 -2.67,-10.53 -3.71,-15.86 l 1.09,-0.31 c 2.13,5.06 3.2,10.39 4.01,15.8 0.12,0.89 -1.22,1.3 -1.39,0.37" /><path
         id="path1694"
         style="fill:#7a4e34;fill-opacity:1;fill-rule:nonzero;stroke:none"
         d="m 8458.0662,3334.3714 c -4.16,-6.29 -5.64,-13.69 -7.05,-20.98 l 1.49,-0.63 c 3.32,6.7 4.55,14 7.05,20.99 l -1.49,0.62" /><path
         id="path1696"
         style="fill:#7a4e34;fill-opacity:1;fill-rule:nonzero;stroke:none"
         d="m 8493.7962,3293.4914 c 3.36,5.96 7.77,11.41 10.68,17.59 l -1.32,1.02 c -4.59,-5.13 -7.96,-11.51 -11.12,-17.57 -0.61,-1.16 1.11,-2.18 1.76,-1.04" /><path
         id="path1698"
         style="fill:#7a4e34;fill-opacity:1;fill-rule:nonzero;stroke:none"
         d="m 8528.5662,3276.1114 c 4.65,3.19 10.01,5.36 14.5,8.72 0.88,0.66 0.4,2.07 -0.76,1.81 -5.54,-1.29 -10.61,-4.77 -15.22,-8.01 -1.53,-1.07 -0.09,-3.6 1.48,-2.52" /><path
         id="path1700"
         style="fill:#7a4e34;fill-opacity:1;fill-rule:nonzero;stroke:none"
         d="m 8567.3862,3247.0314 c 5.44,0.65 10.61,1.78 15.74,3.71 0.86,0.33 0.77,1.63 -0.22,1.65 -5.54,0.11 -10.49,-1.82 -15.83,-3.02 -1.31,-0.29 -1.04,-2.51 0.31,-2.34" /><path
         id="path1702"
         style="fill:#7a4e34;fill-opacity:1;fill-rule:nonzero;stroke:none"
         d="m 8129.0662,3208.4914 c 8.4,0.04 15.2,-4.77 23.28,-5.84 1.54,-0.21 1.8,1.97 0.72,2.67 -6.9,4.54 -15.76,6.99 -24,6.04 -1.8,-0.21 -1.89,-2.88 0,-2.87" /><path
         id="path1704"
         style="fill:#7a4e34;fill-opacity:1;fill-rule:nonzero;stroke:none"
         d="m 8159.2862,3230.2314 c 4.73,-3.47 9.44,-8.28 15.26,-9.74 1.02,-0.26 2.05,1.15 1.1,1.89 -4.71,3.72 -9.9,7.01 -14.8,10.53 -1.63,1.18 -3.17,-1.51 -1.56,-2.68" /><path
         id="path1706"
         style="fill:#7a4e34;fill-opacity:1;fill-rule:nonzero;stroke:none"
         d="m 8205.9062,3247.3314 c 1.67,-3.93 3.82,-7.75 7,-10.65 0.69,-0.63 2.11,-0.02 1.71,0.99 -1.55,3.83 -4,7.15 -5.49,11.02 -0.92,2.38 -4.22,1 -3.22,-1.36" /><path
         id="path1708"
         style="fill:#7a4e34;fill-opacity:1;fill-rule:nonzero;stroke:none"
         d="m 8242.6662,3265.1514 c 2.23,-6.32 4.14,-13.62 7.94,-19.19 0.62,-0.9 2.35,-0.68 2.23,0.6 -0.59,6.76 -3.94,13.33 -6.18,19.68 -0.88,2.49 -4.87,1.42 -3.99,-1.09" /><path
         id="path1710"
         style="fill:#7a4e34;fill-opacity:1;fill-rule:nonzero;stroke:none"
         d="m 8284.4562,3273.6714 c 1.45,-6.22 2.19,-13.05 4.36,-19.02 0.34,-0.98 1.67,-0.78 1.75,0.23 0.57,6.43 -1.99,13.32 -3.45,19.51 -0.41,1.74 -3.06,1 -2.66,-0.72" /><path
         id="path1712"
         style="fill:#7a4e34;fill-opacity:1;fill-rule:nonzero;stroke:none"
         d="m 8312.2362,3315.6614 c 0.8,-7.24 1.87,-14.84 3.59,-21.92 0.23,-0.95 1.78,-1 1.97,0 1.38,7.25 -1.69,14.76 -2.64,21.92 -0.24,1.84 -3.14,1.9 -2.92,0" /><path
         id="path1714"
         style="fill:#7a4e34;fill-opacity:1;fill-rule:nonzero;stroke:none"
         d="m 8349.8762,3301.5114 c 0,-5.31 0.12,-10.53 0.54,-15.83 h 1.01 c 0.42,5.3 0.54,10.52 0.54,15.83 0,1.35 -2.09,1.35 -2.09,0" /><path
         id="path1716"
         style="fill:#7a4e34;fill-opacity:1;fill-rule:nonzero;stroke:none"
         d="m 8398.9862,3293.1814 c -0.7,-6.14 -0.65,-12.17 -0.62,-18.33 l 1.3,-0.17 c 1.35,6.01 1.68,11.98 2.51,18.07 0.31,2.33 -2.91,2.77 -3.19,0.43" /><path
         id="path1718"
         style="fill:#7a4e34;fill-opacity:1;fill-rule:nonzero;stroke:none"
         d="m 8346.0262,3319.8814 c -1.18,-5.03 -1.96,-10.07 -1.17,-15.22 h 1.33 c 0.78,5.02 0.17,10.1 0.32,15.16 l -0.48,0.06" /><path
         id="path1720"
         style="fill:#7a4e34;fill-opacity:1;fill-rule:nonzero;stroke:none"
         d="m 8376.1062,3320.3314 c 1.38,-8.76 -0.65,-18.09 1.44,-26.68 0.32,-1.32 2.33,-1.32 2.65,0 2.15,8.83 -0.28,18.57 -1.67,27.34 -0.25,1.61 -2.67,0.92 -2.42,-0.66" /><path
         id="path1722"
         style="fill:#7a4e34;fill-opacity:1;fill-rule:nonzero;stroke:none"
         d="m 8320.0062,3264.4714 c 3.57,-10.21 2.34,-21.57 6.53,-31.54 0.47,-1.12 2.33,-1.11 2.3,0.31 -0.3,10.76 -2.19,21.92 -5.88,32.03 -0.68,1.84 -3.61,1.07 -2.95,-0.8" /><path
         id="path1724"
         style="fill:#7a4e34;fill-opacity:1;fill-rule:nonzero;stroke:none"
         d="m 8416.2662,3258.5514 c -2.66,-4 -3.92,-8.08 -4.45,-12.83 l 0.83,-0.12 c 1.03,4.31 2.4,8.52 4.81,12.25 l -1.19,0.7" /><path
         id="path1726"
         style="fill:#7a4e34;fill-opacity:1;fill-rule:nonzero;stroke:none"
         d="m 8381.3062,3260.0714 c -1.01,-6.97 -2.7,-13.98 -3.12,-21 l 1.35,-0.18 c 2.58,6.54 2.55,14.07 3.12,20.99 l -1.35,0.19" /><path
         id="path1728"
         style="fill:#7a4e34;fill-opacity:1;fill-rule:nonzero;stroke:none"
         d="m 8438.2462,3312.3214 c -0.12,-8.59 -3.89,-16.33 -5.27,-24.7 -0.18,-1.06 1.31,-1.9 1.85,-0.79 4.01,8.09 6.77,16.36 5.69,25.49 -0.17,1.42 -2.25,1.51 -2.27,0" /><path
         id="path1730"
         style="fill:#7a4e34;fill-opacity:1;fill-rule:nonzero;stroke:none"
         d="m 8469.6962,3282.7614 c -4.48,-9.91 -9.86,-19.25 -13.84,-29.38 l 1.14,-0.49 c 5.31,9.57 10.54,18.88 14.18,29.25 l -1.48,0.62" /><path
         id="path1732"
         style="fill:#7a4e34;fill-opacity:1;fill-rule:nonzero;stroke:none"
         d="m 8495.5062,3253.5114 c -4.12,-6 -9.59,-11.1 -13.02,-17.57 l 0.66,-0.39 c 4.21,5.99 9.21,11.35 13.39,17.36 l -1.03,0.6" /><path
         id="path1734"
         style="fill:#7a4e34;fill-opacity:1;fill-rule:nonzero;stroke:none"
         d="m 8526.3962,3241.3714 c -5.88,-5.8 -13.18,-10.9 -18.01,-17.64 l 1.31,-1.32 c 6.99,4.38 12.63,11.5 17.97,17.69 l -1.27,1.27" /><path
         id="path1736"
         style="fill:#7a4e34;fill-opacity:1;fill-rule:nonzero;stroke:none"
         d="m 8450.4162,3229.4114 c -3.38,-5.31 -8.58,-9.85 -11.13,-15.66 -0.48,-1.08 0.67,-1.95 1.6,-1.23 5.1,4.04 8.02,10.46 10.72,16.21 l -1.19,0.68" /><path
         id="path1738"
         style="fill:#7a4e34;fill-opacity:1;fill-rule:nonzero;stroke:none"
         d="m 8183.0862,3197.7714 c 6.98,-3.32 13.38,-8.55 21.04,-10.152 l 0.53,1.262 c -6.88,3.43 -13.73,7.72 -21.14,9.93 l -0.43,-1.04" /><path
         id="path1740"
         style="fill:#7a4e34;fill-opacity:1;fill-rule:nonzero;stroke:none"
         d="m 8208.2462,3210.8814 c 6.52,-5.08 11.43,-11.88 18.25,-16.52 l 0.8,1.04 c -5.64,5.79 -10.45,13.31 -17.82,17.08 -0.97,0.5 -2.18,-0.86 -1.23,-1.6" /><path
         id="path1742"
         style="fill:#7a4e34;fill-opacity:1;fill-rule:nonzero;stroke:none"
         d="m 8241.0762,3218.9414 c 2.38,-7.07 5.74,-13.6 9.38,-20.09 l 0.87,0.37 c -2.67,6.88 -6.55,13.14 -9.27,20 l -0.98,-0.28" /><path
         id="path1744"
         style="fill:#7a4e34;fill-opacity:1;fill-rule:nonzero;stroke:none"
         d="m 8271.1362,3229.7414 c 2.25,-8.33 4.01,-17.4 7.89,-25.13 l 1.15,0.49 c -2.03,8.41 -5.29,16.67 -7.71,25.01 l -1.33,-0.37" /><path
         id="path1746"
         style="fill:#7a4e34;fill-opacity:1;fill-rule:nonzero;stroke:none"
         d="m 8293.2862,3229.6514 c 1.44,-8.24 1.93,-16.89 4.06,-24.94 0.27,-0.99 1.65,-0.74 1.71,0.22 0.48,8.35 -2.1,17.14 -3.74,25.26 -0.27,1.34 -2.25,0.77 -2.03,-0.54" /><path
         id="path1748"
         style="fill:#7a4e34;fill-opacity:1;fill-rule:nonzero;stroke:none"
         d="m 8339.1962,3226.5714 c -0.12,-6.1 -0.69,-12.23 -0.38,-18.32 l 0.99,-0.14 c 1.72,6 1.23,12.28 1.13,18.46 -0.02,1.12 -1.72,1.12 -1.74,0" /><path
         id="path1750"
         style="fill:#7a4e34;fill-opacity:1;fill-rule:nonzero;stroke:none"
         d="m 8345.4262,3264.0414 c -0.05,-5.03 -0.42,-10.14 0.26,-15.13 h 1.15 c 0.69,4.99 0.32,10.1 0.27,15.13 -0.01,1.08 -1.67,1.08 -1.68,0" /><path
         id="path1752"
         style="fill:#7a4e34;fill-opacity:1;fill-rule:nonzero;stroke:none"
         d="m 8366.8862,3216.5914 c -0.96,-7.48 -3.07,-16.1 -1.24,-23.54 h 1.62 c 1.97,7.44 1.29,15.87 1.83,23.54 0.11,1.46 -2.03,1.38 -2.21,0" /><path
         id="path1754"
         style="fill:#7a4e34;fill-opacity:1;fill-rule:nonzero;stroke:none"
         d="m 8395.1462,3210.9814 c -0.83,-4.51 -1.97,-8.91 -2.9,-13.38 l 1.1,-0.46 c 2.03,4.15 2.56,8.89 3.37,13.41 0.18,1.01 -1.37,1.45 -1.57,0.43" /><path
         id="path1756"
         style="fill:#7a4e34;fill-opacity:1;fill-rule:nonzero;stroke:none"
         d="m 8411.8462,3191.8314 c -1.58,-2.751 -3,-5.598 -4.47,-8.419 l 0.41,-0.242 c 1.77,2.652 3.18,5.512 4.85,8.221 l -0.79,0.44" /><path
         id="path1758"
         style="fill:#7a4e34;fill-opacity:1;fill-rule:nonzero;stroke:none"
         d="m 8289.8862,3164.6704 c 3.76,-7.199 5.14,-15.598 9.31,-22.519 l 1.2,0.511 c -1.82,7.707 -5.41,15.809 -9.41,22.629 l -1.1,-0.621" /><path
         id="path1760"
         style="fill:#7a4e34;fill-opacity:1;fill-rule:nonzero;stroke:none"
         d="m 8311.9962,3181.6194 c 1.24,-9.699 4.14,-19.027 6.4,-28.519 l 1.53,0.211 c 0.33,9.988 -4.02,18.949 -6.05,28.558 -0.22,1.051 -2.02,0.821 -1.88,-0.25" /><path
         id="path1762"
         style="fill:#7a4e34;fill-opacity:1;fill-rule:nonzero;stroke:none"
         d="m 8346.2362,3161.2404 c -1.63,-8 -2.63,-15.859 -1.52,-23.988 h 1.62 c 1.15,7.699 1.58,15.457 3.08,23.109 0.4,2.071 -2.75,2.961 -3.18,0.879" /><path
         id="path1764"
         style="fill:#7a4e34;fill-opacity:1;fill-rule:nonzero;stroke:none"
         d="m 8312.1862,3107.0494 c 0.83,-1.637 1.63,-3.219 2.62,-4.777 l 0.93,0.39 c -0.55,1.739 -1.24,3.387 -1.92,5.09 -0.48,1.199 -2.22,0.469 -1.63,-0.703" /><path
         id="path1766"
         style="fill:#7a4e34;fill-opacity:1;fill-rule:nonzero;stroke:none"
         d="m 8324.4362,3125.5724 c 0.76,-4.671 1.32,-9.511 2.65,-14.062 l 1.17,0.16 c -0.16,4.82 -1.31,9.633 -2.02,14.391 -0.18,1.179 -1.98,0.691 -1.8,-0.489" /><path
         id="path1768"
         style="fill:#7a4e34;fill-opacity:1;fill-rule:nonzero;stroke:none"
         d="m 8326.9362,3088.3814 c -0.14,-7.031 -0.95,-15.172 1.59,-21.859 l 1.42,0.187 c -0.13,7.203 -1.41,14.41 -1.56,21.672 -0.02,0.93 -1.43,0.93 -1.45,0" /><path
         id="path1770"
         style="fill:#7a4e34;fill-opacity:1;fill-rule:nonzero;stroke:none"
         d="m 8348.8062,3115.1624 c -2.74,-9.019 -3.85,-18.222 -3.82,-27.633 l 1.05,-0.148 c 1.52,9.121 1.92,18.43 3.92,27.469 l -1.15,0.312" /><path
         id="path1772"
         style="fill:#7a4e34;fill-opacity:1;fill-rule:nonzero;stroke:none"
         d="m 8371.7362,3145.0224 c -2.73,-8.95 -5.69,-18.161 -7.25,-27.391 l 0.86,-0.238 c 3.04,8.859 4.8,18.379 6.68,27.547 l -0.29,0.082" /><path
         id="path1774"
         style="fill:#7a4e34;fill-opacity:1;fill-rule:nonzero;stroke:none"
         d="m 8394.1462,3170.1004 c -3.57,-7.758 -7.25,-15.707 -8.79,-24.137 l 0.98,-0.281 c 3.1,7.937 5.41,16.187 8.3,24.211 l -0.49,0.207" /><path
         id="path1776"
         style="fill:#7a4e34;fill-opacity:1;fill-rule:nonzero;stroke:none"
         d="m 8369.3962,3176.0294 c -1.39,-8.019 -2.22,-16.269 -2.6,-24.386 l 0.87,-0.121 c 2.35,7.757 2.19,16.039 3.57,24.007 0.21,1.211 -1.63,1.711 -1.84,0.5" /><path
         id="path1778"
         style="fill:#7a4e34;fill-opacity:1;fill-rule:nonzero;stroke:none"
         d="m 8334.4162,3192.4514 c -0.76,-8.121 -2.03,-17.121 -0.54,-25.199 h 1.56 c 1.48,8.078 0.21,17.078 -0.55,25.199 h -0.47" /><path
         id="path1780"
         style="fill:#7a4e34;fill-opacity:1;fill-rule:nonzero;stroke:none"
         d="m 8269.7262,3185.6314 c 0.98,-6.949 3.16,-14.219 7.07,-20.09 l 0.92,0.391 c -1.83,6.75 -4.64,13.379 -6.96,20 l -1.03,-0.301" /><path
         id="path1782"
         style="fill:#7a4e34;fill-opacity:1;fill-rule:nonzero;stroke:none"
         d="m 8242.7562,3174.6114 c 5.18,-5.75 10.77,-12.058 16.79,-16.929 l 1.45,0.847 c -2.98,7.602 -11.95,11.372 -17.55,16.762 l -0.69,-0.68" /><path
         id="path1784"
         style="fill:#7a4e34;fill-opacity:1;fill-rule:nonzero;stroke:none"
         d="m 8269.0962,3138.7724 c 3.42,-3.711 5.37,-8.422 8.39,-12.442 l 1.14,0.492 c -1.9,5.039 -4.52,9.309 -8.77,12.707 l -0.76,-0.757" /><path
         id="path1786"
         style="fill:#7a4e34;fill-opacity:1;fill-rule:nonzero;stroke:none"
         d="m 8290.8862,3128.2404 c 1.09,-5.238 2.88,-10.789 5.93,-15.25 l 1.25,0.532 c -1.43,5.211 -4.33,10.078 -6.59,14.968 l -0.59,-0.25" /><path
         id="path1788"
         style="fill:#7a4e34;fill-opacity:1;fill-rule:nonzero;stroke:none"
         d="m 8445.7862,3202.7514 c -3.35,-4.9 -7.76,-9.08 -10.82,-14.171 l 0.94,-0.719 c 4.24,4.13 7.91,9.19 11.01,14.23 l -1.13,0.66" /><path
         id="path1790"
         style="fill:#7a4e34;fill-opacity:1;fill-rule:nonzero;stroke:none"
         d="m 8417.9262,3230.6714 c -3.14,-6.6 -7.26,-13.35 -9.05,-20.48 -0.3,-1.2 1.24,-1.73 1.91,-0.8 4.25,5.84 6.73,13.24 9.72,19.78 0.79,1.73 -1.75,3.25 -2.58,1.5" /><path
         id="path1792"
         style="fill:#7a4e34;fill-opacity:1;fill-rule:nonzero;stroke:none"
         d="m 8473.6962,3228.1814 c -3.75,-5.49 -7.26,-11.03 -10.22,-17 l 1.31,-1.02 c 5.11,4.64 7.99,10.67 11.61,16.46 1.06,1.72 -1.58,3.2 -2.7,1.56" /><path
         id="path1794"
         style="fill:#7a4e34;fill-opacity:1;fill-rule:nonzero;stroke:none"
         d="m 8476.4462,3322.7914 c -1.3,-3.65 -2.85,-7.28 -3.77,-11.05 -0.23,-1 1.04,-1.46 1.6,-0.68 2.36,3.31 4.08,7.02 5.63,10.77 0.88,2.11 -2.67,3.16 -3.46,0.96" /><path
         id="path1796"
         style="fill:#7a4e34;fill-opacity:1;fill-rule:nonzero;stroke:none"
         d="m 8240.0162,3151.5534 c 2.68,-5.461 4.87,-12.121 8.86,-16.754 0.86,-0.977 2.11,0.102 1.95,1.141 -0.94,6.14 -4.63,12.632 -8.42,17.461 -1.12,1.441 -3.1,-0.391 -2.39,-1.848" /><path
         id="path1798"
         style="fill:#7a4e34;fill-opacity:1;fill-rule:nonzero;stroke:none"
         d="m 8254.5062,3109.0724 c 2.53,-5.89 4.85,-12.742 8.3,-18.089 0.51,-0.813 1.98,-0.571 1.9,0.5 -0.52,6.679 -5.57,12.757 -8.6,18.527 -0.56,1.082 -2.06,0.133 -1.6,-0.938" /><path
         id="path1800"
         style="fill:#7a4e34;fill-opacity:1;fill-rule:nonzero;stroke:none"
         d="m 8270.1462,3110.7334 c 2.02,-5.153 5.15,-10.383 8.3,-14.922 l 1.31,0.558 c -1.24,5.524 -6.18,9.731 -8.62,14.782 l -0.99,-0.418" /><path
         id="path1802"
         style="fill:#7a4e34;fill-opacity:1;fill-rule:nonzero;stroke:none"
         d="m 8273.1062,3081.8424 c 0.68,-2.281 1.72,-4.379 2.68,-6.563 1.35,-3.109 2.19,-6.429 4.24,-9.168 0.78,-1.039 2.27,-0.679 2.4,0.649 0.53,5.582 -3.73,12.281 -7.52,16.133 -0.75,0.758 -2.11,-0.012 -1.8,-1.051" /><path
         id="path1804"
         style="fill:#7a4e34;fill-opacity:1;fill-rule:nonzero;stroke:none"
         d="m 8295.3962,3094.1624 c -0.18,-7.101 2.53,-16.922 6.93,-22.543 0.96,-1.226 2.66,-0.078 2.76,1.141 0.33,3.75 -1.24,7.121 -2.54,10.57 -1.43,3.75 -2.51,7.449 -3.57,11.321 -0.54,2.011 -3.53,1.558 -3.58,-0.489" /><path
         id="path1806"
         style="fill:#7a4e34;fill-opacity:1;fill-rule:nonzero;stroke:none"
         d="m 8354.6662,3082.7914 c -0.06,-3.73 -0.37,-7.25 0.28,-10.941 l 1.75,-0.231 c 2.02,3.563 1.79,7.184 1.74,11.172 -0.03,2.43 -3.73,2.43 -3.77,0" /><path
         id="path1808"
         style="fill:#7a4e34;fill-opacity:1;fill-rule:nonzero;stroke:none"
         d="m 8387.5362,3084.1434 c -2.45,-5.512 -3.72,-11.371 -4.09,-17.383 -0.07,-1.129 1.39,-1.309 1.95,-0.527 3.49,4.98 3.09,11.207 4.6,16.867 0.38,1.441 -1.83,2.472 -2.46,1.043" /><path
         id="path1810"
         style="fill:#7a4e34;fill-opacity:1;fill-rule:nonzero;stroke:none"
         d="m 8374.3062,3100.8614 c -0.49,-4.781 -2.18,-9.691 -0.96,-14.441 0.31,-1.219 2,-1.379 2.63,-0.34 2.62,4.391 2.25,9.84 1.92,14.781 -0.16,2.34 -3.36,2.282 -3.59,0" /><path
         id="path1812"
         style="fill:#7a4e34;fill-opacity:1;fill-rule:nonzero;stroke:none"
         d="m 8404.5662,3111.5414 c -0.59,-6.129 -2.56,-12.582 -1.78,-18.719 0.16,-1.179 1.63,-1.793 2.35,-0.632 3.44,5.582 3.06,13.019 2.59,19.351 -0.14,2.051 -2.98,2.031 -3.16,0" /><path
         id="path1814"
         style="fill:#7a4e34;fill-opacity:1;fill-rule:nonzero;stroke:none"
         d="m 8394.3762,3129.9514 c -1.59,-4.929 -3.32,-10.5 -2.65,-15.718 0.15,-1.301 1.72,-1.524 2.22,-0.313 2.01,4.781 1.84,10.301 2.97,15.332 0.37,1.66 -2.01,2.309 -2.54,0.699" /><path
         id="path1816"
         style="fill:#7a4e34;fill-opacity:1;fill-rule:nonzero;stroke:none"
         d="m 8423.0662,3157.7334 c -3.37,-4.661 -6.1,-11.633 -5.56,-17.442 0.1,-1.129 1.58,-1.691 2.23,-0.601 3,5.082 2.55,11.41 5.81,16.601 1,1.59 -1.42,2.918 -2.48,1.442" /><path
         id="path1818"
         style="fill:#7a4e34;fill-opacity:1;fill-rule:nonzero;stroke:none"
         d="m 8409.7362,3172.0804 c -1.5,-4.16 -3.13,-8.617 -3.22,-13.078 -0.02,-1.019 1.39,-1.359 1.9,-0.512 2.31,3.86 2.66,8.59 3.92,12.871 0.5,1.692 -2.02,2.329 -2.6,0.719" /><path
         id="path1820"
         style="fill:#7a4e34;fill-opacity:1;fill-rule:nonzero;stroke:none"
         d="m 8457.5262,3188.0804 c -3.34,-4.148 -6.15,-8.937 -7.43,-14.148 l 1.42,-0.59 c 2.85,4.199 4.68,8.82 8,12.75 1.16,1.391 -0.86,3.398 -1.99,1.988" /><path
         id="path1822"
         style="fill:#7a4e34;fill-opacity:1;fill-rule:nonzero;stroke:none"
         d="m 8211.8362,3172.1824 c 4.26,-4.391 8.71,-9.34 14.58,-11.442 1.02,-0.347 1.55,0.969 0.97,1.661 -3.86,4.55 -9.3,7.66 -13.81,11.511 -1.19,1.02 -2.85,-0.582 -1.74,-1.73" /><path
         id="path1824"
         style="fill:#7a4e34;fill-opacity:1;fill-rule:nonzero;stroke:none"
         d="m 8105.6262,3200.2914 c 3.3,-0.81 6.59,-1.97 10,-2.01 1.01,-0.01 1.06,1.32 0.23,1.65 -3.08,1.22 -6.51,1.53 -9.78,2.04 -1.07,0.16 -1.56,-1.4 -0.45,-1.68" /><path
         id="path1826"
         style="fill:#7a4e34;fill-opacity:1;fill-rule:nonzero;stroke:none"
         d="m 8045.1162,3221.1314 c 6.94,-0.33 13.3,-3.05 20.23,-3.3 l 0.19,1.35 c -6.58,2.45 -13.41,3.38 -20.42,3.4 -0.93,0 -0.92,-1.4 0,-1.45" /><path
         id="path1828"
         style="fill:#7a4e34;fill-opacity:1;fill-rule:nonzero;stroke:none"
         d="m 8031.8262,3198.8114 c 6.03,-0.51 11.76,-2.77 17.84,-1.65 1.09,0.2 1.36,2 0.32,2.46 -5.7,2.5 -12.01,2.73 -18.16,2.49 -2.13,-0.09 -2.09,-3.12 0,-3.3" /><path
         id="path1830"
         style="fill:#7a4e34;fill-opacity:1;fill-rule:nonzero;stroke:none"
         d="m 8541.0362,3255.1414 c 4.01,3.57 9.27,4.98 13.6,8.04 0.88,0.63 0.33,1.88 -0.72,1.7 -5.36,-0.94 -11.1,-3.81 -14.54,-8.1 -0.91,-1.16 0.51,-2.67 1.66,-1.64" /><path
         id="path1832"
         style="fill:#7a4e34;fill-opacity:1;fill-rule:nonzero;stroke:none"
         d="m 8546.0562,3236.9914 c 2.29,0.63 4.67,0.86 6.92,1.54 v 1.39 c -2.57,0.48 -4.94,-0.31 -7.42,-1.09 -1.18,-0.36 -0.69,-2.17 0.5,-1.84" /><path
         id="path1834"
         style="fill:#7a4e34;fill-opacity:1;fill-rule:nonzero;stroke:none"
         d="m 8597.0262,3240.9414 c 2.39,0.76 4.74,1.39 6.98,2.55 l -0.25,0.94 c -2.49,-0.3 -4.86,-0.87 -7.28,-1.54 -1.26,-0.35 -0.7,-2.35 0.55,-1.95" /><path
         id="path1836"
         style="fill:#7a4e34;fill-opacity:1;fill-rule:nonzero;stroke:none"
         d="m 8570.2962,3270.6414 c 3.12,1.39 6.54,2.25 9.02,4.65 l -0.7,1.69 c -3.51,-0.31 -6.73,-2.15 -9.88,-3.64 -1.84,-0.87 -0.24,-3.5 1.56,-2.7" /><path
         id="path1838"
         style="fill:#7a4e34;fill-opacity:1;fill-rule:nonzero;stroke:none"
         d="m 8517.4862,3290.3514 c 3.36,3.96 7.61,7.79 9.51,12.68 0.41,1.05 -0.82,2.18 -1.85,1.84 -5.36,-1.83 -9.83,-6.86 -11.7,-12.17 -0.8,-2.24 2.49,-4.19 4.04,-2.35" /><path
         id="path1840"
         style="fill:#7a4e34;fill-opacity:1;fill-rule:nonzero;stroke:none"
         d="m 8445.4762,3273.6514 c -1.99,-5.39 -4.55,-12.23 -3.48,-18.01 l 2,-0.53 c 3.82,4.67 4.45,12.39 3.88,18.22 -0.13,1.4 -1.91,1.65 -2.4,0.32" /><path
         id="path1842"
         style="fill:#7a4e34;fill-opacity:1;fill-rule:nonzero;stroke:none"
         d="m 8435.9062,3342.1714 c -1.31,-5.25 -3.26,-11.24 -2.69,-16.68 0.16,-1.54 1.98,-2.13 2.9,-0.78 3.11,4.58 3.22,10.87 4.45,16.17 0.72,3.03 -3.91,4.32 -4.66,1.29" /><path
         id="path1844"
         style="fill:#7a4e34;fill-opacity:1;fill-rule:nonzero;stroke:none"
         d="m 8498.8362,3279.5214 c -4.03,-3.28 -7.61,-7.88 -9.63,-12.68 l 1.25,-0.72 c 3.68,3.55 6.29,8.67 8.75,13.12 l -0.37,0.28" /><path
         id="path1846"
         style="fill:#7a4e34;fill-opacity:1;fill-rule:nonzero;stroke:none"
         d="m 8517.2762,3263.6314 c -2.88,-4.06 -5.1,-8.25 -6.86,-12.89 l 0.93,-0.39 c 2.67,4.04 4.55,8.48 7.07,12.62 l -1.14,0.66" /><path
         id="path1848"
         style="fill:#3a3941;fill-opacity:1;fill-rule:nonzero;stroke:none"
         d="m 8393.1062,3029.2404 c -8.88,-12.679 -23.99,-24.218 -41.62,-30.589 -9.08,-3.282 -29.95,-3.329 -39,-0.051 -17.62,6.351 -32.78,17.859 -41.65,30.543 -5.33,7.59 -17.39,44 61.09,44 78.47,0 66.45,-36.34 61.18,-43.903" /><path
         id="path1850"
         style="fill:#242327;fill-opacity:1;fill-rule:nonzero;stroke:none"
         d="m 8310.7262,2999.2524 c 3.97,3.348 5.92,7.617 5.92,12.309 0,10.652 -9.52,19.289 -31.45,19.289 -5.6,0 -10.39,-0.578 -14.45,-1.61 8.6,-12.269 23.07,-23.5 39.98,-29.988" /><path
         id="path1852"
         style="fill:#242327;fill-opacity:1;fill-rule:nonzero;stroke:none"
         d="m 8393.1062,3029.2404 c -4.06,1.032 -8.85,1.61 -14.46,1.61 -21.93,0 -31.41,-8.637 -31.41,-19.289 0,-4.692 1.91,-8.981 5.86,-12.309 16.96,6.481 31.43,17.719 40.01,29.988" /><path
         id="path1854"
         style="fill:#4a4954;fill-opacity:1;fill-rule:nonzero;stroke:none"
         d="m 8366.4562,3062.1904 c 0,0 -16.67,13.113 -57.8,3.14 -36.06,-8.711 -36.13,-28.109 -33.14,-28.301 3.01,-0.179 25,5.051 39.49,-7.449 14.5,-12.508 -27.31,23.84 51.45,32.61" /></g></g></svg>
