<?xml version="1.0" encoding="UTF-8" standalone="no"?>
<svg
   viewBox="0 0 95.018142 111.67333"
   height="111.67333"
   width="95.018143"
   xml:space="preserve"
   id="svg2"
   version="1.1"
   sodipodi:docname="cat.svg"
   inkscape:version="1.1.2 (b8e25be833, 2022-02-05)"
   xmlns:inkscape="http://www.inkscape.org/namespaces/inkscape"
   xmlns:sodipodi="http://sodipodi.sourceforge.net/DTD/sodipodi-0.dtd"
   xmlns="http://www.w3.org/2000/svg"
   xmlns:svg="http://www.w3.org/2000/svg"
   xmlns:rdf="http://www.w3.org/1999/02/22-rdf-syntax-ns#"
   xmlns:cc="http://creativecommons.org/ns#"
   xmlns:dc="http://purl.org/dc/elements/1.1/"><sodipodi:namedview
     id="namedview8358"
     pagecolor="#ffffff"
     bordercolor="#666666"
     borderopacity="1.0"
     inkscape:pageshadow="2"
     inkscape:pageopacity="0.0"
     inkscape:pagecheckerboard="0"
     showgrid="false"
     inkscape:zoom="1.2117028"
     inkscape:cx="661.05318"
     inkscape:cy="-125.85594"
     inkscape:window-width="2560"
     inkscape:window-height="1361"
     inkscape:window-x="-9"
     inkscape:window-y="-9"
     inkscape:window-maximized="1"
     inkscape:current-layer="g12"
     fit-margin-top="0"
     fit-margin-left="0"
     fit-margin-right="0"
     fit-margin-bottom="0" /><metadata
     id="metadata8"><rdf:RDF><cc:Work
         rdf:about=""><dc:format>image/svg+xml</dc:format><dc:type
           rdf:resource="http://purl.org/dc/dcmitype/StillImage" /></cc:Work></rdf:RDF></metadata><defs
     id="defs6"><clipPath
       id="clipPath542"
       clipPathUnits="userSpaceOnUse"><path
         id="path540"
         d="m 5450.34,694.672 c -0.11,0 -0.23,0.008 -0.34,0.047 -3.4,1.043 -6.74,2.871 -9.78,5.191 1.04,0.942 2.07,1.879 3.11,2.82 2.61,-1.902 5.33,-3.718 7.96,-5.789 0.97,-0.773 0.11,-2.269 -0.95,-2.269" /></clipPath></defs><g
     transform="matrix(1.3333333,0,0,-1.3333333,429.57568,-656.5505)"
     id="g10"><g
       transform="scale(0.1)"
       id="g12"><path
         id="path7344-2"
         style="fill:#303130;fill-opacity:1;fill-rule:nonzero;stroke:none"
         d="m -3059.5304,-5761.6789 h 90.6133 v 159.363 h -90.6133 z" /><path
         id="path7354-7"
         style="fill:#303130;fill-opacity:1;fill-rule:nonzero;stroke:none"
         d="m -2955.6604,-5761.6789 h 90.6094 v 159.363 h -90.6094 z" /><path
         id="path7364-3"
         style="fill:#353636;fill-opacity:1;fill-rule:nonzero;stroke:none"
         d="m -3057.3004,-5367.7589 c -8.34,0.76 -64.9,13.73 -117.77,-63.16 -43.18,-62.78 -58.54,-86.28 -37.23,-100.97 21.33,-14.69 51.48,-33.61 68.79,-0.78 17.34,32.85 44.78,120.11 90.77,147.17 14.1,8.33 3.78,17.01 -4.56,17.74" /><path
         id="path7366-6"
         style="fill:#c7bbb1;fill-opacity:1;fill-rule:nonzero;stroke:none"
         d="m -3151.6704,-5523.2089 c -7.35,3.02 -16.63,-1.99 -20.78,-11.19 -0.08,-0.2 6.36,15.55 -6.55,20.42 -12.89,4.88 -20.33,-9.59 -20.1,-9.11 4.1,9.19 1.52,19.08 -5.83,22.12 -4.77,1.95 -10.31,0.45 -14.75,-3.3 -4.28,-12.78 -2.09,-21.06 7.38,-27.62 21.05,-14.5 50.74,-33.11 68.14,-1.95 -0.68,4.86 -3.27,8.9 -7.51,10.63" /><path
         id="path7368-9"
         style="fill:#353636;fill-opacity:1;fill-rule:nonzero;stroke:none"
         d="m -2867.1404,-5367.7589 c 8.3,0.76 64.87,13.73 117.75,-63.16 43.15,-62.78 58.52,-86.28 37.22,-100.97 -21.3,-14.69 -51.49,-33.61 -68.79,-0.78 -17.32,32.85 -44.78,120.11 -90.75,147.17 -14.15,8.33 -3.79,17.01 4.57,17.74" /><path
         id="path7370-2"
         style="fill:#c7bbb1;fill-opacity:1;fill-rule:nonzero;stroke:none"
         d="m -2772.8004,-5523.2089 c 7.33,3.02 16.63,-1.99 20.75,-11.19 0.1,-0.2 -6.34,15.55 6.58,20.42 12.9,4.88 20.33,-9.59 20.12,-9.11 -4.12,9.19 -1.52,19.08 5.84,22.12 4.76,1.95 10.29,0.45 14.75,-3.3 4.28,-12.78 2.07,-21.06 -7.41,-27.62 -21.05,-14.5 -50.75,-33.11 -68.15,-1.95 0.69,4.86 3.3,8.9 7.52,10.63" /><path
         id="path7372-5"
         style="fill:#282827;fill-opacity:1;fill-rule:nonzero;stroke:none"
         d="m -2512.7604,-5219.0589 c 4.68,-7.52 4.93,-17.28 -0.2,-25.11 -6.91,-10.56 -21.08,-13.69 -32.03,-7.23 -7.26,1.52 -32.56,-5.9 -49.91,-27.66 -20.57,-25.74 -6.63,-54.77 1.21,-97.05 59.83,-322.39 -286.51,-241.84 -286.51,-241.84 -11.39,-6.39 -25.88,-2.6 -32.6,8.93 -6.61,11.29 -2.76,25.63 8.58,32.05 4.67,2.64 317.37,-55.59 258.49,188.13 -16.36,67.77 -18.25,112.19 26.24,153.1 27.68,25.55 72.47,41.55 99.36,24.16 3.07,-1.99 5.54,-4.55 7.37,-7.48" /><path
         id="path7374-2"
         style="fill:#393a3a;fill-opacity:1;fill-rule:nonzero;stroke:none"
         d="m -2795.5104,-5511.2189 c 0,-88.13 -74.64,-159.61 -166.73,-159.61 -92.07,0 -166.72,71.48 -166.72,159.61 0,71.24 34.49,182.12 107.78,222.09 17.43,9.5 37.06,14.98 58.94,14.98 113.91,0 166.73,-148.9 166.73,-237.07" /><path
         id="path7376-6"
         style="fill:#f1e3d6;fill-opacity:1;fill-rule:nonzero;stroke:none"
         d="m -2865.3204,-5532.6689 c 0,-61.47 -43.39,-111.29 -96.92,-111.29 -53.51,0 -96.92,49.82 -96.92,111.29 0,61.48 30.71,165.29 96.92,165.29 66.22,0 96.92,-103.81 96.92,-165.29" /><path
         id="path7378-7"
         style="fill:#454747;fill-opacity:1;fill-rule:nonzero;stroke:none"
         d="m -2723.1404,-5214.5289 c -22.05,-73.83 -81.2,-157.85 -239.1,-157.85 -157.89,0 -223.8,80.1 -239.09,157.85 -15.22,77.75 -21.44,242.64 239.09,242.64 260.55,0 261.11,-168.81 239.1,-242.64" /><path
         id="path7380-7"
         style="fill:#c1b6a3;fill-opacity:1;fill-rule:nonzero;stroke:none"
         d="m -2964.1704,-5331.8589 c -5.83,-3.05 -11.96,-4.74 -17.53,-5.66 2.94,-6.67 9.85,-11.35 17.89,-11.35 7.94,0 14.81,4.63 17.8,11.26 -5.73,0.87 -12.08,2.57 -18.16,5.75" /><path
         id="path7382-3"
         style="fill:#f1e3d6;fill-opacity:1;fill-rule:nonzero;stroke:none"
         d="m -2927.0804,-5264.2289 c -21.97,0 -52.21,0 -74.18,0 -25.73,0 -37.54,-16.9 -37.54,-36.98 0,-20.07 16.72,-36.36 37.54,-36.91 v -0.03 c 0,0 19.81,-2.75 37.09,6.29 17.29,-9.04 37.09,-6.29 37.09,-6.29 v 0.03 c 20.82,0.55 37.52,16.84 37.52,36.91 0,20.08 -11.76,36.98 -37.52,36.98" /><path
         id="path7384-5"
         style="fill:#1c0b0f;fill-opacity:1;fill-rule:nonzero;stroke:none"
         d="m -2964.1704,-5331.8589 c -1.72,7.83 -1.82,15.67 -2.08,23.5 0.25,7.84 0.36,15.68 2.08,23.51 1.73,-7.83 1.84,-15.67 2.08,-23.51 -0.25,-7.83 -0.36,-15.67 -2.08,-23.5" /><path
         id="path7386-7"
         style="fill:#e56286;fill-opacity:1;fill-rule:nonzero;stroke:none"
         d="m -2938.6004,-5268.9689 c 0,-7.99 -13.74,-20.51 -25.2,-20.51 -11.47,0 -22.9,12.52 -22.9,20.51 0,7.96 6.74,8.43 15.08,8.43 h 17.95 c 8.31,0 15.07,-0.47 15.07,-8.43" /><path
         id="path7388-5"
         style="fill:#1c0b0f;fill-opacity:1;fill-rule:nonzero;stroke:none"
         d="m -3014.3504,-5287.4989 c 0,-1.03 -0.87,-1.89 -1.97,-1.89 -1.12,0 -1.98,0.86 -1.98,1.89 0,1.04 0.86,1.89 1.98,1.89 1.1,0 1.97,-0.85 1.97,-1.89" /><path
         id="path7390-9"
         style="fill:#1c0b0f;fill-opacity:1;fill-rule:nonzero;stroke:none"
         d="m -3000.5804,-5286.4389 c 0,-1.04 -0.88,-1.88 -1.95,-1.88 -1.1,0 -2.01,0.84 -2.01,1.88 0,1.03 0.91,1.9 2.01,1.9 1.07,0 1.95,-0.87 1.95,-1.9" /><path
         id="path7392-3"
         style="fill:#1c0b0f;fill-opacity:1;fill-rule:nonzero;stroke:none"
         d="m -3007.0304,-5296.0889 c 0,-1.06 -0.89,-1.88 -1.99,-1.88 -1.05,0 -1.94,0.82 -1.94,1.88 0,1.05 0.89,1.88 1.94,1.88 1.1,0 1.99,-0.83 1.99,-1.88" /><path
         id="path7394-9"
         style="fill:#1c0b0f;fill-opacity:1;fill-rule:nonzero;stroke:none"
         d="m -3010.9604,-5306.3589 c 0,-1.05 -0.91,-1.92 -2,-1.92 -1.08,0 -1.98,0.87 -1.98,1.92 0,1.06 0.9,1.88 1.98,1.88 1.09,0 2,-0.82 2,-1.88" /><path
         id="path7396-3"
         style="fill:#1c0b0f;fill-opacity:1;fill-rule:nonzero;stroke:none"
         d="m -2994.5704,-5304.8989 c 0,-1.02 -0.89,-1.87 -1.97,-1.87 -1.09,0 -1.99,0.85 -1.99,1.87 0,1.05 0.9,1.91 1.99,1.91 1.08,0 1.97,-0.86 1.97,-1.91" /><path
         id="path7398-5"
         style="fill:#1c0b0f;fill-opacity:1;fill-rule:nonzero;stroke:none"
         d="m -3018.8904,-5299.8789 c 0,-1.03 -0.89,-1.87 -1.97,-1.87 -1.09,0 -1.98,0.84 -1.98,1.87 0,1.06 0.89,1.91 1.98,1.91 1.08,0 1.97,-0.85 1.97,-1.91" /><path
         id="path7400-0"
         style="fill:#1c0b0f;fill-opacity:1;fill-rule:nonzero;stroke:none"
         d="m -2993.0004,-5294.5289 c 0,-1.05 -0.87,-1.87 -1.96,-1.87 -1.11,0 -1.98,0.82 -1.98,1.87 0,1.07 0.87,1.9 1.98,1.9 1.09,0 1.96,-0.83 1.96,-1.9" /><path
         id="path7402-5"
         style="fill:#1c0b0f;fill-opacity:1;fill-rule:nonzero;stroke:none"
         d="m -2914.4304,-5287.4989 c 0,-1.03 0.9,-1.89 1.99,-1.89 1.08,0 1.97,0.86 1.97,1.89 0,1.04 -0.89,1.89 -1.97,1.89 -1.09,0 -1.99,-0.85 -1.99,-1.89" /><path
         id="path7404-0"
         style="fill:#1c0b0f;fill-opacity:1;fill-rule:nonzero;stroke:none"
         d="m -2928.2304,-5286.4389 c 0,-1.04 0.9,-1.88 1.96,-1.88 1.12,0 1.99,0.84 1.99,1.88 0,1.03 -0.87,1.9 -1.99,1.9 -1.06,0 -1.96,-0.87 -1.96,-1.9" /><path
         id="path7406-5"
         style="fill:#1c0b0f;fill-opacity:1;fill-rule:nonzero;stroke:none"
         d="m -2921.7704,-5296.0889 c 0,-1.06 0.91,-1.88 1.99,-1.88 1.1,0 2,0.82 2,1.88 0,1.05 -0.9,1.88 -2,1.88 -1.08,0 -1.99,-0.83 -1.99,-1.88" /><path
         id="path7408-7"
         style="fill:#1c0b0f;fill-opacity:1;fill-rule:nonzero;stroke:none"
         d="m -2917.7804,-5306.3589 c 0,-1.05 0.87,-1.92 1.93,-1.92 1.11,0 2.01,0.87 2.01,1.92 0,1.06 -0.9,1.88 -2.01,1.88 -1.06,0 -1.93,-0.82 -1.93,-1.88" /><path
         id="path7410-6"
         style="fill:#1c0b0f;fill-opacity:1;fill-rule:nonzero;stroke:none"
         d="m -2934.2104,-5304.8989 c 0,-1.02 0.87,-1.87 1.97,-1.87 1.1,0 1.97,0.85 1.97,1.87 0,1.05 -0.87,1.91 -1.97,1.91 -1.1,0 -1.97,-0.86 -1.97,-1.91" /><path
         id="path7412-7"
         style="fill:#1c0b0f;fill-opacity:1;fill-rule:nonzero;stroke:none"
         d="m -2909.9204,-5299.8789 c 0,-1.03 0.89,-1.87 1.99,-1.87 1.1,0 1.97,0.84 1.97,1.87 0,1.06 -0.87,1.91 -1.97,1.91 -1.1,0 -1.99,-0.85 -1.99,-1.91" /><path
         id="path7414-9"
         style="fill:#1c0b0f;fill-opacity:1;fill-rule:nonzero;stroke:none"
         d="m -2935.8004,-5294.5289 c 0,-1.05 0.89,-1.87 1.99,-1.87 1.07,0 1.98,0.82 1.98,1.87 0,1.07 -0.91,1.9 -1.98,1.9 -1.1,0 -1.99,-0.83 -1.99,-1.9" /><path
         id="path7416-8"
         style="fill:#b13557;fill-opacity:1;fill-rule:nonzero;stroke:none"
         d="m -2964.1704,-5331.8589 c -3.94,-2.03 -8.01,-3.5 -11.95,-4.51 2.3,-4.25 6.92,-7.22 12.31,-7.22 5.27,0 9.84,2.9 12.17,7.09 -4.11,1.01 -8.4,2.49 -12.53,4.64" /><path
         id="path7418-1"
         style="fill:#363737;fill-opacity:1;fill-rule:nonzero;stroke:none"
         d="m -2747.6804,-5065.6789 c 67.15,55.37 17.26,141.55 17.26,141.55 0,0 -3.99,-14.56 -22.39,-19.92 -21.51,-6.26 -66.63,-20.71 -79.11,-61.18 33.37,-15.49 61.2,-36.49 84.24,-60.45" /><path
         id="path7420-2"
         style="fill:#1b1a19;fill-opacity:1;fill-rule:nonzero;stroke:none"
         d="m -2756.8404,-5056.5389 c 25.93,16.32 29.35,80.71 15.22,86.81 -25.89,11.17 -75.51,-29.84 -77.82,-41.65 23.75,-12.56 44.55,-27.94 62.6,-45.16" /><path
         id="path7422-0"
         style="fill:#363737;fill-opacity:1;fill-rule:nonzero;stroke:none"
         d="m -3174.2704,-5065.6789 c -67.15,55.37 -17.27,141.55 -17.27,141.55 0,0 4,-14.56 22.41,-19.92 21.49,-6.26 66.63,-20.71 79.09,-61.18 -33.34,-15.49 -61.19,-36.49 -84.23,-60.45" /><path
         id="path7424-0"
         style="fill:#1b1a19;fill-opacity:1;fill-rule:nonzero;stroke:none"
         d="m -3165.1104,-5056.5389 c -25.9,16.32 -29.38,80.71 -15.24,86.81 25.9,11.17 75.51,-29.84 77.85,-41.65 -23.77,-12.56 -44.55,-27.94 -62.61,-45.16" /><path
         id="path7426-5"
         style="fill:#fffbfd;fill-opacity:1;fill-rule:nonzero;stroke:none"
         d="m -3069.5704,-5227.5489 c 0,-11.98 -10.17,-21.76 -22.73,-21.76 -12.54,0 -22.71,9.78 -22.71,21.76 0,12.03 10.17,21.78 22.71,21.78 12.56,0 22.73,-9.75 22.73,-21.78" /><path
         id="path7428-9"
         style="fill:#212121;fill-opacity:1;fill-rule:nonzero;stroke:none"
         d="m -3096.8104,-5230.1589 c -2.48,0 -4.51,1.94 -4.51,4.34 0,2.4 2.03,4.36 4.51,4.36 2.51,0 4.51,-1.96 4.51,-4.36 0,-2.4 -2,-4.34 -4.51,-4.34 z m -2.2,-5.38 c -1.25,0 -2.28,0.97 -2.28,2.2 0,1.23 1.03,2.21 2.28,2.21 1.3,0 2.31,-0.98 2.31,-2.21 0,-1.23 -1.01,-2.2 -2.31,-2.2 z m 6.36,16.72 c -8.35,0 -12.39,-5.84 -12.39,-11.85 0,-6.53 5.52,-11.85 12.39,-11.85 6.81,0 12.35,5.32 12.35,11.85 0,6.56 -5.54,11.85 -12.35,11.85" /><path
         id="path7430-8"
         style="fill:#1c201f;fill-opacity:1;fill-rule:nonzero;stroke:none"
         d="m -3125.4404,-5206.8689 c -0.15,0 -0.3,0.02 -0.45,0.04 -1.41,0.25 -2.34,1.6 -2.09,3 1.84,10.53 11.01,17.96 22.38,17.96 0.04,0 0.08,0 0.12,0 3.15,0 6.47,-0.55 9.87,-1.71 1.35,-0.47 2.06,-1.94 1.6,-3.29 -0.37,-1.07 -1.37,-1.74 -2.44,-1.74 -0.28,0 -0.56,0.05 -0.84,0.14 -2.89,0.99 -5.63,1.43 -8.19,1.43 -9.24,-0.05 -15.94,-5.64 -17.41,-13.69 v -0.01 c -0.23,-1.25 -1.32,-2.13 -2.55,-2.13" /><path
         id="path7432-0"
         style="fill:#fffbfd;fill-opacity:1;fill-rule:nonzero;stroke:none"
         d="m -2868.2704,-5227.5489 c 0,-11.98 10.17,-21.76 22.74,-21.76 12.55,0 22.72,9.78 22.72,21.76 0,12.03 -10.17,21.78 -22.72,21.78 -12.57,0 -22.74,-9.75 -22.74,-21.78" /><path
         id="path7434-9"
         style="fill:#212121;fill-opacity:1;fill-rule:nonzero;stroke:none"
         d="m -2845.5304,-5225.8189 c 0,2.4 2,4.36 4.52,4.36 2.49,0 4.53,-1.96 4.53,-4.36 0,-2.4 -2.04,-4.34 -4.53,-4.34 -2.52,0 -4.52,1.94 -4.52,4.34 z m 4.37,-7.52 c 0,1.23 1.04,2.21 2.34,2.21 1.27,0 2.28,-0.98 2.28,-2.21 0,-1.23 -1.01,-2.2 -2.28,-2.2 -1.3,0 -2.34,0.97 -2.34,2.2 z m -16.39,2.67 c 0,-6.53 5.55,-11.85 12.38,-11.85 6.85,0 12.37,5.32 12.37,11.85 0,6.01 -4.03,11.85 -12.37,11.85 -6.83,0 -12.38,-5.29 -12.38,-11.85" /><path
         id="path7436-9"
         style="fill:#1c201f;fill-opacity:1;fill-rule:nonzero;stroke:none"
         d="m -2812.3804,-5206.8689 c -1.23,0 -2.32,0.88 -2.54,2.13 -1.48,8.06 -8.19,13.65 -17.45,13.7 -2.56,0 -5.32,-0.44 -8.19,-1.43 -0.28,-0.1 -0.56,-0.14 -0.84,-0.14 -1.08,0 -2.08,0.67 -2.45,1.74 -0.46,1.35 0.26,2.83 1.61,3.29 3.39,1.16 6.72,1.71 9.87,1.71 0.04,0 0.09,0 0.13,0 11.38,0 20.55,-7.43 22.4,-17.96 v 0 c 0.25,-1.4 -0.68,-2.74 -2.09,-3 -0.15,-0.02 -0.3,-0.04 -0.45,-0.04" /></g></g></svg>
