<?xml version="1.0" encoding="UTF-8" standalone="no"?>
<svg
   viewBox="0 0 162.39677 157.0228"
   height="157.0228"
   width="162.39677"
   xml:space="preserve"
   id="svg2"
   version="1.1"
   sodipodi:docname="elephant.svg"
   inkscape:version="1.1.2 (b8e25be833, 2022-02-05)"
   xmlns:inkscape="http://www.inkscape.org/namespaces/inkscape"
   xmlns:sodipodi="http://sodipodi.sourceforge.net/DTD/sodipodi-0.dtd"
   xmlns="http://www.w3.org/2000/svg"
   xmlns:svg="http://www.w3.org/2000/svg"
   xmlns:rdf="http://www.w3.org/1999/02/22-rdf-syntax-ns#"
   xmlns:cc="http://creativecommons.org/ns#"
   xmlns:dc="http://purl.org/dc/elements/1.1/"><sodipodi:namedview
     id="namedview8358"
     pagecolor="#ffffff"
     bordercolor="#666666"
     borderopacity="1.0"
     inkscape:pageshadow="2"
     inkscape:pageopacity="0.0"
     inkscape:pagecheckerboard="0"
     showgrid="false"
     inkscape:zoom="1.2117028"
     inkscape:cx="104.81118"
     inkscape:cy="25.996473"
     inkscape:window-width="2560"
     inkscape:window-height="1361"
     inkscape:window-x="-9"
     inkscape:window-y="-9"
     inkscape:window-maximized="1"
     inkscape:current-layer="g12"
     fit-margin-top="0"
     fit-margin-left="0"
     fit-margin-right="0"
     fit-margin-bottom="0" /><metadata
     id="metadata8"><rdf:RDF><cc:Work
         rdf:about=""><dc:format>image/svg+xml</dc:format><dc:type
           rdf:resource="http://purl.org/dc/dcmitype/StillImage" /></cc:Work></rdf:RDF></metadata><defs
     id="defs6"><clipPath
       id="clipPath542"
       clipPathUnits="userSpaceOnUse"><path
         id="path540"
         d="m 5450.34,694.672 c -0.11,0 -0.23,0.008 -0.34,0.047 -3.4,1.043 -6.74,2.871 -9.78,5.191 1.04,0.942 2.07,1.879 3.11,2.82 2.61,-1.902 5.33,-3.718 7.96,-5.789 0.97,-0.773 0.11,-2.269 -0.95,-2.269" /></clipPath></defs><g
     transform="matrix(1.3333333,0,0,-1.3333333,-357.06584,-859.31104)"
     id="g10"><g
       transform="scale(0.1)"
       id="g12"><path
         id="path7288"
         style="fill:#2a2c2b;fill-opacity:1;fill-rule:nonzero;stroke:none"
         d="m 3520.9655,-7495.221 -2.7,5.63 c 0,0 11.73,-9.57 37.24,-8.62 25.52,0.92 33.17,-9.61 33.17,-9.61 0,0 1.44,23.56 -14.6,39.12 0,0 5.76,-0.71 8.78,-2.92 0,0 -4.93,22.69 -26.82,34.29 0,0 6.1,1.32 12.29,-1.93 0,0 -35.89,27.09 -62.99,-6.28 0,0 -20.13,-34.67 15.63,-49.68" /><path
         id="path7290"
         style="fill:#444a49;fill-opacity:1;fill-rule:nonzero;stroke:none"
         d="m 3523.2755,-7459.961 c -5.58,-1.91 -11.74,0.86 -13.71,6.19 -0.25,0.62 -0.64,1.3 -2.17,1.76 -3.33,1.05 -10.2,0.33 -18.64,-5.14 -9.17,-5.96 -17.1,-5.22 -22.16,-3.57 -14.05,4.52 -20.3,20.63 -21.41,23.83 -1.88,5.37 1.01,11.14 6.79,13.01 5.59,1.77 11.63,-1.11 13.54,-6.44 1.6,-4.5 5.35,-10.14 7.96,-10.96 l 3.23,1.12 c 12.78,8.31 26.43,11.11 37.38,7.7 7.46,-2.36 13.05,-7.43 15.64,-14.35 2.03,-5.35 -0.88,-11.21 -6.45,-13.15" /><path
         id="path7292"
         style="fill:#707d7b;fill-opacity:1;fill-rule:nonzero;stroke:none"
         d="m 3149.8555,-7082.151 c -11.9,1.09 -92.36,19.54 -167.59,-89.85 -61.41,-89.32 -83.27,-122.78 -52.96,-143.66 30.34,-20.89 73.24,-47.83 97.9,-1.14 24.62,46.73 63.68,170.96 129.05,209.4 20.15,11.85 5.43,24.19 -6.4,25.25" /><path
         id="path7294"
         style="fill:#889996;fill-opacity:1;fill-rule:nonzero;stroke:none"
         d="m 3015.5955,-7303.291 c -10.46,4.29 -23.69,-2.84 -29.55,-15.95 -0.14,-0.28 9,22.1 -9.34,29.06 -18.39,6.94 -28.92,-13.65 -28.65,-13 5.9,13.11 2.14,27.18 -8.28,31.5 -6.76,2.76 -14.65,0.63 -20.98,-4.73 -6.11,-18.11 -2.97,-29.96 10.51,-39.25 29.98,-20.65 72.17,-47.13 96.97,-2.78 -1.01,6.93 -4.71,12.65 -10.68,15.15" /><path
         id="path7296"
         style="fill:#707d7b;fill-opacity:1;fill-rule:nonzero;stroke:none"
         d="m 3420.3355,-7082.151 c 11.85,1.09 92.33,19.54 167.54,-89.85 61.44,-89.32 83.27,-122.78 52.96,-143.66 -30.28,-20.89 -73.25,-47.83 -97.87,-1.14 -24.65,46.73 -63.72,170.96 -129.08,209.4 -20.15,11.85 -5.42,24.19 6.45,25.25" /><path
         id="path7298"
         style="fill:#889996;fill-opacity:1;fill-rule:nonzero;stroke:none"
         d="m 3554.5755,-7303.291 c 10.45,4.29 23.66,-2.84 29.55,-15.95 0.11,-0.28 -9.02,22.1 9.38,29.06 18.32,6.94 28.89,-13.65 28.59,-13 -5.85,13.11 -2.17,27.18 8.27,31.5 6.81,2.76 14.7,0.63 21.02,-4.73 6.08,-18.11 2.99,-29.96 -10.55,-39.25 -29.95,-20.65 -72.16,-47.13 -96.92,-2.78 0.95,6.93 4.64,12.65 10.66,15.15" /><path
         id="path7302"
         style="fill:#707d7b;fill-opacity:1;fill-rule:nonzero;stroke:none"
         d="m 3149.3855,-7415.901 v -191.4 c 3.97,7.09 10.36,11.87 17.87,12.09 12.3,0.37 22.67,-11.44 23.84,-26.65 l 0.33,-0.1 c 0.59,5.33 3.91,23.65 22.49,24.73 22.09,1.31 23.95,-25.6 23.93,-25.27 -0.56,15.96 9.37,29.24 22.12,29.63 7.38,0.19 13.95,-3.94 18.35,-10.52 v 187.49 h -128.93" /><path
         id="path7306"
         style="fill:#707d7b;fill-opacity:1;fill-rule:nonzero;stroke:none"
         d="m 3297.0955,-7415.901 v -191.4 c 3.94,7.09 10.35,11.87 17.85,12.09 12.31,0.37 22.68,-11.44 23.86,-26.65 l 0.31,-0.1 c 0.65,5.33 3.94,23.65 22.54,24.73 22.07,1.31 23.91,-25.6 23.87,-25.27 -0.51,15.96 9.39,29.24 22.15,29.63 7.34,0.19 13.91,-3.94 18.38,-10.52 v 187.49 h -128.96" /><path
         id="path7308"
         style="fill:#788784;fill-opacity:1;fill-rule:nonzero;stroke:none"
         d="m 3525.0255,-7286.221 c 0,-125.44 -106.2,-227.12 -237.19,-227.12 -131.03,0 -237.22,101.68 -237.22,227.12 0,125.42 75.15,337.26 237.22,337.26 162.03,0 237.19,-211.84 237.19,-337.26" /><path
         id="path7310"
         style="fill:#b3beba;fill-opacity:1;fill-rule:nonzero;stroke:none"
         d="m 3453.2055,-7316.801 c 0,-87.42 -74.07,-158.32 -165.37,-158.32 -91.37,0 -165.39,70.9 -165.39,158.32 0,87.49 52.39,235.17 165.39,235.17 112.96,0 165.37,-147.68 165.37,-235.17" /><path
         id="path7312"
         style="fill:#849492;fill-opacity:1;fill-rule:nonzero;stroke:none"
         d="m 3736.1555,-6456.891 c -156.11,45.8 -255.61,-48.75 -319.14,-118.13 126.35,-53.45 163.03,-187.91 163.03,-308.63 0,-39.23 -12.86,-72.51 -33.54,-100.42 296.84,-133.88 510.49,433.1 189.65,527.18" /><path
         id="path7314"
         style="fill:#687471;fill-opacity:1;fill-rule:nonzero;stroke:none"
         d="m 3692.2355,-6530.681 c -87.28,23 -168.04,-21.57 -226.54,-71.93 87.32,-63.96 114.35,-177.51 114.35,-281.04 0,-35.04 -10.3,-65.31 -27.22,-91.26 246.39,-100.43 407.85,373.39 139.41,444.23" /><path
         id="path7316"
         style="fill:#849492;fill-opacity:1;fill-rule:nonzero;stroke:none"
         d="m 2837.7855,-6456.891 c 156.14,45.8 255.67,-48.75 319.16,-118.13 -126.32,-53.45 -163.02,-187.91 -163.02,-308.63 0,-39.23 12.86,-72.51 33.52,-100.42 -296.85,-133.88 -510.45,433.1 -189.66,527.18" /><path
         id="path7318"
         style="fill:#687471;fill-opacity:1;fill-rule:nonzero;stroke:none"
         d="m 2881.7155,-6530.681 c 87.3,23 168.03,-21.57 226.57,-71.93 -87.36,-63.96 -114.36,-177.51 -114.36,-281.04 0,-35.04 10.3,-65.31 27.19,-91.26 -246.35,-100.43 -407.84,373.39 -139.4,444.23" /><path
         id="path7320"
         style="fill:#8fa19e;fill-opacity:1;fill-rule:nonzero;stroke:none"
         d="m 3714.6955,-7114.061 c 2.85,9.92 6.89,33.63 -5.86,40.5 -14.92,8.07 -18.32,-5.34 -25.81,-6.75 -38.15,-7.27 -78.83,39.14 -131.94,92.62 3.85,5.97 3.63,6.04 6.81,12.29 9.12,16.88 16.69,35.11 22.15,54.79 39.7,142.76 44.11,374.38 -292.95,374.38 -337.05,0 -338.16,-227.41 -292.99,-374.38 36.41,-118.43 141.94,-186.47 230.19,-209.25 10.59,-18.24 32.68,-40.48 76.96,-36.78 43.27,3.59 61.4,25.23 69.01,42.38 15.48,4.97 37.1,14.61 60.49,27.99 11.46,3.28 24.19,5.97 39.8,7.2 46.37,3.69 71.34,-11.79 93.49,-27.28 30.37,-21.24 55.44,-42.48 123.16,-14.23 0,0 4.66,-18.34 18.24,-11.65 16.17,7.99 6.36,18.23 9.25,28.17" /><path
         id="path7322"
         style="fill:#4e5655;fill-opacity:1;fill-rule:nonzero;stroke:none"
         d="m 3282.9955,-7119.401 c -12.59,1.24 -24.02,3.36 -34.52,6.09 4.12,-10.91 16.7,-32.96 50.54,-30.12 25.41,2.1 36.58,14.39 41.53,24.63 -15.58,-2.48 -34.21,-2.92 -57.55,-0.6" /><path
         id="path7324"
         style="fill:#fffbfd;fill-opacity:1;fill-rule:nonzero;stroke:none"
         d="m 3140.1255,-6890.901 c 0,-14 -11.88,-25.36 -26.5,-25.36 -14.59,0 -26.49,11.36 -26.49,25.36 0,13.99 11.9,25.33 26.49,25.33 14.62,0 26.5,-11.34 26.5,-25.33" /><path
         id="path7326"
         style="fill:#212121;fill-opacity:1;fill-rule:nonzero;stroke:none"
         d="m 3108.3455,-6893.961 c -2.9,0 -5.25,2.26 -5.25,5.03 0,2.82 2.35,5.1 5.25,5.1 2.93,0 5.28,-2.28 5.28,-5.1 0,-2.77 -2.35,-5.03 -5.28,-5.03 z m -2.54,-6.26 c -1.5,0 -2.67,1.14 -2.67,2.55 0,1.43 1.17,2.59 2.67,2.59 1.5,0 2.7,-1.16 2.7,-2.59 0,-1.41 -1.2,-2.55 -2.7,-2.55 z m 7.4,19.47 c -9.74,0 -14.44,-6.81 -14.44,-13.8 0,-7.62 6.47,-13.8 14.44,-13.8 7.95,0 14.39,6.18 14.39,13.8 0,7.63 -6.44,13.8 -14.39,13.8" /><path
         id="path7328"
         style="fill:#344240;fill-opacity:1;fill-rule:nonzero;stroke:none"
         d="m 3074.9955,-6866.821 c -0.17,0 -0.35,0.02 -0.53,0.05 -1.64,0.29 -2.73,1.86 -2.43,3.49 2.14,12.27 12.82,20.93 26.1,20.93 0.04,0 0.09,0 0.14,0 3.68,0 7.55,-0.64 11.51,-1.99 1.57,-0.54 2.41,-2.25 1.88,-3.82 -0.43,-1.25 -1.6,-2.04 -2.85,-2.04 -0.32,0 -0.65,0.06 -0.97,0.17 -3.37,1.15 -6.58,1.66 -9.57,1.66 -10.8,-0.06 -18.6,-6.57 -20.32,-15.97 h 0.01 c -0.27,-1.46 -1.54,-2.48 -2.97,-2.48" /><path
         id="path7330"
         style="fill:#fffbfd;fill-opacity:1;fill-rule:nonzero;stroke:none"
         d="m 3458.0355,-6890.901 c 0,-14 11.9,-25.36 26.48,-25.36 14.62,0 26.49,11.36 26.49,25.36 0,13.99 -11.87,25.33 -26.49,25.33 -14.58,0 -26.48,-11.34 -26.48,-25.33" /><path
         id="path7332"
         style="fill:#212121;fill-opacity:1;fill-rule:nonzero;stroke:none"
         d="m 3484.5155,-6888.931 c 0,2.82 2.37,5.1 5.3,5.1 2.89,0 5.25,-2.28 5.25,-5.1 0,-2.77 -2.36,-5.03 -5.25,-5.03 -2.93,0 -5.3,2.26 -5.3,5.03 z m 5.12,-8.74 c 0,1.43 1.19,2.59 2.7,2.59 1.47,0 2.69,-1.16 2.69,-2.59 0,-1.41 -1.22,-2.55 -2.69,-2.55 -1.51,0 -2.7,1.14 -2.7,2.55 z m -19.08,3.12 c 0,-7.62 6.44,-13.8 14.39,-13.8 7.96,0 14.41,6.18 14.41,13.8 0,6.99 -4.7,13.8 -14.41,13.8 -7.95,0 -14.39,-6.17 -14.39,-13.8" /><path
         id="path7334"
         style="fill:#344240;fill-opacity:1;fill-rule:nonzero;stroke:none"
         d="m 3523.1455,-6866.821 c -1.43,0 -2.7,1.03 -2.96,2.49 -1.7,9.38 -9.52,15.9 -20.32,15.96 -2.98,0 -6.19,-0.51 -9.53,-1.66 -0.33,-0.11 -0.66,-0.17 -0.98,-0.17 -1.25,0 -2.42,0.79 -2.85,2.03 -0.54,1.58 0.3,3.29 1.87,3.83 3.94,1.35 7.82,1.99 11.49,1.99 0.05,0 0.1,0 0.15,0 13.27,0 23.98,-8.65 26.1,-20.94 v 0 c 0.29,-1.63 -0.81,-3.19 -2.44,-3.48 -0.18,-0.03 -0.35,-0.05 -0.53,-0.05" /><path
         id="path7336"
         style="fill:#ce5683;fill-opacity:1;fill-rule:nonzero;stroke:none"
         d="m 3295.5655,-7128.901 c -14.85,5.87 -26,0.22 -32.45,-5.01 7.89,-6.3 19.31,-10.89 35.9,-9.52 12.3,1.02 21.15,4.47 27.68,8.84 -16.66,18.92 -31.13,5.69 -31.13,5.69" /><path
         id="path7338"
         style="fill:#555e5c;fill-opacity:1;fill-rule:nonzero;stroke:none"
         d="m 3310.2255,-6918.741 c 15.56,9.66 33.45,15.26 51.75,17.55 9.18,0.98 18.53,1.08 27.71,-0.35 9.17,-1.34 18.14,-4.38 25.97,-9.11 -17.71,4.46 -35.32,4.62 -52.89,2.6 -17.59,-2.01 -34.93,-6.07 -52.54,-10.69" /><path
         id="path7340"
         style="fill:#555e5c;fill-opacity:1;fill-rule:nonzero;stroke:none"
         d="m 3295.4355,-6886.371 c 15.82,3.64 32.07,4.24 48.24,2.78 8.07,-0.89 16.18,-2.28 23.97,-5.1 7.54,-2.74 15.94,-7.14 19.13,-14.97 -5.42,6.1 -13.25,7.91 -20.65,9.79 -7.56,1.62 -15.33,2.66 -23.15,3.4 -15.64,1.63 -31.45,2.31 -47.54,4.1" /><path
         id="path7342"
         style="fill:#555e5c;fill-opacity:1;fill-rule:nonzero;stroke:none"
         d="m 3149.3855,-7039.231 c 10.9,-21.96 29.22,-39.48 49.79,-52.21 20.73,-12.76 44.27,-20.38 68.19,-24.11 23.95,-3.48 48.52,-4.67 72.6,-2.67 24.26,1.81 47.27,9.33 70.11,18.11 22.92,8.78 47.6,14.36 72.46,14.62 12.44,0.15 25.03,-1.17 37.13,-4.59 12.12,-3.34 23.56,-8.88 34.06,-15.5 20.89,-13.13 39.3,-30.25 62.81,-34.01 23.25,-3.98 47.23,3.08 69.37,12.11 l 3.52,1.44 1.03,-3.71 c 1.27,-4.55 4.28,-9.6 7.77,-10.41 1.68,-0.51 3.82,-0.05 5.83,0.93 2.49,1.26 4.37,2.51 5.8,4.2 2.88,3.07 1.83,7.82 1.14,13.99 -0.42,2.85 0.18,7.09 1.04,9.53 0.68,2.58 1.21,5.28 1.63,7.97 0.81,5.38 1.09,10.84 0.29,15.95 -0.84,5.12 -3.01,9.54 -7.11,11.52 -4.72,2.47 -8.81,2.81 -12.64,-0.38 -2.03,-1.47 -3.91,-3.63 -6.96,-5.49 -1.33,-0.93 -4.05,-1.57 -5.16,-1.61 -1.34,-0.24 -2.85,-0.38 -4.49,-0.42 -12.49,-0.48 -23.8,4.36 -33.88,10.01 -10.11,5.79 -19.27,12.82 -28.04,20.16 -17.48,14.82 -33.5,30.97 -49.79,46.76 -32.48,31.34 -65.63,63.39 -106.59,82.72 -20.31,9.53 -42.95,14.89 -65.48,12.65 -11.21,-1.08 -22.25,-4 -33.2,-6.84 -10.9,-3.04 -21.86,-6.31 -31.9,-11.65 9.92,5.58 20.82,9.12 31.67,12.45 10.92,3.09 21.87,6.3 33.26,7.67 22.81,2.78 46.07,-2.15 66.95,-11.39 21.03,-9.19 39.98,-22.37 57.79,-36.56 17.83,-14.25 34.49,-29.8 50.98,-45.43 16.49,-15.61 32.73,-31.49 50.06,-45.89 8.65,-7.17 17.61,-13.98 27.24,-19.44 9.55,-5.35 20.15,-9.59 30.58,-9.1 1.2,0.02 2.52,0.14 3.97,0.39 1.72,0.21 1.81,0.28 2.92,0.86 1.84,1.06 3.81,3.18 6.32,5.11 2.46,1.95 6.02,3.66 9.67,3.61 3.59,0.01 6.83,-1.2 9.56,-2.59 2.98,-1.54 5.73,-4.06 7.41,-6.97 1.65,-2.93 2.55,-6.03 3.12,-9.08 0.98,-6.14 0.65,-12.13 -0.2,-17.97 -0.44,-2.92 -0.99,-5.8 -1.75,-8.71 -0.9,-2.98 -1.03,-4.46 -0.8,-7.28 0.22,-2.59 0.84,-5.43 0.84,-8.76 0.11,-3.28 -1.02,-7.24 -3.39,-9.96 -2.2,-2.72 -5.24,-4.57 -7.79,-5.88 -3.02,-1.52 -6.77,-2.54 -10.62,-1.49 -3.84,1.02 -6.61,3.72 -8.47,6.38 -1.91,2.79 -3.15,5.53 -4.08,8.78 l 4.54,-2.26 c -22.6,-9.32 -47.63,-17.09 -73.16,-12.59 -12.61,2.2 -24.35,7.84 -34.77,14.57 -10.49,6.72 -20.09,14.27 -30.27,20.65 -20.06,13.26 -43.67,19.94 -67.71,19.44 -24.11,-0.12 -47.8,-5.49 -70.63,-13.81 -11.48,-4 -23.08,-8.26 -35.06,-11.33 -11.97,-3.14 -24.25,-5.11 -36.56,-6.03 -24.65,-1.68 -49.23,-0.11 -73.55,3.76 -24.22,4.28 -47.9,12.68 -68.56,26.07 -20.48,13.37 -38.48,31.48 -48.84,53.71" /></g></g></svg>
