<?xml version="1.0" encoding="UTF-8" standalone="no"?>
<svg
   viewBox="0 0 171.66356 147.61211"
   height="147.61211"
   width="171.66356"
   xml:space="preserve"
   id="svg2"
   version="1.1"
   xmlns="http://www.w3.org/2000/svg"
   xmlns:svg="http://www.w3.org/2000/svg"
   xmlns:rdf="http://www.w3.org/1999/02/22-rdf-syntax-ns#"
   xmlns:cc="http://creativecommons.org/ns#"
   xmlns:dc="http://purl.org/dc/elements/1.1/"><metadata
     id="metadata8"><rdf:RDF><cc:Work
         rdf:about=""><dc:format>image/svg+xml</dc:format><dc:type
           rdf:resource="http://purl.org/dc/dcmitype/StillImage" /></cc:Work></rdf:RDF></metadata><defs
     id="defs6"><clipPath
       id="clipPath542"
       clipPathUnits="userSpaceOnUse"><path
         id="path540"
         d="m 5450.34,694.672 c -0.11,0 -0.23,0.008 -0.34,0.047 -3.4,1.043 -6.74,2.871 -9.78,5.191 1.04,0.942 2.07,1.879 3.11,2.82 2.61,-1.902 5.33,-3.718 7.96,-5.789 0.97,-0.773 0.11,-2.269 -0.95,-2.269" /></clipPath></defs><g
     transform="matrix(1.3333333,0,0,-1.3333333,345.75312,192.94217)"
     id="g10"><g
       transform="scale(0.1)"
       id="g12"><path
         id="path128"
         style="fill:#dedfb5;fill-opacity:1;fill-rule:nonzero;stroke:none"
         d="m -2336.2935,821.02992 c 1.055,-2.789 32.91,-29.711 32.91,-29.711 0,0 -8.672,57.262 -6.531,51.672 2.137,-5.602 24.148,-32.789 24.148,-32.789 0,0 -13.027,55.707 -7.441,49.738 5.586,-5.969 33.281,-32.578 33.351,-32.648 -4.152,9.051 -7.179,17.09 -9.093,23.719 -41.453,142.519 -254.239,178.92898 -324.199,36.98 0,0 63.105,60.219 125.488,15.469 39.836,-28.578 49.328,-60.66 51.387,-117.207 0.058,-0.063 41.23,-41.532 37.863,-32.782 -3.352,8.79 1.187,53.2 1.187,53.2 l 38.899,-40.328 c 0,0 0.926,57.476 2.031,54.687" /><path
         id="path130"
         style="fill:#ae341a;fill-opacity:1;fill-rule:nonzero;stroke:none"
         d="m -1975.3955,637.77192 c -169.558,13.688 -255.363,126.078 -284.461,189.52 -0.128,0.121 -27.785,26.679 -33.351,32.648 -5.586,5.969 7.441,-49.738 7.441,-49.738 0,0 -22.011,27.187 -24.148,32.789 -2.141,5.59 6.531,-51.672 6.531,-51.672 0,0 -31.855,26.922 -32.91,29.711 -1.105,2.789 -2.031,-54.687 -2.031,-54.687 l -38.899,40.328 c 0,0 -4.539,-44.41 -1.187,-53.2 3.367,-8.75 -37.805,32.719 -37.863,32.782 l -0.086,1.59 c 0.742,-18.59 0.671,-39.801 0.574,-64.493 -0.43,-98.519 131.484,-529.777 603.719,-295.89 0,0 -7.743,197.75 -163.329,210.312" /><path
         id="path132"
         style="fill:#dc4323;fill-opacity:1;fill-rule:nonzero;stroke:none"
         d="m -1797.3985,772.86192 h -89.813 c -40.645,-42.59 -119.473,-138.633 -118.926,-252.402 5.489,-0.18 10.813,-2.891 14.18,-9.16 7.297,-13.528 11.848,-29.508 21.094,-41.95 6.59,-8.961 15.722,-15.738 23.281,-23.91 8.613,-9.301 15,-22.469 23.418,-33.019 6.426,-5.321 12.812,-10.649 19.004,-16.192 5.285,-4.707 6.633,-10.406 5.449,-15.648 1.699,-2.75 3.359,-5.539 4.863,-8.399 3.075,-2.441 6.172,-4.82 9.285,-7.211 3,-2.32 4.661,-5.32 5.356,-8.582 20.906,-3.968 37.891,-3.328 37.891,-3.328 0,0 17,-0.64 37.937,3.328 0.645,3.262 2.336,6.262 5.313,8.582 3.105,2.391 6.191,4.77 9.316,7.211 1.484,2.86 3.152,5.649 4.864,8.399 -1.192,5.242 0.15,10.941 5.42,15.648 6.18,5.543 12.58,10.871 19.03,16.192 8.38,10.55 14.81,23.718 23.41,33.019 7.55,8.172 16.7,14.949 23.3,23.91 9.23,12.442 13.78,28.422 21.06,41.95 3.37,6.269 8.7,8.98 14.19,9.16 0.55,113.769 -78.31,209.812 -118.922,252.402" /><path
         id="path134"
         style="fill:#dc4323;fill-opacity:1;fill-rule:nonzero;stroke:none"
         d="m -1963.5005,514.57292 c 0,0 16.594,45.316 -32.012,41.68 -34.344,-2.571 -46.386,-109.153 55.918,-166.813 0,0 -38.523,-0.808 -67.043,8.61 -28.484,9.421 -67.754,-2.289 -57.156,-35.098 6.152,-19.012 23.184,-17.191 37.109,-20.492 11.192,-2.66 136.407,-6.27 143.828,7.711 22.774,42.871 -80.644,164.402 -80.644,164.402" /><path
         id="path136"
         style="fill:#dc4323;fill-opacity:1;fill-rule:nonzero;stroke:none"
         d="m -1874.3205,735.09292 c -3.653,-2.024 -8.008,-4.59 -12.012,-7.082 -4.102,-2.532 -8.164,-5.11 -12.188,-7.801 -8.066,-5.348 -15.964,-10.957 -23.73,-16.739 -15.488,-11.582 -30.359,-23.96 -44.473,-36.968 -28.261,-26.032 -53.625,-54.653 -75.129,-85.332 -9.304,-13.258 -28.093,-16.801 -41.941,-7.891 -13.898,8.922 -17.578,26.91 -8.262,40.191 l 1.692,2.192 0.117,0.148 c 27.39,31.899 58.238,60.571 91.543,85.852 16.668,12.637 33.926,24.457 51.797,35.348 8.953,5.46 18.047,10.671 27.324,15.64 4.617,2.5 9.324,4.918 14.082,7.281 4.832,2.368 9.402,4.547 14.852,6.918 9.296,4.02 20.234,0.082 24.453,-8.828 3.933,-8.363 0.566,-18.09 -7.508,-22.601 l -0.617,-0.328" /><path
         id="path138"
         style="fill:#dc4323;fill-opacity:1;fill-rule:nonzero;stroke:none"
         d="m -1721.0965,514.57292 c 0,0 -16.64,45.316 32.02,41.68 34.32,-2.571 46.33,-109.153 -55.95,-166.813 0,0 38.54,-0.808 67.02,8.61 28.54,9.421 67.77,-2.289 57.16,-35.098 -6.15,-19.012 -23.16,-17.191 -37.1,-20.492 -11.18,-2.66 -136.382,-6.27 -143.816,7.711 -22.773,42.871 80.666,164.402 80.666,164.402" /><path
         id="path140"
         style="fill:#dedfb5;fill-opacity:1;fill-rule:nonzero;stroke:none"
         d="m -1842.3165,718.36992 c -36.094,0 -108.723,-36.719 -96.282,-205.707 5.625,-76.602 96.282,-76 96.282,-76 0,0 90.67,-0.602 96.29,76 12.44,168.988 -60.169,205.707 -96.29,205.707" /><path
         id="path142"
         style="fill:#dc4323;fill-opacity:1;fill-rule:nonzero;stroke:none"
         d="m -1793.9495,766.84992 c 5.449,-2.371 10.003,-4.55 14.853,-6.918 4.75,-2.363 9.42,-4.781 14.07,-7.281 9.26,-4.969 18.36,-10.18 27.29,-15.64 17.89,-10.891 35.15,-22.711 51.82,-35.348 33.29,-25.281 64.12,-53.953 91.52,-85.852 l 0.1,-0.129 c 10.6,-12.332 8.73,-30.601 -4.19,-40.742 -12.88,-10.14 -31.94,-8.34 -42.56,4.012 l -1.73,2.219 c -21.52,30.679 -46.87,59.3 -75.1,85.332 -14.13,13.008 -29,25.386 -44.51,36.968 -7.74,5.782 -15.67,11.391 -23.731,16.739 -4.016,2.691 -8.067,5.269 -12.149,7.801 -4.011,2.492 -8.371,5.058 -12.031,7.082 l -0.527,0.296 c -8.848,4.864 -11.875,15.704 -6.797,24.172 4.797,7.95 15.098,10.942 23.672,7.289" /><path
         id="path144"
         style="fill:#f14926;fill-opacity:1;fill-rule:nonzero;stroke:none"
         d="m -2250.2975,1044.7409 c 33.484,-49.81998 93.164,-19.898 147.598,28.488 54.406,48.403 95.605,81.692 53.758,125.342 -63.043,65.73 -288.141,163.93 -318.512,132.97 -30.403,-30.98 62.937,-206.159 117.156,-286.8" /><path
         id="path146"
         style="fill:#dedfb5;fill-opacity:1;fill-rule:nonzero;stroke:none"
         d="m -2213.8595,1067.5029 c 26.777,-27.602 76.531,-25.063 111.16,5.726 34.59,30.774 40.918,78.114 14.133,105.722 -26.782,27.61 -177.661,81.77 -194.778,66.53 -17.07,-15.21 42.676,-150.381 69.485,-177.978" /><path
         id="path148"
         style="fill:#f14926;fill-opacity:1;fill-rule:nonzero;stroke:none"
         d="m -1428.7765,1044.7409 c -33.5,-49.81998 -93.15,-19.898 -147.6,28.488 -54.4,48.403 -95.58,81.692 -53.75,125.342 63.03,65.73 288.15,163.93 318.5,132.97 30.42,-30.98 -62.91,-206.159 -117.15,-286.8" /><path
         id="path150"
         style="fill:#dedfb5;fill-opacity:1;fill-rule:nonzero;stroke:none"
         d="m -1465.1965,1067.5029 c -26.8,-27.602 -76.59,-25.063 -111.18,5.726 -34.58,30.774 -40.93,78.114 -14.12,105.722 26.77,27.61 177.67,81.77 194.76,66.53 17.1,-15.21 -42.67,-150.381 -69.46,-177.978" /><path
         id="path152"
         style="fill:#dedfb5;fill-opacity:1;fill-rule:nonzero;stroke:none"
         d="m -1414.5565,970.93192 c -88.59,-220.562 -324.08,-311.613 -427.342,-311.613 -103.27,0 -340.43,75.031 -427.344,311.613 -77.012,209.72898 190.594,232.36898 426.609,232.36898 235.997,0 508.787,-31.33 428.077,-232.36898" /><path
         id="path154"
         style="fill:#f14926;fill-opacity:1;fill-rule:nonzero;stroke:none"
         d="m -1835.0235,659.65892 c 3.347,0.273 6.796,0.773 10.351,1.473 28.367,342.44098 267.556,354.96098 417.226,417.97998 -42.4,104.939 -249.82,145.259 -434.706,145.259 -186.836,0 -393.457,-35.27 -433.211,-145.251 149.578,-63.211 389.812,-76.188 418.211,-418.30898 3.371,-0.601 6.671,-1 9.851,-1.23 1.828,-0.11 3.653,-0.211 5.442,-0.231 h 0.402 c 2.078,0 4.266,0.141 6.434,0.309" /><path
         id="path156"
         style="fill:#311813;fill-opacity:1;fill-rule:nonzero;stroke:none"
         d="m -1766.2565,703.16292 c 0,-26.043 -33.631,-67.024 -75.162,-67.024 -41.484,0 -75.156,40.981 -75.156,67.024 0,26.008 33.672,31.976 75.156,31.976 41.531,0 75.162,-5.968 75.162,-31.976" /><path
         id="path158"
         style="fill:#572e28;fill-opacity:1;fill-rule:nonzero;stroke:none"
         d="m -1897.5825,710.34292 c -14.387,-14.321 1.848,-53.661 22.605,-38.872 5.493,3.879 8.821,8.258 12.336,13.86 5.989,9.59 13.887,13.851 25.02,16.16 7.765,1.609 24.492,2.898 24.015,13.961 -0.675,15.621 -64.914,13.828 -83.976,-5.109" /><path
         id="path160"
         style="fill:#311813;fill-opacity:1;fill-rule:nonzero;stroke:none"
         d="m -2074.1645,848.26092 c 0,-10.598 -8.977,-19.192 -20.059,-19.192 -11.074,0 -20.039,8.594 -20.039,19.192 0,10.601 8.965,19.191 20.039,19.191 11.082,0 20.059,-8.59 20.059,-19.191" /><path
         id="path162"
         style="fill:#ffffff;fill-opacity:1;fill-rule:nonzero;stroke:none"
         d="m -2079.2815,855.90892 c 0,-3.43 -2.918,-6.227 -6.485,-6.227 -3.601,0 -6.511,2.797 -6.511,6.227 0,3.441 2.91,6.23 6.511,6.23 3.567,0 6.485,-2.789 6.485,-6.23" /><path
         id="path164"
         style="fill:#311813;fill-opacity:1;fill-rule:nonzero;stroke:none"
         d="m -2074.2815,864.08092 c -4.785,3.898 -10.508,5.34 -16.043,5.48 -2.805,-0.011 -5.617,-0.23 -8.403,-0.789 -2.859,-0.511 -5.222,-1.25 -7.781,-2.453 -2.5,-1.129 -4.922,-2.629 -7.59,-4.168 -2.625,-1.488 -5.484,-3.211 -8.875,-4.051 -3.34,-0.961 -6.953,-0.898 -10.136,-0.07 -3.164,0.852 -6.036,2.27 -8.516,4.109 6.113,-1.289 12.129,-1.726 16.926,0.571 4.832,2.16 9.187,6.5 15.293,9.34 2.957,1.41 6.504,2.371 9.683,2.722 3.293,0.289 6.66,0.399 9.953,-0.211 6.524,-1.05 12.997,-4.8 15.489,-10.48" /><path
         id="path166"
         style="fill:#311813;fill-opacity:1;fill-rule:nonzero;stroke:none"
         d="m -2132.5555,867.45192 c 4.133,-0.84 7.766,-1.031 11.407,-0.531 3.703,0.468 7.191,1.742 11.21,3.031 -2.41,-3.32 -6.394,-5.563 -10.75,-6.172 -2.148,-0.269 -4.367,-0.141 -6.445,0.473 -2.082,0.597 -4.043,1.597 -5.422,3.199" /><path
         id="path168"
         style="fill:#311813;fill-opacity:1;fill-rule:nonzero;stroke:none"
         d="m -2126.1175,871.61992 c 2.07,-0.438 3.972,-0.399 5.91,-0.359 1.914,0.101 3.816,0.23 5.738,0.492 3.86,0.406 7.707,1.148 11.965,1.238 -3.379,-2.469 -7.363,-3.84 -11.562,-4.398 -2.09,-0.204 -4.258,-0.243 -6.368,0.199 -2.082,0.418 -4.265,1.199 -5.683,2.828" /><path
         id="path170"
         style="fill:#311813;fill-opacity:1;fill-rule:nonzero;stroke:none"
         d="m -1608.6265,848.26092 c 0,-10.598 8.97,-19.192 20.04,-19.192 11.06,0 20.05,8.594 20.05,19.192 0,10.601 -8.99,19.191 -20.05,19.191 -11.07,0 -20.04,-8.59 -20.04,-19.191" /><path
         id="path172"
         style="fill:#ffffff;fill-opacity:1;fill-rule:nonzero;stroke:none"
         d="m -1603.5465,855.90892 c 0,-3.43 2.91,-6.227 6.48,-6.227 3.61,0 6.52,2.797 6.52,6.227 0,3.441 -2.91,6.23 -6.52,6.23 -3.57,0 -6.48,-2.789 -6.48,-6.23" /><path
         id="path174"
         style="fill:#311813;fill-opacity:1;fill-rule:nonzero;stroke:none"
         d="m -1608.5265,864.08092 c 2.49,5.68 8.96,9.43 15.51,10.48 3.28,0.61 6.62,0.5 9.89,0.211 3.2,-0.351 6.75,-1.312 9.72,-2.722 6.13,-2.84 10.46,-7.18 15.31,-9.34 4.77,-2.297 10.77,-1.86 16.91,-0.571 -2.51,-1.839 -5.33,-3.257 -8.54,-4.109 -3.15,-0.828 -6.78,-0.891 -10.14,0.07 -3.35,0.84 -6.21,2.563 -8.85,4.051 -2.68,1.539 -5.08,3.039 -7.59,4.168 -2.54,1.203 -4.91,1.942 -7.78,2.453 -2.79,0.559 -5.61,0.778 -8.38,0.789 -5.57,-0.14 -11.31,-1.582 -16.06,-5.48" /><path
         id="path176"
         style="fill:#311813;fill-opacity:1;fill-rule:nonzero;stroke:none"
         d="m -1550.2765,867.45192 c -1.36,-1.602 -3.35,-2.602 -5.4,-3.199 -2.1,-0.614 -4.31,-0.742 -6.48,-0.473 -4.31,0.609 -8.3,2.852 -10.72,6.172 4,-1.289 7.51,-2.563 11.2,-3.031 3.64,-0.5 7.32,-0.309 11.4,0.531" /><path
         id="path178"
         style="fill:#311813;fill-opacity:1;fill-rule:nonzero;stroke:none"
         d="m -1556.7165,871.61992 c -1.38,-1.629 -3.58,-2.41 -5.67,-2.828 -2.13,-0.442 -4.26,-0.403 -6.36,-0.199 -4.19,0.558 -8.19,1.929 -11.56,4.398 4.27,-0.09 8.1,-0.832 11.95,-1.238 1.93,-0.262 3.84,-0.391 5.73,-0.492 1.96,-0.04 3.87,-0.079 5.91,0.359" /><path
         id="path180"
         style="fill:#eab69c;fill-opacity:1;fill-rule:nonzero;stroke:none"
         d="m -1675.2465,704.20192 c -6,8.93 -9.51,19.539 -9.51,30.937 0,31.75 26.87,57.454 60.03,57.454 21.4,0 40.15,-10.743 50.76,-26.911 -33.09,-25.203 -67.64,-45.57 -101.28,-61.48" /><path
         id="path182"
         style="fill:#eab69c;fill-opacity:1;fill-rule:nonzero;stroke:none"
         d="m -2016.4025,702.93192 c -33.844,15.547 -68.446,35.778 -101.356,61.36 10.43,16.929 29.649,28.301 51.68,28.301 33.152,0 60.019,-25.704 60.019,-57.454 0,-11.929 -3.828,-23.027 -10.343,-32.207" /><path
         id="path4470"
         style="fill:#8c6128;fill-opacity:1;fill-rule:nonzero;stroke:none"
         d="m -2232.8485,1444.9909 c 2.992,-3.3 4.883,-7.89 8.52,-10.45 0.879,-0.63 1.988,0.4 1.734,1.33 -1.16,4.34 -5.262,7.94 -8.512,10.85 -1.183,1.06 -2.804,-0.55 -1.742,-1.73" /><path
         id="path4474"
         style="fill:#8c6128;fill-opacity:1;fill-rule:nonzero;stroke:none"
         d="m -2209.6135,1422.9409 c 2.441,-2.92 5.254,-6.44 9.297,-6.35 1.132,0.03 1.64,1.15 1.21,2.1 -1.464,3.19 -4.843,4.96 -7.089,7.67 -1.993,2.4 -5.391,-1.04 -3.418,-3.42" /><path
         id="path4476"
         style="fill:#8c6128;fill-opacity:1;fill-rule:nonzero;stroke:none"
         d="m -2197.7315,1433.2309 c 0.657,-4.02 2.688,-9.27 7.18,-10 1.008,-0.17 2.235,0.65 1.817,1.81 -1.219,3.46 -4.219,5.52 -5.247,9.22 -0.671,2.47 -4.148,1.39 -3.75,-1.03" /><path
         id="path4478"
         style="fill:#8c6128;fill-opacity:1;fill-rule:nonzero;stroke:none"
         d="m -2181.7155,1440.4209 c -0.066,-4.46 -0.066,-10.92 3.684,-13.88 0.976,-0.77 2.265,-0.52 2.695,0.7 1.465,4.23 -1.379,8.83 -1.809,13.18 -0.281,2.88 -4.519,2.99 -4.57,0" /><path
         id="path4544"
         style="fill:#8c6128;fill-opacity:1;fill-rule:nonzero;stroke:none"
         d="m -2011.1765,1446.7209 c -3.242,-2.91 -7.344,-6.51 -8.484,-10.85 -0.246,-0.93 0.847,-1.96 1.734,-1.33 3.625,2.56 5.512,7.15 8.488,10.45 1.067,1.18 -0.554,2.79 -1.738,1.73" /><path
         id="path4548"
         style="fill:#8c6128;fill-opacity:1;fill-rule:nonzero;stroke:none"
         d="m -2036.0595,1426.3609 c -2.257,-2.71 -5.625,-4.48 -7.109,-7.67 -0.43,-0.95 0.078,-2.07 1.211,-2.1 4.055,-0.09 6.875,3.43 9.297,6.35 1.972,2.39 -1.414,5.82 -3.399,3.42" /><path
         id="path4550"
         style="fill:#8c6128;fill-opacity:1;fill-rule:nonzero;stroke:none"
         d="m -2048.2345,1434.2609 c -1.067,-3.68 -4.055,-5.77 -5.286,-9.22 -0.421,-1.16 0.813,-1.98 1.817,-1.81 4.504,0.73 6.504,5.99 7.219,10 0.425,2.43 -3.047,3.48 -3.75,1.03" /><path
         id="path4552"
         style="fill:#8c6128;fill-opacity:1;fill-rule:nonzero;stroke:none"
         d="m -2065.1605,1440.4209 c -0.43,-4.34 -3.25,-8.97 -1.77,-13.18 0.434,-1.21 1.723,-1.48 2.688,-0.7 3.742,2.97 3.73,9.43 3.652,13.88 -0.051,2.99 -4.285,2.88 -4.57,0" /></g></g></svg>
