<?xml version="1.0" encoding="UTF-8" standalone="no"?>
<svg
   viewBox="0 0 84.984802 131.4183"
   height="131.4183"
   width="84.984802"
   xml:space="preserve"
   id="svg2"
   version="1.1"
   sodipodi:docname="hippo.svg"
   inkscape:version="1.1.2 (b8e25be833, 2022-02-05)"
   xmlns:inkscape="http://www.inkscape.org/namespaces/inkscape"
   xmlns:sodipodi="http://sodipodi.sourceforge.net/DTD/sodipodi-0.dtd"
   xmlns="http://www.w3.org/2000/svg"
   xmlns:svg="http://www.w3.org/2000/svg"
   xmlns:rdf="http://www.w3.org/1999/02/22-rdf-syntax-ns#"
   xmlns:cc="http://creativecommons.org/ns#"
   xmlns:dc="http://purl.org/dc/elements/1.1/"><sodipodi:namedview
     id="namedview8358"
     pagecolor="#ffffff"
     bordercolor="#666666"
     borderopacity="1.0"
     inkscape:pageshadow="2"
     inkscape:pageopacity="0.0"
     inkscape:pagecheckerboard="0"
     showgrid="false"
     inkscape:zoom="1.2117028"
     inkscape:cx="-141.949"
     inkscape:cy="44.978025"
     inkscape:window-width="2560"
     inkscape:window-height="1361"
     inkscape:window-x="-9"
     inkscape:window-y="-9"
     inkscape:window-maximized="1"
     inkscape:current-layer="g12"
     fit-margin-top="0"
     fit-margin-left="0"
     fit-margin-right="0"
     fit-margin-bottom="0" /><metadata
     id="metadata8"><rdf:RDF><cc:Work
         rdf:about=""><dc:format>image/svg+xml</dc:format><dc:type
           rdf:resource="http://purl.org/dc/dcmitype/StillImage" /></cc:Work></rdf:RDF></metadata><defs
     id="defs6"><clipPath
       id="clipPath542"
       clipPathUnits="userSpaceOnUse"><path
         id="path540"
         d="m 5450.34,694.672 c -0.11,0 -0.23,0.008 -0.34,0.047 -3.4,1.043 -6.74,2.871 -9.78,5.191 1.04,0.942 2.07,1.879 3.11,2.82 2.61,-1.902 5.33,-3.718 7.96,-5.789 0.97,-0.773 0.11,-2.269 -0.95,-2.269" /></clipPath></defs><g
     transform="matrix(1.3333333,0,0,-1.3333333,-337.39081,-725.36759)"
     id="g10"><g
       transform="scale(0.1)"
       id="g12"><path
         id="path6916"
         style="fill:#856d78;fill-opacity:1;fill-rule:nonzero;stroke:none"
         d="m 2732.4132,-5959.5815 c -10.29,0.91 -79.69,16.84 -144.6,-77.55 -53.02,-77.1 -71.85,-105.97 -45.7,-123.97 26.17,-18.03 63.21,-41.29 84.46,-0.97 21.25,40.29 54.97,147.5 111.37,180.67 17.38,10.23 4.68,20.86 -5.53,21.82" /><path
         id="path6918"
         style="fill:#a58897;fill-opacity:1;fill-rule:nonzero;stroke:none"
         d="m 2616.5432,-6150.4615 c -9.04,3.71 -20.41,-2.44 -25.49,-13.72 -0.08,-0.25 7.79,19.09 -8.07,25.07 -15.83,5.99 -24.96,-11.79 -24.7,-11.23 5.07,11.3 1.86,23.46 -7.16,27.16 -5.84,2.43 -12.63,0.57 -18.09,-4.05 -5.29,-15.63 -2.56,-25.85 9.08,-33.87 25.83,-17.83 62.27,-40.67 83.65,-2.39 -0.84,5.94 -4.04,10.9 -9.22,13.03" /><path
         id="path6920"
         style="fill:#856d78;fill-opacity:1;fill-rule:nonzero;stroke:none"
         d="m 2965.8132,-5959.5815 c 10.28,0.91 79.68,16.84 144.6,-77.55 53.03,-77.1 71.88,-105.97 45.72,-123.97 -26.21,-18.03 -63.24,-41.29 -84.47,-0.97 -21.29,40.29 -54.98,147.5 -111.4,180.67 -17.37,10.23 -4.67,20.86 5.55,21.82" /><path
         id="path6922"
         style="fill:#a58897;fill-opacity:1;fill-rule:nonzero;stroke:none"
         d="m 3081.6632,-6150.4615 c 9.04,3.71 20.44,-2.44 25.49,-13.72 0.14,-0.25 -7.75,19.09 8.07,25.07 15.87,5.99 24.99,-11.79 24.72,-11.23 -5.05,11.3 -1.85,23.46 7.16,27.16 5.85,2.43 12.65,0.57 18.08,-4.05 5.28,-15.63 2.61,-25.85 -9.05,-33.87 -25.87,-17.83 -62.31,-40.67 -83.69,-2.39 0.84,5.94 4.07,10.9 9.22,13.03" /><path
         id="path6926"
         style="fill:#856d78;fill-opacity:1;fill-rule:nonzero;stroke:none"
         d="m 2729.6532,-6247.5915 v -165.21 c 3.42,6.12 8.94,10.24 15.39,10.46 10.65,0.32 19.61,-9.87 20.63,-22.98 l 0.25,-0.12 c 0.5,4.6 3.4,20.44 19.42,21.36 19.08,1.11 20.66,-22.11 20.66,-21.81 -0.48,13.79 8.07,25.23 19.08,25.58 6.35,0.18 12.03,-3.42 15.83,-9.08 v 161.8 h -111.26" /><path
         id="path6930"
         style="fill:#856d78;fill-opacity:1;fill-rule:nonzero;stroke:none"
         d="m 2857.1232,-6247.5915 v -165.21 c 3.39,6.12 8.92,10.24 15.38,10.46 10.63,0.32 19.56,-9.87 20.61,-22.98 l 0.27,-0.12 c 0.55,4.6 3.39,20.44 19.44,21.36 19.05,1.11 20.66,-22.11 20.62,-21.81 -0.45,13.79 8.09,25.23 19.12,25.58 6.33,0.18 12.01,-3.42 15.82,-9.08 v 161.8 h -111.26" /><path
         id="path6932"
         style="fill:#a58897;fill-opacity:1;fill-rule:nonzero;stroke:none"
         d="m 3053.8032,-6135.7415 c 0,-108.2 -91.65,-195.94 -204.72,-195.94 -113.02,0 -204.65,87.74 -204.65,195.94 0,108.25 64.83,291.07 204.65,291.07 139.87,0 204.72,-182.82 204.72,-291.07" /><path
         id="path6934"
         style="fill:#a58897;fill-opacity:1;fill-rule:nonzero;stroke:none"
         d="m 3072.4432,-5738.8515 c -35.54,-94.34 -137.27,-110.04 -223.32,-110.04 -86.07,0 -176.45,14.09 -223.36,103.75 -67.82,129.61 -26.26,270.27 223.32,270.27 249.62,0 271.05,-137.58 223.36,-263.98" /><path
         id="path6936"
         style="fill:#c29dac;fill-opacity:1;fill-rule:nonzero;stroke:none"
         d="m 3041.4032,-5725.1715 c 1.57,3.59 2.43,7.52 2.43,11.64 0,16.77 -14.16,30.35 -31.65,30.35 -16.67,0 -30.16,-12.33 -31.47,-27.96 -35.69,5.25 -78.89,7.59 -130.83,6.81 -52.43,-0.8 -96.16,-4.5 -132.33,-10.93 l 0.19,1.73 c 0,16.77 -14.18,30.35 -31.66,30.35 -17.51,0 -31.71,-13.58 -31.71,-30.35 0,-6.05 1.92,-11.7 5.11,-16.43 -83.77,-29.62 -101.29,-83.49 -81.52,-155.05 30.16,-108.98 185.81,-118.45 271.92,-118.45 86.05,0 246.27,-0.62 271.88,118.45 16.64,77.46 0.4,132.07 -80.36,159.84" /><path
         id="path6938"
         style="fill:#5c484e;fill-opacity:1;fill-rule:nonzero;stroke:none"
         d="m 3025.7632,-5713.5315 c 0,-7.15 -6.11,-12.98 -13.58,-12.98 -7.53,0 -13.59,5.83 -13.59,12.98 0,7.2 6.06,13.01 13.59,13.01 7.47,0 13.58,-5.81 13.58,-13.01" /><path
         id="path6940"
         style="fill:#856d78;fill-opacity:1;fill-rule:nonzero;stroke:none"
         d="m 2863.2732,-6187.6915 c 0,-7.06 -6.35,-12.77 -14.19,-12.77 -7.82,0 -14.14,5.71 -14.14,12.77 0,7.07 6.32,12.79 14.14,12.79 7.84,0 14.19,-5.72 14.19,-12.79" /><path
         id="path6942"
         style="fill:#fffbfd;fill-opacity:1;fill-rule:nonzero;stroke:none"
         d="m 2782.0332,-5670.3815 c 0,-10.82 -9.16,-19.57 -20.43,-19.57 -11.3,0 -20.46,8.75 -20.46,19.57 0,10.81 9.16,19.59 20.46,19.59 11.27,0 20.43,-8.78 20.43,-19.59" /><path
         id="path6944"
         style="fill:#212121;fill-opacity:1;fill-rule:nonzero;stroke:none"
         d="m 2757.5232,-5672.7515 c -2.27,0 -4.08,1.76 -4.08,3.91 0,2.16 1.81,3.91 4.08,3.91 2.26,0 4.08,-1.75 4.08,-3.91 0,-2.15 -1.82,-3.91 -4.08,-3.91 z m -1.97,-4.83 c -1.13,0 -2.08,0.87 -2.08,1.96 0,1.13 0.95,2.02 2.08,2.02 1.15,0 2.1,-0.89 2.1,-2.02 0,-1.09 -0.95,-1.96 -2.1,-1.96 z m 5.69,15.03 c -7.52,0 -11.11,-5.25 -11.11,-10.64 0,-5.89 4.99,-10.67 11.11,-10.67 6.17,0 11.15,4.78 11.15,10.67 0,5.89 -4.98,10.64 -11.15,10.64" /><path
         id="path6946"
         style="fill:#706578;fill-opacity:1;fill-rule:nonzero;stroke:none"
         d="m 2731.7732,-5651.7915 c -0.13,0 -0.27,0.01 -0.41,0.04 -1.26,0.23 -2.11,1.43 -1.88,2.69 1.66,9.49 9.92,16.16 20.17,16.16 0.03,0 0.07,0 0.11,0 2.83,0 5.8,-0.48 8.84,-1.52 1.22,-0.42 1.86,-1.74 1.45,-2.95 -0.33,-0.97 -1.23,-1.57 -2.2,-1.57 -0.25,0 -0.5,0.04 -0.75,0.12 -2.58,0.88 -5.05,1.28 -7.34,1.28 -8.34,-0.05 -14.38,-5.08 -15.7,-12.33 v 0 c -0.21,-1.13 -1.18,-1.92 -2.29,-1.92" /><path
         id="path6948"
         style="fill:#fffbfd;fill-opacity:1;fill-rule:nonzero;stroke:none"
         d="m 2916.1732,-5670.3815 c 0,-10.82 9.15,-19.57 20.45,-19.57 11.31,0 20.47,8.75 20.47,19.57 0,10.81 -9.16,19.59 -20.47,19.59 -11.3,0 -20.45,-8.78 -20.45,-19.59" /><path
         id="path6950"
         style="fill:#212121;fill-opacity:1;fill-rule:nonzero;stroke:none"
         d="m 2936.6232,-5668.8415 c 0,2.16 1.83,3.91 4.07,3.91 2.26,0 4.08,-1.75 4.08,-3.91 0,-2.15 -1.82,-3.91 -4.08,-3.91 -2.24,0 -4.07,1.76 -4.07,3.91 z m 3.97,-6.78 c 0,1.13 0.93,2.02 2.06,2.02 1.16,0 2.1,-0.89 2.1,-2.02 0,-1.09 -0.94,-1.96 -2.1,-1.96 -1.13,0 -2.06,0.87 -2.06,1.96 z m -14.75,2.43 c 0,-5.89 4.99,-10.67 11.15,-10.67 6.14,0 11.08,4.78 11.08,10.67 0,5.39 -3.62,10.64 -11.08,10.64 -6.16,0 -11.15,-4.75 -11.15,-10.64" /><path
         id="path6952"
         style="fill:#706578;fill-opacity:1;fill-rule:nonzero;stroke:none"
         d="m 2966.4732,-5651.7915 c -1.11,0 -2.09,0.79 -2.29,1.92 -1.32,7.25 -7.36,12.28 -15.71,12.33 -2.3,0 -4.78,-0.4 -7.35,-1.28 -0.25,-0.09 -0.51,-0.13 -0.76,-0.13 -0.96,0 -1.87,0.61 -2.2,1.58 -0.41,1.21 0.24,2.53 1.45,2.95 3.04,1.04 6.03,1.52 8.86,1.52 0.04,0 0.07,0 0.11,0 10.26,0 18.53,-6.67 20.17,-16.16 h 0.01 c 0.22,-1.26 -0.63,-2.47 -1.89,-2.69 -0.13,-0.03 -0.27,-0.04 -0.4,-0.04" /><path
         id="path6954"
         style="fill:#9b7f8d;fill-opacity:1;fill-rule:nonzero;stroke:none"
         d="m 2976.5132,-5497.7515 c 27.94,-12.88 50.97,-30.14 69.73,-50.57 l 0.09,0.05 c 65.59,10.08 62.14,94.61 -11.31,106.6 -73.49,11.97 -58.51,-55.97 -58.51,-55.97 v -0.11" /><path
         id="path6956"
         style="fill:#856d78;fill-opacity:1;fill-rule:nonzero;stroke:none"
         d="m 3039.4432,-5541.1315 c 33.61,11.46 28.85,58.87 -14.89,66.02 -33.73,5.49 -38.16,-15.44 -38,-27.55 20.3,-10.57 37.87,-23.56 52.89,-38.47" /><path
         id="path6958"
         style="fill:#9b7f8d;fill-opacity:1;fill-rule:nonzero;stroke:none"
         d="m 2721.6932,-5497.7515 c -27.92,-12.88 -50.94,-30.14 -69.73,-50.57 l -0.06,0.05 c -65.59,10.08 -62.18,94.61 11.34,106.6 73.43,11.97 58.46,-55.97 58.46,-55.97 l -0.01,-0.11" /><path
         id="path6960"
         style="fill:#856d78;fill-opacity:1;fill-rule:nonzero;stroke:none"
         d="m 2658.7732,-5541.1315 c -33.6,11.46 -28.84,58.87 14.89,66.02 33.71,5.49 38.14,-15.44 37.99,-27.55 -20.28,-10.57 -37.85,-23.56 -52.88,-38.47" /><path
         id="path6962"
         style="fill:#fffbfd;fill-opacity:1;fill-rule:nonzero;stroke:none"
         d="m 2676.2232,-5870.3415 v -44.58 c 0,-8.24 6.96,-14.93 15.6,-14.93 l 31.27,-6.05 c 8.61,0 15.61,6.69 15.61,14.93 v 25.23 c -27.27,6.65 -47.49,15.71 -62.48,25.4" /><path
         id="path6964"
         style="fill:#fffbfd;fill-opacity:1;fill-rule:nonzero;stroke:none"
         d="m 2959.5132,-5893.7215 v -27.25 c 0,-8.24 6.98,-14.93 15.61,-14.93 l 31.27,6.05 c 8.63,0 15.6,6.69 15.6,14.93 v 46.15 l -0.18,1.78 c -15.02,-9.97 -35.26,-19.48 -62.3,-26.73" /><path
         id="path6966"
         style="fill:#9b7f8d;fill-opacity:1;fill-rule:nonzero;stroke:none"
         d="m 2630.4132,-5813.6815 c 0.02,-0.46 2.12,-24.63 30.16,-48.52 28.03,-23.89 81.63,-47.32 184.08,-47.31 102.45,-0.01 158.24,23.43 188.46,47.25 30.22,23.81 34.62,47.87 34.68,48.32 0.26,1.48 -0.73,2.89 -2.2,3.15 -1.48,0.26 -2.88,-0.73 -3.14,-2.21 l -0.04,-0.17 c -0.5,-2.28 -5.83,-24.83 -35.46,-46.97 -29.64,-22.13 -83.82,-43.94 -182.3,-43.94 -101.68,0 -153.85,23.24 -180.55,46.02 -13.37,11.39 -20.42,22.7 -24.16,31.11 -1.86,4.21 -2.9,7.69 -3.46,10.1 -0.29,1.2 -0.45,2.13 -0.54,2.75 l -0.1,0.67 -0.02,0.18 c -0.12,1.49 -1.43,2.61 -2.92,2.49 -1.49,-0.12 -2.61,-1.43 -2.49,-2.92" /><path
         id="path6968"
         style="fill:#5c484e;fill-opacity:1;fill-rule:nonzero;stroke:none"
         d="m 2699.6332,-5713.5315 c 0,-7.15 -6.09,-12.98 -13.55,-12.98 -7.52,0 -13.62,5.83 -13.62,12.98 0,7.2 6.1,13.01 13.62,13.01 7.46,0 13.55,-5.81 13.55,-13.01" /></g></g></svg>
