<?xml version="1.0" encoding="UTF-8" standalone="no"?>
<svg
   viewBox="0 0 116.97298 210.0572"
   height="210.05721"
   width="116.97298"
   xml:space="preserve"
   id="svg2"
   version="1.1"
   sodipodi:docname="rabbit.svg"
   inkscape:version="1.1.2 (b8e25be833, 2022-02-05)"
   xmlns:inkscape="http://www.inkscape.org/namespaces/inkscape"
   xmlns:sodipodi="http://sodipodi.sourceforge.net/DTD/sodipodi-0.dtd"
   xmlns="http://www.w3.org/2000/svg"
   xmlns:svg="http://www.w3.org/2000/svg"
   xmlns:rdf="http://www.w3.org/1999/02/22-rdf-syntax-ns#"
   xmlns:cc="http://creativecommons.org/ns#"
   xmlns:dc="http://purl.org/dc/elements/1.1/"><sodipodi:namedview
     id="namedview8358"
     pagecolor="#ffffff"
     bordercolor="#666666"
     borderopacity="1.0"
     inkscape:pageshadow="2"
     inkscape:pageopacity="0.0"
     inkscape:pagecheckerboard="0"
     showgrid="false"
     inkscape:zoom="1.2117028"
     inkscape:cx="-240.98318"
     inkscape:cy="127.50651"
     inkscape:window-width="2560"
     inkscape:window-height="1361"
     inkscape:window-x="-9"
     inkscape:window-y="-9"
     inkscape:window-maximized="1"
     inkscape:current-layer="g12"
     fit-margin-top="0"
     fit-margin-left="0"
     fit-margin-right="0"
     fit-margin-bottom="0" /><metadata
     id="metadata8"><rdf:RDF><cc:Work
         rdf:about=""><dc:format>image/svg+xml</dc:format><dc:type
           rdf:resource="http://purl.org/dc/dcmitype/StillImage" /></cc:Work></rdf:RDF></metadata><defs
     id="defs6"><clipPath
       id="clipPath542"
       clipPathUnits="userSpaceOnUse"><path
         id="path540"
         d="m 5450.34,694.672 c -0.11,0 -0.23,0.008 -0.34,0.047 -3.4,1.043 -6.74,2.871 -9.78,5.191 1.04,0.942 2.07,1.879 3.11,2.82 2.61,-1.902 5.33,-3.718 7.96,-5.789 0.97,-0.773 0.11,-2.269 -0.95,-2.269" /></clipPath></defs><g
     transform="matrix(1.3333333,0,0,-1.3333333,-1048.7707,412.95758)"
     id="g10"><g
       transform="scale(0.1)"
       id="g12"><path
         id="path184"
         style="fill:#cab8ba;fill-opacity:1;fill-rule:nonzero;stroke:none"
         d="m 8190.9798,1740.765 c -1.36,-0.109 -2.67,-0.437 -3.81,-0.957 -2.58,8.02 -7.58,15.297 -14.77,17.18 -5.05,1.34 -9.7,-2.051 -12.21,-6.621 l -0.68,-1.441 c -3.41,6.523 -9.33,10.55 -17.85,6.55 -5.67,-2.668 -9.28,-8.757 -10.22,-15.007 -5.4,2.82 -12.82,1.839 -18.54,-3.911 -1.96,-2.011 -3.74,-4.691 -4.96,-7.48 -4.15,-0.223 -8.88,-2.031 -12.53,-4.66 -5.57,-4.071 -7.45,-11.321 -6.2,-16.832 -8.06,-3.289 -15.87,-11.75 -15.89,-19.16 0,-1.528 0.21,-2.93 0.61,-4.219 l -0.12,-0.211 c -2.98,-5.879 -1.1,-9.988 2.76,-12.707 -2.59,-5.16 -3.25,-10.793 0.07,-15.113 0.74,-0.957 1.68,-1.809 2.74,-2.528 -3.82,-4.871 -5.76,-11.133 -3.84,-16.703 1.79,-5.109 7.02,-7.867 12.74,-8.269 l -1.01,-1.797 c -2.97,-5.633 -5.86,-15.18 -0.58,-19.774 4.09,-3.609 11.44,-4.687 18.31,-3.359 0.42,-1.82 1.08,-3.617 2.05,-5.301 5.28,-9.129 16.45,-9.867 25.61,-5.379 0.26,-4.039 1.81,-7.84 5.04,-10.328 5.49,-4.25 13.88,-3.84 21.32,-0.633 0.33,-3.34 2.18,-6.34 5.97,-7.898 6.1,-2.551 13.33,-0.512 19.66,3.82 0.49,-1.398 1.2,-2.742 2.19,-3.941 6.84,-8.617 23.2,1.812 28.88,8.531 l 0.48,0.57 c 6.43,-0.468 14.21,3.051 19.02,6.629 6.51,4.801 10.98,15.02 11.8,23.211 0.99,0.879 1.93,1.731 2.77,2.559 5.76,5.429 10.31,12.543 12.28,20.222 0.52,2.09 0.58,4.27 0.24,6.348 l 0.39,0.57 c 1.44,0.84 2.77,1.969 4.05,3.301 1.49,1.481 0.32,4.231 -1.71,3.149 -1.43,-0.7 -2.45,-1.539 -3.32,-2.5 l -0.88,-0.489 -1.04,1.5 c 5.57,9.399 16.16,21.629 7.49,29.692 -2.52,2.418 -5.99,3.84 -9.07,3.808 2.31,9.27 2.57,19.84 -7.16,21.852 -4.24,0.867 -10.16,-0.332 -14.79,-3.024 2.11,16.243 -5.88,33.493 -23.98,31.192 -1.14,-0.129 -2.17,-0.481 -3.08,-0.961 -0.95,1.043 -1.89,1.961 -2.83,2.691 -3.49,5.02 -8.61,8.34 -15.4,7.828" /><path
         id="path186"
         style="fill:#e6d2d4;fill-opacity:1;fill-rule:nonzero;stroke:none"
         d="m 8319.9198,1920.668 h -82.77 c -37.42,-39.262 -110.07,-127.75 -109.55,-232.602 5.06,-0.148 9.94,-2.648 13.09,-8.437 6.66,-12.461 10.86,-27.192 19.34,-38.653 6.12,-8.269 14.54,-14.488 21.51,-22.027 7.93,-8.57 13.84,-20.723 21.58,-30.453 5.91,-4.867 11.81,-9.789 17.55,-14.91 4.8,-4.34 6.06,-9.598 4.94,-14.41 1.61,-2.539 3.15,-5.098 4.51,-7.739 2.86,-2.23 5.7,-4.461 8.55,-6.648 2.79,-2.113 4.32,-4.91 4.95,-7.902 19.25,-3.649 34.93,-3.059 34.93,-3.059 0,0 15.65,-0.59 34.95,3.059 0.58,2.992 2.16,5.789 4.88,7.902 2.87,2.187 5.74,4.418 8.58,6.648 1.4,2.641 2.94,5.2 4.53,7.739 -1.12,4.812 0.11,10.07 4.96,14.41 5.72,5.121 11.62,10.043 17.56,14.91 7.71,9.73 13.6,21.883 21.53,30.453 6.97,7.539 15.39,13.758 21.53,22.027 8.47,11.461 12.66,26.192 19.38,38.653 3.11,5.789 7.98,8.289 13.07,8.437 0.48,104.852 -72.13,193.34 -109.6,232.602" /><path
         id="path188"
         style="fill:#e6d2d4;fill-opacity:1;fill-rule:nonzero;stroke:none"
         d="m 8166.8598,1682.637 c 0,0 15.35,41.781 -29.51,38.421 -31.61,-2.371 -42.68,-100.582 51.58,-153.711 0,0 -35.54,-0.75 -61.78,7.911 -26.26,8.699 -62.46,-2.09 -52.67,-32.332 5.65,-17.52 21.34,-15.848 34.18,-18.879 10.32,-2.469 125.7,-5.77 132.54,7.109 20.99,39.5 -74.34,151.481 -74.34,151.481" /><path
         id="path190"
         style="fill:#e6d2d4;fill-opacity:1;fill-rule:nonzero;stroke:none"
         d="m 8249.0498,1885.867 c -3.35,-1.871 -7.41,-4.25 -11.08,-6.512 -3.75,-2.34 -7.5,-4.75 -11.21,-7.199 -7.43,-4.93 -14.74,-10.09 -21.84,-15.418 -14.3,-10.699 -28,-22.09 -41.05,-34.082 -26.02,-24.008 -49.38,-50.348 -69.2,-78.641 -8.57,-12.238 -25.9,-15.468 -38.67,-7.269 -12.78,8.23 -16.16,24.789 -7.63,37.031 l 1.6,2.031 0.12,0.129 c 25.21,29.399 53.66,55.828 84.33,79.11 15.39,11.652 31.29,22.511 47.79,32.582 8.21,5.008 16.57,9.816 25.14,14.41 4.25,2.277 8.59,4.519 12.96,6.699 4.44,2.18 8.64,4.211 13.72,6.379 8.53,3.711 18.66,0.09 22.52,-8.141 3.63,-7.699 0.5,-16.66 -6.97,-20.82 l -0.53,-0.289" /><path
         id="path192"
         style="fill:#e6d2d4;fill-opacity:1;fill-rule:nonzero;stroke:none"
         d="m 8390.2398,1682.637 c 0,0 -15.33,41.781 29.51,38.421 31.61,-2.371 42.7,-100.582 -51.54,-153.711 0,0 35.48,-0.75 61.75,7.911 26.29,8.699 62.44,-2.09 52.65,-32.332 -5.64,-17.52 -21.34,-15.848 -34.16,-18.879 -10.31,-2.469 -125.7,-5.77 -132.56,7.109 -20.94,39.5 74.35,151.481 74.35,151.481" /><path
         id="path194"
         style="fill:#edb4a7;fill-opacity:1;fill-rule:nonzero;stroke:none"
         d="m 8278.5998,1610.836 c -0.03,0 -0.05,0 -0.05,0 0,0 -0.02,0 -0.06,0 -2.47,0 -83.57,0.531 -88.68,70.082 -11.45,155.687 55.47,189.531 88.74,189.531 33.28,0 100.17,-33.844 88.72,-189.531 -5.1,-69.551 -86.2,-70.082 -88.67,-70.082" /><path
         id="path196"
         style="fill:#e6d2d4;fill-opacity:1;fill-rule:nonzero;stroke:none"
         d="m 8323.0898,1915.117 c 5.05,-2.168 9.24,-4.199 13.7,-6.379 4.39,-2.18 8.7,-4.422 12.97,-6.699 8.54,-4.594 16.9,-9.402 25.15,-14.41 16.46,-10.071 32.4,-20.93 47.77,-32.582 30.66,-23.282 59.1,-49.711 84.33,-79.11 l 0.05,-0.109 c 9.8,-11.391 8.09,-28.199 -3.83,-37.563 -11.88,-9.328 -29.44,-7.668 -39.19,3.68 l -1.62,2.07 c -19.82,28.293 -43.14,54.633 -69.21,78.641 -13,11.992 -26.7,23.383 -41.02,34.082 -7.13,5.328 -14.4,10.488 -21.83,15.418 -3.74,2.449 -7.48,4.859 -11.23,7.199 -3.72,2.262 -7.72,4.641 -11.09,6.512 l -0.47,0.25 c -8.15,4.5 -10.98,14.48 -6.26,22.281 4.38,7.297 13.91,10.117 21.78,6.719" /><path
         id="path198"
         style="fill:#e6d2d4;fill-opacity:1;fill-rule:nonzero;stroke:none"
         d="m 8105.1998,3084.157 c 10.12,-12.29 18.65,-24.8 26.64,-37.38 4.07,-6.28 7.73,-12.6 11.55,-18.93 3.57,-6.32 7.24,-12.64 10.66,-18.98 13.72,-25.42 25.39,-51.07 35.7,-76.88 20.59,-51.61 35.27,-103.91 45.87,-156.69 10.64,-52.78 17.54,-105.99 19.75,-159.73 1.09,-26.88 0.99,-53.91 -0.81,-81.13 -0.42,-6.78 -0.98,-13.61 -1.68,-20.46 -0.67,-6.81 -1.41,-13.66 -2.4,-20.51 -1.88,-13.73 -4.13,-27.51 -7.82,-41.43 -12.63,-47.89 -63.35,-76.9 -113.38,-64.83 -26.47,6.39 -47.62,23.31 -59.58,44.65 -7.05,12.69 -12.74,25.54 -17.98,38.41 -2.68,6.46 -5.1,12.91 -7.44,19.4 -2.41,6.46 -4.67,12.96 -6.76,19.47 -8.57,26.01 -15.43,52.2 -21.18,78.56 -11.32,52.68 -17.96,105.91 -20.83,159.61 -2.98,53.66 -1.85,107.79 5.18,162.63 3.55,27.42 8.47,55.02 15.4,82.81 1.75,6.97 3.74,13.95 5.59,20.92 2.12,6.99 4.06,13.99 6.45,21.02 4.63,14.04 9.75,28.14 16.53,42.42 8.15,17.19 29.27,24.8 47.22,17.03 5.36,-2.32 9.88,-5.86 13.32,-9.98" /><path
         id="path200"
         style="fill:#e6d2d4;fill-opacity:1;fill-rule:nonzero;stroke:none"
         d="m 8714.1598,2595.897 c -15.05,-3.11 -29.52,-4.8 -43.76,-5.94 -7.16,-0.64 -14.19,-0.93 -21.29,-1.37 -6.94,-0.15 -13.98,-0.48 -20.88,-0.5 -27.69,-0.34 -54.62,1.21 -81.06,3.98 -52.88,5.6 -103.54,16.49 -152.7,31.07 l 162.43,82.66 c -6.96,-46.93 -17.59,-93.08 -32.78,-138.24 -7.65,-22.59 -16.45,-44.92 -26.86,-66.9 -5.26,-10.97 -10.78,-21.9 -17.04,-32.67 -6.2,-10.78 -12.76,-21.51 -20.7,-31.92 -30.92,-40.58 -90.42,-49.46 -132.82,-19.81 -20.14,14.03 -32.83,34.41 -37.26,56.03 -2.6,12.68 -3.8,25.02 -4.63,37.3 -0.89,12.31 -1.08,24.44 -0.94,36.51 0.27,24.15 2.17,47.94 5.25,71.5 6.27,47.07 17.02,93.19 31.54,138.5 l 5.38,16.9 c 18.25,57.08 81.4,89.22 141.07,71.75 5.31,-1.56 11.03,-3.76 15.94,-5.98 46.37,-21.39 91.23,-46.45 133.9,-76.82 21.3,-15.23 42.14,-31.65 62.2,-49.96 5.02,-4.52 9.93,-9.35 14.9,-14.02 4.88,-4.92 9.81,-9.71 14.6,-14.84 9.63,-10.16 19.03,-20.81 27.84,-32.91 11.56,-15.88 7.52,-37.72 -9.09,-48.81 -4.06,-2.7 -8.68,-4.57 -13.24,-5.51" /><path
         id="path202"
         style="fill:#edb4a7;fill-opacity:1;fill-rule:nonzero;stroke:none"
         d="m 8116.0098,2470.117 c -8.22,32.61 -14.4,65.46 -20.02,98.37 -7.23,43.68 -12.72,87.57 -16.9,131.58 -4.18,44.02 -7.01,88.22 -7.49,132.67 -0.31,22.24 -0.03,44.52 0.89,66.91 1.02,22.36 2.45,44.79 5.71,67.42 0.78,5.5 5.73,9.5 11.37,9.5 0.51,0 1.03,-0.04 1.56,-0.1 4.22,-0.57 7.6,-3.29 9.09,-6.84 8.82,-21.22 15.85,-42.66 22.43,-64.14 6.55,-21.51 12.39,-43.09 17.65,-64.73 10.69,-43.26 19,-86.82 26.01,-130.5 6.96,-43.73 12.64,-87.57 16.59,-131.64 2.66,-31.75 4.81,-63.56 5.17,-95.57 -25.06,-2.85 -49.19,-7.07 -72.06,-12.93" /><path
         id="path204"
         style="fill:#edb4a7;fill-opacity:1;fill-rule:nonzero;stroke:none"
         d="m 8416.1098,2475.757 c -22.41,4.6 -45.92,7.75 -70.38,9.68 1.66,15.48 3.77,30.86 6.02,46.21 3.55,23.45 7.63,46.79 12.17,70.03 4.62,23.21 9.45,46.39 14.85,69.44 2.66,11.54 5.38,23.06 8.27,34.55 2.82,11.49 5.77,22.98 8.82,34.43 l 0.69,2.52 c 4.93,18.5 22.33,30.82 41.39,30.82 3.51,0 7.07,-0.42 10.62,-1.29 2.11,-0.52 4.36,-1.27 6.28,-2.05 8.49,-3.47 16.92,-7.13 25.32,-10.86 8.42,-3.62 16.7,-7.57 25.02,-11.45 16.64,-7.82 33.11,-16.03 49.34,-24.79 16.27,-8.69 32.36,-17.9 48.1,-27.75 15.8,-9.87 31.4,-20.16 46.36,-32.04 4.96,-3.95 5.65,-10.99 1.55,-15.75 -2.32,-2.66 -5.67,-4.03 -9.05,-4.03 -0.19,0 -0.39,0.01 -0.58,0.02 -19.42,1.06 -38.17,3.7 -56.76,6.77 -18.57,3.09 -36.87,6.81 -54.94,11.08 -18.14,4.17 -36.03,8.92 -53.78,14.01 -1.11,0.33 -2.23,0.65 -3.34,0.98 -1.77,-7.97 -3.59,-15.93 -5.47,-23.89 -5.28,-23.06 -11.17,-46.01 -17.28,-68.93 -6.21,-22.87 -12.82,-45.66 -19.98,-68.35 -4.22,-13.16 -8.56,-26.29 -13.24,-39.36" /><path
         id="path206"
         style="fill:#e6d2d4;fill-opacity:1;fill-rule:nonzero;stroke:none"
         d="m 8641.1998,2292.867 c -55.77,151.49 -191.12,194.99 -360.82,194.99 l -0.12,-0.05 -0.14,0.05 c -169.69,0 -317.27,-41.89 -360.79,-194.99 -12.92,-45.38 -40.19,-70.699 -51.26,-135 -18.83,-108.898 74.98,-275.32 412.05,-275.32 l 0.14,0.058 0.12,-0.058 c 337.1,0 423.35,165.359 412.08,275.32 -7.33,71.66 -34.98,90.74 -51.26,135" /><path
         id="path208"
         style="fill:#ffffff;fill-opacity:1;fill-rule:nonzero;stroke:none"
         d="m 8304.6398,2007.008 h -0.17 c -14.55,0 -24.06,7.91 -31.3,14.859 l -1.22,1.648 -0.58,2.43 -1.56,1.981 c -1.69,4.101 -3.25,8.82 -4.01,10.371 v -9.5 l -0.05,-0.01 v 9.508 c -1.22,-2.571 -4.6,-13.809 -7.36,-16.43 -7.22,-6.949 -16.75,-14.859 -31.29,-14.859 h -0.18 c -2.78,0.039 -5.25,-1.922 -7.62,-1.559 0,0 -0.95,-37.203 46.37,-37.203 47.26,0 46.62,37.203 46.62,37.203 -2.36,-0.363 -4.85,1.598 -7.65,1.559" /><path
         id="path210"
         style="fill:#bdbcbc;fill-opacity:1;fill-rule:nonzero;stroke:none"
         d="m 8265.6698,2038.297 c 0.45,-11.668 0.32,-23.34 0.5,-35.02 -0.18,-11.68 -0.05,-23.371 -0.5,-35.031 -0.51,11.66 -0.37,23.351 -0.58,35.031 0.21,11.68 0.07,23.352 0.58,35.02" /><path
         id="path212"
         style="fill:#5a2f29;fill-opacity:1;fill-rule:nonzero;stroke:none"
         d="m 8329.1598,2044.988 c 4.87,0 4.87,-7.223 0,-7.223 -4.84,0 -4.84,7.223 0,7.223" /><path
         id="path214"
         style="fill:#5a2f29;fill-opacity:1;fill-rule:nonzero;stroke:none"
         d="m 8310.7798,2041.379 c 4.85,0 4.85,-7.203 0,-7.203 -4.82,0 -4.82,7.203 0,7.203" /><path
         id="path216"
         style="fill:#5a2f29;fill-opacity:1;fill-rule:nonzero;stroke:none"
         d="m 8302.3798,2029.047 c 4.83,0 4.83,-7.18 0,-7.18 -4.85,0 -4.85,7.18 0,7.18" /><path
         id="path218"
         style="fill:#5a2f29;fill-opacity:1;fill-rule:nonzero;stroke:none"
         d="m 8323.2098,2027.289 c 4.82,0 4.82,-7.223 0,-7.223 -4.86,0 -4.86,7.223 0,7.223" /><path
         id="path220"
         style="fill:#5a2f29;fill-opacity:1;fill-rule:nonzero;stroke:none"
         d="m 8340.0698,2034.469 c 4.86,0 4.86,-7.18 0,-7.18 -4.84,0 -4.84,7.18 0,7.18" /><path
         id="path222"
         style="fill:#5a2f29;fill-opacity:1;fill-rule:nonzero;stroke:none"
         d="m 8264.8798,2071.066 c 0.56,-7.078 1.59,-14.07 2.01,-21.211 0.26,-7.078 -0.02,-14.578 -2.94,-21.476 -2.96,-7.024 -8.53,-12.75 -15.18,-16.582 -6.68,-3.801 -14.21,-5.969 -21.8,-6.828 -15.13,-1.582 -30.77,1.339 -43.92,8.648 -6.5,3.672 -12.44,8.449 -16.95,14.281 -4.38,5.879 -7.39,12.688 -8.3,19.758 3.5,-13.898 14.05,-25.07 26.84,-31.289 12.78,-6.27 27.6,-8.891 41.84,-7.281 7.12,0.801 14.1,2.73 20.15,6.14 6.09,3.332 11.2,8.371 14.03,14.422 3.03,6.168 3.8,13.18 3.95,20.168 0.27,7.039 -0.21,14.16 0.27,21.25" /><path
         id="path224"
         style="fill:#5a2f29;fill-opacity:1;fill-rule:nonzero;stroke:none"
         d="m 8266.8898,2071.066 c 0.49,-7.09 0,-14.211 0.26,-21.25 0.14,-6.988 0.9,-14 3.94,-20.168 2.87,-6.051 7.96,-11.09 14.04,-14.422 6.06,-3.41 13.06,-5.339 20.15,-6.14 14.18,-1.61 29.02,1.011 41.83,7.281 12.83,6.219 23.34,17.391 26.82,31.289 -0.9,-7.07 -3.88,-13.879 -8.28,-19.758 -4.5,-5.832 -10.41,-10.609 -16.94,-14.281 -13.14,-7.309 -28.81,-10.23 -43.93,-8.648 -7.59,0.859 -15.12,3.027 -21.77,6.828 -6.69,3.832 -12.27,9.558 -15.21,16.582 -2.92,6.898 -3.19,14.398 -2.92,21.476 0.43,7.141 1.46,14.133 2.01,21.211" /><path
         id="path226"
         style="fill:#5a2f29;fill-opacity:1;fill-rule:nonzero;stroke:none"
         d="m 8202.3998,2044.988 c -4.84,0 -4.84,-7.223 0,-7.223 4.87,0 4.87,7.223 0,7.223" /><path
         id="path228"
         style="fill:#5a2f29;fill-opacity:1;fill-rule:nonzero;stroke:none"
         d="m 8220.8198,2041.379 c -4.84,0 -4.84,-7.203 0,-7.203 4.83,0 4.83,7.203 0,7.203" /><path
         id="path230"
         style="fill:#5a2f29;fill-opacity:1;fill-rule:nonzero;stroke:none"
         d="m 8229.2198,2029.047 c -4.86,0 -4.86,-7.18 0,-7.18 4.83,0 4.83,7.18 0,7.18" /><path
         id="path232"
         style="fill:#5a2f29;fill-opacity:1;fill-rule:nonzero;stroke:none"
         d="m 8208.3898,2027.289 c -4.85,0 -4.85,-7.223 0,-7.223 4.84,0 4.84,7.223 0,7.223" /><path
         id="path234"
         style="fill:#5a2f29;fill-opacity:1;fill-rule:nonzero;stroke:none"
         d="m 8191.5398,2034.469 c -4.86,0 -4.86,-7.18 0,-7.18 4.79,0 4.79,7.18 0,7.18" /><path
         id="path236"
         style="fill:#5a2f29;fill-opacity:1;fill-rule:nonzero;stroke:none"
         d="m 8328.8098,2108.355 c 0,-22.129 -28.62,-57 -63.93,-57 -35.29,0 -63.94,34.871 -63.94,57 0,22.153 28.65,27.231 63.94,27.231 35.31,0 63.93,-5.078 63.93,-27.231" /><path
         id="path238"
         style="fill:#774039;fill-opacity:1;fill-rule:nonzero;stroke:none"
         d="m 8217.1298,2114.469 c -12.25,-12.161 1.52,-45.633 19.18,-33.051 4.69,3.308 7.54,7.039 10.51,11.789 5.12,8.172 11.8,11.762 21.3,13.75 6.57,1.371 20.81,2.469 20.44,11.871 -0.58,13.289 -55.26,11.769 -71.43,-4.359" /><path
         id="path240"
         style="fill:#5a2f29;fill-opacity:1;fill-rule:nonzero;stroke:none"
         d="m 8054.3898,2202.437 c 0,-9.761 -8.31,-17.679 -18.5,-17.679 -10.2,0 -18.49,7.918 -18.49,17.679 0,9.77 8.29,17.7 18.49,17.7 10.19,0 18.5,-7.93 18.5,-17.7" /><path
         id="path242"
         style="fill:#ffffff;fill-opacity:1;fill-rule:nonzero;stroke:none"
         d="m 8049.6398,2209.488 c 0,-3.16 -2.69,-5.723 -6.01,-5.723 -3.28,0 -5.95,2.563 -5.95,5.723 0,3.18 2.67,5.738 5.95,5.738 3.32,0 6.01,-2.558 6.01,-5.738" /><path
         id="path244"
         style="fill:#5a2f29;fill-opacity:1;fill-rule:nonzero;stroke:none"
         d="m 8054.2398,2217.008 c -4.37,3.64 -9.65,4.937 -14.77,5.05 -2.6,0 -5.17,-0.179 -7.73,-0.722 -2.64,-0.457 -4.84,-1.137 -7.17,-2.239 -2.3,-1.058 -4.55,-2.441 -6.99,-3.851 -2.44,-1.359 -5.08,-2.938 -8.16,-3.719 -3.11,-0.879 -6.47,-0.851 -9.38,-0.09 -2.93,0.809 -5.55,2.11 -7.85,3.789 5.65,-1.191 11.19,-1.597 15.62,0.532 4.44,1.988 8.41,6 14.06,8.609 2.78,1.328 5.99,2.191 8.96,2.52 3.01,0.25 6.11,0.378 9.12,-0.219 6.03,-0.949 11.99,-4.41 14.29,-9.66" /><path
         id="path246"
         style="fill:#5a2f29;fill-opacity:1;fill-rule:nonzero;stroke:none"
         d="m 8000.5498,2220.137 c 3.8,-0.782 7.16,-0.942 10.53,-0.469 3.38,0.418 6.63,1.57 10.32,2.758 -2.24,-3.047 -5.91,-5.11 -9.9,-5.668 -2.01,-0.243 -4.06,-0.141 -5.96,0.449 -1.87,0.531 -3.72,1.461 -4.99,2.93" /><path
         id="path248"
         style="fill:#5a2f29;fill-opacity:1;fill-rule:nonzero;stroke:none"
         d="m 8006.5098,2223.969 c 1.89,-0.411 3.67,-0.372 5.41,-0.332 1.77,0.089 3.54,0.23 5.29,0.46 3.57,0.379 7.13,1.051 11.03,1.149 -3.12,-2.277 -6.79,-3.57 -10.66,-4.059 -1.93,-0.191 -3.9,-0.211 -5.86,0.2 -1.91,0.371 -3.93,1.082 -5.21,2.582" /><path
         id="path250"
         style="fill:#5a2f29;fill-opacity:1;fill-rule:nonzero;stroke:none"
         d="m 8505.9198,2202.437 c 0,-9.761 8.26,-17.679 18.47,-17.679 10.21,0 18.49,7.918 18.49,17.679 0,9.77 -8.28,17.7 -18.49,17.7 -10.21,0 -18.47,-7.93 -18.47,-17.7" /><path
         id="path252"
         style="fill:#ffffff;fill-opacity:1;fill-rule:nonzero;stroke:none"
         d="m 8510.6098,2209.488 c 0,-3.16 2.69,-5.723 5.99,-5.723 3.35,0 5.98,2.563 5.98,5.723 0,3.18 -2.63,5.738 -5.98,5.738 -3.3,0 -5.99,-2.558 -5.99,-5.738" /><path
         id="path254"
         style="fill:#5a2f29;fill-opacity:1;fill-rule:nonzero;stroke:none"
         d="m 8506.0298,2217.008 c 2.29,5.25 8.26,8.711 14.32,9.66 3.01,0.597 6.1,0.469 9.09,0.219 2.97,-0.329 6.23,-1.192 8.98,-2.52 5.6,-2.609 9.63,-6.621 14.05,-8.609 4.43,-2.129 9.96,-1.723 15.63,-0.532 -2.35,-1.679 -4.94,-2.98 -7.88,-3.789 -2.91,-0.761 -6.25,-0.789 -9.34,0.09 -3.11,0.781 -5.77,2.36 -8.2,3.719 -2.44,1.41 -4.65,2.793 -6.96,3.851 -2.34,1.102 -4.54,1.782 -7.18,2.239 -2.58,0.543 -5.15,0.722 -7.74,0.722 -5.1,-0.113 -10.39,-1.41 -14.77,-5.05" /><path
         id="path256"
         style="fill:#5a2f29;fill-opacity:1;fill-rule:nonzero;stroke:none"
         d="m 8559.7098,2220.137 c -1.25,-1.469 -3.07,-2.399 -4.98,-2.93 -1.94,-0.59 -3.98,-0.692 -5.98,-0.449 -3.97,0.558 -7.63,2.621 -9.87,5.668 3.7,-1.188 6.94,-2.34 10.3,-2.758 3.4,-0.473 6.76,-0.313 10.53,0.469" /><path
         id="path258"
         style="fill:#5a2f29;fill-opacity:1;fill-rule:nonzero;stroke:none"
         d="m 8553.7798,2223.969 c -1.3,-1.5 -3.29,-2.211 -5.22,-2.582 -1.96,-0.411 -3.96,-0.391 -5.88,-0.2 -3.86,0.489 -7.52,1.782 -10.65,4.059 3.92,-0.098 7.46,-0.77 11.02,-1.149 1.78,-0.23 3.53,-0.371 5.27,-0.46 1.8,-0.04 3.56,-0.079 5.46,0.332" /><path
         id="path260"
         style="fill:#ebbeb6;fill-opacity:1;fill-rule:nonzero;stroke:none"
         d="m 8060.2498,2050.258 c -30.54,0 -55.31,23.711 -55.31,52.937 0,29.262 24.77,52.973 55.31,52.973 30.53,0 55.3,-23.711 55.3,-52.973 0,-29.226 -24.77,-52.937 -55.3,-52.937" /><path
         id="path262"
         style="fill:#ebbeb6;fill-opacity:1;fill-rule:nonzero;stroke:none"
         d="m 8500.0298,2050.258 c -30.54,0 -55.31,23.711 -55.31,52.937 0,29.262 24.77,52.973 55.31,52.973 30.54,0 55.32,-23.711 55.32,-52.973 0,-29.226 -24.78,-52.937 -55.32,-52.937" /></g></g></svg>
