<?xml version="1.0" encoding="UTF-8" standalone="no"?>
<svg
   viewBox="0 0 142.16017 134.40399"
   height="134.40399"
   width="142.16017"
   xml:space="preserve"
   id="svg2"
   version="1.1"
   sodipodi:docname="sea-lion.svg"
   inkscape:version="1.1.2 (b8e25be833, 2022-02-05)"
   xmlns:inkscape="http://www.inkscape.org/namespaces/inkscape"
   xmlns:sodipodi="http://sodipodi.sourceforge.net/DTD/sodipodi-0.dtd"
   xmlns="http://www.w3.org/2000/svg"
   xmlns:svg="http://www.w3.org/2000/svg"
   xmlns:rdf="http://www.w3.org/1999/02/22-rdf-syntax-ns#"
   xmlns:cc="http://creativecommons.org/ns#"
   xmlns:dc="http://purl.org/dc/elements/1.1/"><sodipodi:namedview
     id="namedview8358"
     pagecolor="#ffffff"
     bordercolor="#666666"
     borderopacity="1.0"
     inkscape:pageshadow="2"
     inkscape:pageopacity="0.0"
     inkscape:pagecheckerboard="0"
     showgrid="false"
     inkscape:zoom="0.21420082"
     inkscape:cx="-392.15536"
     inkscape:cy="950.04304"
     inkscape:window-width="2560"
     inkscape:window-height="1361"
     inkscape:window-x="-9"
     inkscape:window-y="-9"
     inkscape:window-maximized="1"
     inkscape:current-layer="g12"
     fit-margin-top="0"
     fit-margin-left="0"
     fit-margin-right="0"
     fit-margin-bottom="0" /><metadata
     id="metadata8"><rdf:RDF><cc:Work
         rdf:about=""><dc:format>image/svg+xml</dc:format><dc:type
           rdf:resource="http://purl.org/dc/dcmitype/StillImage" /></cc:Work></rdf:RDF></metadata><defs
     id="defs6"><clipPath
       id="clipPath542"
       clipPathUnits="userSpaceOnUse"><path
         id="path540"
         d="m 5450.34,694.672 c -0.11,0 -0.23,0.008 -0.34,0.047 -3.4,1.043 -6.74,2.871 -9.78,5.191 1.04,0.942 2.07,1.879 3.11,2.82 2.61,-1.902 5.33,-3.718 7.96,-5.789 0.97,-0.773 0.11,-2.269 -0.95,-2.269" /></clipPath></defs><g
     transform="matrix(1.3333333,0,0,-1.3333333,-439.76603,1237.5219)"
     id="g10"><g
       transform="scale(0.1)"
       id="g12"><path
         id="path6858"
         style="fill:#383f75;fill-opacity:1;fill-rule:nonzero;stroke:none"
         d="m 3689.1053,8513.0843 c 0,0 36.83,-120.38 -98,-184.22 0,0 -48.5,-17.4 -57.59,0 0,0 -30.31,-26.1 -60.61,0 0,0 -56.06,-4.85 -57.58,26.6 -1.5,31.44 63.62,2.76 96.96,37.4 33.36,34.64 150.58,182.58 176.82,120.22" /><path
         id="path6860"
         style="fill:#485199;fill-opacity:1;fill-rule:nonzero;stroke:none"
         d="m 4357.7253,8600.8943 c -18.08,12.65 -25.64,-33.51 -58.73,-38.56 -21.5,-3.28 -84.75,-7.76 -118.94,-20.85 0.77,35.45 -10.29,86.38 -12.72,105.23 -4.15,31.82 40.07,51.64 22.34,64.7 -17.73,13.07 -39.77,-16.95 -39.77,-16.95 -27.52,-3.58 -26.66,-30.14 -26.66,-30.14 -13.45,3.13 -25.36,-28.66 -25.36,-28.66 -14.08,-54.32 -1.11,-82.32 16.92,-100.11 -70.88,-7.06 -215.65,-10.98 -317.4,132.79 -79.81,112.76 -100.42,0 -139.96,143.76 -34.32,124.94 -134.34,-155.61 -102.95,-298.56 22.46,-102.22 92.01,-186.1 200.35,-198.3 234.8,-26.45 367.15,127.38 407.65,184.47 26.75,-19.31 79.84,-40.24 144.69,-4.3 0,0 28.58,19.77 21.72,31.28 0,0 26.89,6.6 22.85,32.89 0,0 24.02,28.62 5.97,41.31" /><path
         id="path6862"
         style="fill:#5662b7;fill-opacity:1;fill-rule:nonzero;stroke:none"
         d="m 3702.1453,9222.0243 c -14.9,13.77 -45.72,21.97 -76.86,18.92 -60.93,-5.95 -64.64,22.62 -64.64,22.62 -6.22,-14.27 5.7,-28.57 5.7,-28.57 -37.79,2.39 -34.8,46.42 -34.8,46.42 -24.13,-29.75 0,-55.34 0,-55.34 -24.3,10.83 -30.55,0 -30.55,0 0,0 4.96,8.34 28.6,-18.66 -220.13,-19.35 -231.35,-266.93 -231.35,-338.48 0,-85.02 118.04,-234.21 347.64,-234.21 229.6,0 347.64,147.39 347.64,234.21 0,80.59 -7.8,340.25 -291.38,353.09" /><path
         id="path6864"
         style="fill:#fffbfd;fill-opacity:1;fill-rule:nonzero;stroke:none"
         d="m 3531.5453,8813.9643 c 0,-13.66 -11.57,-24.73 -25.81,-24.73 -14.25,0 -25.81,11.07 -25.81,24.73 0,13.65 11.56,24.71 25.81,24.71 14.24,0 25.81,-11.06 25.81,-24.71" /><path
         id="path6866"
         style="fill:#212121;fill-opacity:1;fill-rule:nonzero;stroke:none"
         d="m 3500.5753,8810.9843 c -2.81,0 -5.13,2.21 -5.13,4.93 0,2.71 2.32,4.9 5.13,4.9 2.85,0 5.16,-2.19 5.16,-4.9 0,-2.72 -2.31,-4.93 -5.16,-4.93 z m -2.45,-6.12 c -1.44,0 -2.64,1.13 -2.64,2.52 0,1.36 1.2,2.5 2.64,2.5 1.43,0 2.63,-1.14 2.63,-2.5 0,-1.39 -1.2,-2.52 -2.63,-2.52 z m 7.17,19 c -9.48,0 -14.07,-6.64 -14.07,-13.46 0,-7.44 6.33,-13.47 14.07,-13.47 7.77,0 14.05,6.03 14.05,13.47 0,7.44 -6.28,13.46 -14.05,13.46" /><path
         id="path6868"
         style="fill:#232d49;fill-opacity:1;fill-rule:nonzero;stroke:none"
         d="m 3468.0653,8837.4243 c -0.17,0 -0.34,0.02 -0.51,0.05 -1.6,0.28 -2.66,1.8 -2.38,3.4 2.09,11.99 12.52,20.42 25.45,20.42 0.04,0 0.09,0 0.14,0 3.57,0 7.34,-0.62 11.19,-1.94 1.53,-0.52 2.34,-2.19 1.82,-3.72 -0.41,-1.22 -1.55,-1.99 -2.77,-1.99 -0.32,0 -0.64,0.06 -0.95,0.16 -3.27,1.12 -6.39,1.62 -9.29,1.62 -10.52,-0.06 -18.14,-6.4 -19.81,-15.57 v -0.01 c -0.25,-1.42 -1.49,-2.42 -2.89,-2.42" /><path
         id="path6870"
         style="fill:#fffbfd;fill-opacity:1;fill-rule:nonzero;stroke:none"
         d="m 3760.1953,8813.9643 c 0,-13.66 11.56,-24.73 25.86,-24.73 14.24,0 25.79,11.07 25.79,24.73 0,13.65 -11.55,24.71 -25.79,24.71 -14.3,0 -25.86,-11.06 -25.86,-24.71" /><path
         id="path6872"
         style="fill:#212121;fill-opacity:1;fill-rule:nonzero;stroke:none"
         d="m 3786.0553,8815.9143 c 0,2.71 2.28,4.9 5.12,4.9 2.85,0 5.14,-2.19 5.14,-4.9 0,-2.72 -2.29,-4.93 -5.14,-4.93 -2.84,0 -5.12,2.21 -5.12,4.93 z m 4.96,-8.53 c 0,1.36 1.19,2.5 2.63,2.5 1.43,0 2.6,-1.14 2.6,-2.5 0,-1.39 -1.17,-2.52 -2.6,-2.52 -1.44,0 -2.63,1.13 -2.63,2.52 z m -18.6,3.02 c 0,-7.44 6.28,-13.47 14.07,-13.47 7.73,0 14.03,6.03 14.03,13.47 0,6.82 -4.6,13.46 -14.03,13.46 -7.79,0 -14.07,-6.02 -14.07,-13.46" /><path
         id="path6874"
         style="fill:#232d49;fill-opacity:1;fill-rule:nonzero;stroke:none"
         d="m 3823.6853,8837.4243 c -1.39,0 -2.63,1 -2.88,2.42 -1.68,9.18 -9.29,15.52 -19.81,15.58 -2.91,0 -6.04,-0.5 -9.3,-1.62 -0.32,-0.11 -0.64,-0.16 -0.95,-0.16 -1.22,0 -2.36,0.77 -2.78,1.99 -0.53,1.53 0.29,3.2 1.83,3.72 3.84,1.32 7.62,1.94 11.2,1.94 0.05,0 0.1,0 0.15,0 12.93,0 23.35,-8.43 25.43,-20.42 v 0 c 0.28,-1.6 -0.78,-3.12 -2.37,-3.4 -0.18,-0.03 -0.35,-0.05 -0.52,-0.05" /><path
         id="path6876"
         style="fill:#d7cac0;fill-opacity:1;fill-rule:nonzero;stroke:none"
         d="m 3613.7353,8638.9443 c 0,0 29.47,-27.47 68.11,0 l 15.11,-2.97 c 0,0 -10.73,-24.5 -51.28,-24.5 -40.56,0 -46.37,23.5 -46.37,23.5 l 14.43,3.97" /><path
         id="path6878"
         style="fill:#f1e3d6;fill-opacity:1;fill-rule:nonzero;stroke:none"
         d="m 3789.7153,8702.0043 c -10.96,76.93 -112.63,70.33 -143.88,70.33 -31.29,0 -133.21,6.62 -144.12,-70.28 -10.92,-76.76 107.58,-88.17 143.94,-41.37 31.59,-42.02 154.96,-35.44 144.06,41.32" /><path
         id="path6880"
         style="fill:#1c0b0f;fill-opacity:1;fill-rule:nonzero;stroke:none"
         d="m 3699.7953,8688.8443 c 0,-1.5 -1.28,-2.7 -2.88,-2.7 -1.56,0 -2.83,1.2 -2.83,2.7 0,1.55 1.27,2.75 2.83,2.75 1.6,0 2.88,-1.2 2.88,-2.75" /><path
         id="path6882"
         style="fill:#1c0b0f;fill-opacity:1;fill-rule:nonzero;stroke:none"
         d="m 3719.7653,8690.4043 c 0,-1.52 -1.27,-2.73 -2.83,-2.73 -1.6,0 -2.87,1.21 -2.87,2.73 0,1.53 1.27,2.76 2.87,2.76 1.56,0 2.83,-1.23 2.83,-2.76" /><path
         id="path6884"
         style="fill:#1c0b0f;fill-opacity:1;fill-rule:nonzero;stroke:none"
         d="m 3710.3953,8676.4243 c 0,-1.53 -1.28,-2.74 -2.86,-2.74 -1.56,0 -2.87,1.21 -2.87,2.74 0,1.52 1.31,2.72 2.87,2.72 1.58,0 2.86,-1.2 2.86,-2.72" /><path
         id="path6886"
         style="fill:#1c0b0f;fill-opacity:1;fill-rule:nonzero;stroke:none"
         d="m 3704.6653,8661.5443 c 0,-1.51 -1.27,-2.75 -2.84,-2.75 -1.61,0 -2.88,1.24 -2.88,2.75 0,1.5 1.27,2.73 2.88,2.73 1.57,0 2.84,-1.23 2.84,-2.73" /><path
         id="path6888"
         style="fill:#1c0b0f;fill-opacity:1;fill-rule:nonzero;stroke:none"
         d="m 3728.4753,8663.6843 c 0,-1.54 -1.3,-2.75 -2.87,-2.75 -1.58,0 -2.84,1.21 -2.84,2.75 0,1.51 1.26,2.73 2.84,2.73 1.57,0 2.87,-1.22 2.87,-2.73" /><path
         id="path6890"
         style="fill:#1c0b0f;fill-opacity:1;fill-rule:nonzero;stroke:none"
         d="m 3693.2253,8670.9443 c 0,-1.5 -1.29,-2.75 -2.86,-2.75 -1.57,0 -2.87,1.25 -2.87,2.75 0,1.49 1.3,2.74 2.87,2.74 1.57,0 2.86,-1.25 2.86,-2.74" /><path
         id="path6892"
         style="fill:#1c0b0f;fill-opacity:1;fill-rule:nonzero;stroke:none"
         d="m 3730.7353,8678.6843 c 0,-1.52 -1.27,-2.72 -2.83,-2.72 -1.62,0 -2.89,1.2 -2.89,2.72 0,1.54 1.27,2.73 2.89,2.73 1.56,0 2.83,-1.19 2.83,-2.73" /><path
         id="path6894"
         style="fill:#1c0b0f;fill-opacity:1;fill-rule:nonzero;stroke:none"
         d="m 3572.9053,8688.8443 c 0,-1.5 -1.26,-2.7 -2.87,-2.7 -1.56,0 -2.83,1.2 -2.83,2.7 0,1.55 1.27,2.75 2.83,2.75 1.61,0 2.87,-1.2 2.87,-2.75" /><path
         id="path6896"
         style="fill:#1c0b0f;fill-opacity:1;fill-rule:nonzero;stroke:none"
         d="m 3592.8753,8690.4043 c 0,-1.52 -1.26,-2.73 -2.84,-2.73 -1.57,0 -2.86,1.21 -2.86,2.73 0,1.53 1.29,2.76 2.86,2.76 1.58,0 2.84,-1.23 2.84,-2.76" /><path
         id="path6898"
         style="fill:#1c0b0f;fill-opacity:1;fill-rule:nonzero;stroke:none"
         d="m 3583.5453,8676.4243 c 0,-1.53 -1.32,-2.74 -2.86,-2.74 -1.61,0 -2.88,1.21 -2.88,2.74 0,1.52 1.27,2.72 2.88,2.72 1.54,0 2.86,-1.2 2.86,-2.72" /><path
         id="path6900"
         style="fill:#1c0b0f;fill-opacity:1;fill-rule:nonzero;stroke:none"
         d="m 3577.8053,8661.5443 c 0,-1.51 -1.27,-2.75 -2.86,-2.75 -1.59,0 -2.86,1.24 -2.86,2.75 0,1.5 1.27,2.73 2.86,2.73 1.59,0 2.86,-1.23 2.86,-2.73" /><path
         id="path6902"
         style="fill:#1c0b0f;fill-opacity:1;fill-rule:nonzero;stroke:none"
         d="m 3601.5953,8663.6843 c 0,-1.54 -1.29,-2.75 -2.87,-2.75 -1.58,0 -2.88,1.21 -2.88,2.75 0,1.51 1.3,2.73 2.88,2.73 1.58,0 2.87,-1.22 2.87,-2.73" /><path
         id="path6904"
         style="fill:#1c0b0f;fill-opacity:1;fill-rule:nonzero;stroke:none"
         d="m 3566.3453,8670.9443 c 0,-1.5 -1.27,-2.75 -2.85,-2.75 -1.57,0 -2.85,1.25 -2.85,2.75 0,1.49 1.28,2.74 2.85,2.74 1.58,0 2.85,-1.25 2.85,-2.74" /><path
         id="path6906"
         style="fill:#1c0b0f;fill-opacity:1;fill-rule:nonzero;stroke:none"
         d="m 3603.8653,8678.6843 c 0,-1.52 -1.29,-2.72 -2.84,-2.72 -1.6,0 -2.89,1.2 -2.89,2.72 0,1.54 1.29,2.73 2.89,2.73 1.55,0 2.84,-1.19 2.84,-2.73" /><path
         id="path6908"
         style="fill:#e47154;fill-opacity:1;fill-rule:nonzero;stroke:none"
         d="m 3645.6553,8660.6843 c -7.68,-9.88 -19.06,-17.15 -32.07,-21.77 l 0.15,0.03 c 0,0 29.47,-27.47 68.11,0 l 0.2,-0.03 c -15.43,4.15 -28.69,11.48 -36.39,21.77" /><path
         id="path6910"
         style="fill:#6778c4;fill-opacity:1;fill-rule:nonzero;stroke:none"
         d="m 3572.9353,8754.6143 72.93,3.39 h 0.02 l 72.96,-3.39 c 0,0 -61.29,164.21 -72.96,164.21 -11.7,0 -72.95,-164.21 -72.95,-164.21" /><path
         id="path6912"
         style="fill:#1c0b0f;fill-opacity:1;fill-rule:nonzero;stroke:none"
         d="m 3719.3053,8748.6843 c 0,-24.38 -41.96,-62.54 -76.93,-62.54 -34.95,0 -69.93,38.16 -69.93,62.54 0,24.38 20.64,25.72 46.1,25.72 h 54.66 c 25.46,0 46.1,-1.34 46.1,-25.72" /><path
         id="path6914"
         style="fill:#5662b7;fill-opacity:1;fill-rule:nonzero;stroke:none"
         d="m 3711.9553,8469.2043 c 0,0 -36.85,-120.4 97.99,-184.22 0,0 48.51,-17.4 57.56,0 0,0 30.33,-26.1 60.62,0 0,0 56.07,-4.84 57.58,26.58 1.51,31.45 -63.64,2.78 -96.97,37.43 -33.33,34.64 -150.58,182.57 -176.78,120.21" /></g></g></svg>
